{
.appVersion = "3337";
.formatVersion = 3;
DisplayStrings = (
"नOHno",
"ĂĂĂĂĂĂĀĀĀĀĀĀĆĆĆĆĆĆČČČČČČĎĎĎĎĎĎĚĚĚĚĚĚĖĖĖĖĖĖĒĒĒĒĒĒĞĞĞĞĞĞİİİİİİĪĪĪĪĪĪĮĮĮĮĮĮĹĹĹĹĹĹĽĽĽĽĽĽŃŃŃŃŃŃŇŇŇŇŇŇÑÑÑÑÑÑÖÖÖÖÖÖÒÒÒÒÒÒŐŐŐŐŐŐŌŌŌŌŌŌÕÕÕÕÕÕŔŔŔŔŔŔŘŘŘŘŘŘŚŚŚŚŚŚŠŠŠŠŠŠŞŞŞŞŞŞŤŤŤŤŤŤÚÚÚÚÚÚÜÜÜÜÜÜÙÙÙÙÙÙŰŰŰŰŰŰŪŪŪŪŪŪŲŲŲŲŲŲŮŮŮŮŮŮÝÝÝÝÝÝŸŸŸŸŸŸŹŹŹŹŹŹŽŽŽŽŽŽŻŻŻŻŻŻááááááăăăăăăââââââääääääààààààāāāāāāååååååããããããććććććččččččççççççééééééěěěěěěêêêêêêëëëëëëėėėėėėèèèèèèēēēēēēğğğğğğííííííïïïïïïīīīīīīĩĩĩĩĩĩĺĺĺĺĺĺľľľľľľňňňňňňññññññóóóóóóôôôôôôööööööòòòòòòőőőőőőōōōōōōõõõõõõŕŕŕŕŕŕřřřřřřşşşşşşťťťťťťüüüüüüűűűűűűūūūūūūųųųųųųůůůůůůýýýýýýÿÿÿÿÿÿźźźźźźžžžžžžżżżżżż",
"¨",
"/dieresis.cap",
W,
w,
"̈",
Y,
"/acutecomb.case Ý",
"/gravecomb.case Ỳ",
Z,
c,
e,
"ȷ",
"HĦ",
"ẞS",
"́/jacute",
"ŢŢ",
"̋Ő",
"̀à",
l,
"̃õ",
z
);
axes = (
{
name = Weight;
tag = wght;
},
{
name = Width;
tag = wdth;
}
);
classes = (
{
automatic = 1;
code = "iMatra-deva iMatra-deva.0 iMatra-deva.05 iMatra-deva.10";
name = DevaIMatras;
},
{
automatic = 1;
code = "iMatra_reph-deva iMatra_reph-deva.0 iMatra_reph-deva.05 iMatra_reph-deva.10";
name = DevaIMatraRephs;
},
{
automatic = 1;
code = "iMatra_reph_anusvara-deva iMatra_reph_anusvara-deva.0 iMatra_reph_anusvara-deva.05 iMatra_reph_anusvara-deva.10";
name = DevaIMatraRephAnusvaras;
},
{
automatic = 1;
code = "ka-deva kha-deva ga-deva gha-deva nga-deva ca-deva cha-deva ja-deva jha-deva nya-deva tta-deva ttha-deva dda-deva ddha-deva nna-deva ta-deva tha-deva da-deva dha-deva na-deva nnna-deva pa-deva pha-deva ba-deva bha-deva ma-deva ya-deva ra-deva rra-deva la-deva lla-deva llla-deva va-deva sha-deva ssa-deva sa-deva ha-deva qa-deva khha-deva ghha-deva za-deva dddha-deva rha-deva fa-deva yya-deva zha-deva jjya-deva gga-deva jja-deva ddda-deva bba-deva la-deva.loclMAR sha-deva.loclMAR jha-deva.loclNEP zha-deva.loclNEP na-deva.post ya-deva.post ra-deva.post va-deva.post";
name = DevaFullforms;
},
{
automatic = 1;

glyphs = (
{
color = 4;
glyphname = A;
lastChange = "2025-01-09 17:02:38 +0000";
layers = (
{
anchors = (
{
name = bottom;
pos = (365,0);
},
{
name = ogonek;
pos = (656,10);
},
{
name = top;
pos = (365,758);
}
);
layerId = "E777F328-EA17-4AE7-9EBA-8002E537BA4F";
name = Light;
shapes = (
{
closed = 1;
nodes = (
(1,0,l),
(221,0,l),
(221,33,l),
(136,44,l),
(197,222,l),
(512,222,l),
(574,44,l),
(492,33,l),
(492,0,l),
(730,0,l),
(730,33,l),
(649,44,l),
(394,762,l),
(335,762,l),
(72,44,l),
(1,33,l)
);
},
{
closed = 1;
nodes = (
(212,267,l),
(356,680,l),
(392,566,l),
(497,267,l)
);
}
);
width = 729;
},
{
anchors = (
{
name = bottom;
pos = (365,0);
},
{
name = ogonek;
pos = (656,10);
},
{
name = top;
pos = (365,758);
}
);
layerId = "39185045-6A8C-415A-8312-7B8F11386A4C";
name = Regular;
shapes = (
{
closed = 1;
nodes = (
(1,0,l),
(234,0,l),
(234,42,l),
(153,56,l),
(206,213,l),
(499,213,l),
(551,56,l),
(470,42,l),
(470,0,l),
(728,0,l),
(728,42,l),
(650,56,l),
(407,758,l),
(325,758,l),
(71,56,l),
(1,42,l)
);
},
{
closed = 1;
nodes = (
(225,271,l),
(354,656,l),
(400,509,l),
(479,271,l)
);
}
);
width = 729;
},
{
anchors = (
{
name = bottom;
pos = (391,0);
},
{
name = ogonek;
pos = (703,10);
},
{
name = top;
pos = (391,758);
}
);
layerId = "B26750D4-52C5-4F85-819B-BFB2F142DAD5";
name = Bold;
shapes = (
{
closed = 1;
nodes = (
(2,0,l),
(276,0,l),
(276,68,l),
(203,91,l),
(225,164,l),
(489,164,l),
(510,89,l),
(445,67,l),
(445,0,l),
(779,0,l),
(779,67,l),
(705,87,l),
(471,758,l),
(308,758,l),
(67,88,l),
(2,68,l)
);
},
{
closed = 1;
nodes = (
(253,254,l),
(362,612,l),
(398,478,l),
(463,254,l)
);
}
);
width = 781;
}
);
unicode = 65;
},
{
color = 5;
glyphname = Aacute;
lastChange = "2025-01-09 17:04:09 +0000";
layers = (
{
layerId = "E777F328-EA17-4AE7-9EBA-8002E537BA4F";
name = Light;
shapes = (
{
ref = A;
},
{
pos = (107,0);
ref = acutecomb.case;
}
);
width = 729;
},
{
layerId = "39185045-6A8C-415A-8312-7B8F11386A4C";
name = Regular;
shapes = (
{
ref = A;
},
{
pos = (78,0);
ref = acutecomb.case;
}
);
width = 729;
},
{
background = {
shapes = (
{
closed = 1;
nodes = (
(365,778,l),
(369,777,o),
(376,778,o),
(387,779,cs),
(397,781,o),
(410,783,o),
(424,785,cs),
(453,791,o),
(488,798,o),
(521,808,cs),
(554,818,o),
(584,830,o),
(602,844,c),
(508,938,l),
(316,830,l)
);
}
);
};
layerId = "B26750D4-52C5-4F85-819B-BFB2F142DAD5";
name = Bold;
shapes = (
{
ref = A;
},
{
pos = (219,0);
ref = acutecomb.case;
}
);
width = 781;
}
);
unicode = 193;
},
{
color = 5;
glyphname = Abreve;
lastChange = "2025-01-09 17:04:09 +0000";
layers = (
{
background = {
shapes = (
{
closed = 1;
nodes = (
(228,790,l),
(364,887,l),
(497,790,l),
(531,809,l),
(400,938,l),
(329,938,l),
(197,808,l)
);
},
{
closed = 1;
nodes = (
(1,0,l),
(221,0,l),
(221,33,l),
(136,44,l),
(197,222,l),
(512,222,l),
(574,44,l),
(492,33,l),
(492,0,l),
(730,0,l),
(730,33,l),
(649,44,l),
(394,762,l),
(335,762,l),
(72,44,l),
(1,33,l)
);
},
{
closed = 1;
nodes = (
(212,267,l),
(356,680,l),
(392,566,l),
(497,267,l)
);
}
);
};
layerId = "E777F328-EA17-4AE7-9EBA-8002E537BA4F";
name = Light;
shapes = (
{
ref = A;
},
{
pos = (225,0);
ref = brevecomb.case;
}
);
width = 729;
},
{
background = {
shapes = (
{
closed = 1;
nodes = (
(234,789,l),
(366,871,l),
(495,789,l),
(537,813,l),
(412,938,l),
(319,938,l),
(196,812,l)
);
},
{
closed = 1;
nodes = (
(1,0,l),
(234,0,l),
(234,42,l),
(153,56,l),
(206,213,l),
(499,213,l),
(551,56,l),
(470,42,l),
(470,0,l),
(728,0,l),
(728,42,l),
(650,56,l),
(407,758,l),
(325,758,l),
(71,56,l),
(1,42,l)
);
},
{
closed = 1;
nodes = (
(225,271,l),
(354,656,l),
(400,509,l),
(479,271,l)
);
}
);
};
layerId = "39185045-6A8C-415A-8312-7B8F11386A4C";
name = Regular;
shapes = (
{
ref = A;
},
{
pos = (225,0);
ref = brevecomb.case;
}
);
width = 729;
},
{
background = {
shapes = (
{
closed = 1;
nodes = (
(200,815,l),
(334,938,l),
(448,938,l),
(580,815,l),
(525,780,l),
(392,843,l),
(254,780,l)
);
},
{
closed = 1;
nodes = (
(2,68,l),
(67,88,l),
(308,758,l),
(471,758,l),
(705,87,l),
(779,67,l),
(779,0,l),
(445,0,l),
(445,67,l),
(510,89,l),
(489,164,l),
(225,164,l),
(203,91,l),
(276,68,l),
(276,0,l),
(2,0,l)
);
},
{
closed = 1;
nodes = (
(463,254,l),
(398,478,l),
(362,612,l),
(253,254,l)
);
}
);
};
layerId = "B26750D4-52C5-4F85-819B-BFB2F142DAD5";
name = Bold;
shapes = (
{
ref = A;
},
{
pos = (213,0);
ref = brevecomb.case;
}
);
width = 781;
}
);
unicode = 258;
},
{
color = 5;
glyphname = Adieresis;
lastChange = "2025-01-09 17:04:09 +0000";
layers = (
{
layerId = "E777F328-EA17-4AE7-9EBA-8002E537BA4F";
name = Light;
shapes = (
{
ref = A;
},
{
pos = (122,0);
ref = dieresiscomb.case;
}
);
width = 729;
},
{
layerId = "39185045-6A8C-415A-8312-7B8F11386A4C";
name = Regular;
shapes = (
{
ref = A;
},
{
pos = (106,0);
ref = dieresiscomb.case;
}
);
width = 729;
},
{
background = {
shapes = (
{
closed = 1;
nodes = (
(495,791,o),
(473,796,o),
(457,808,cs),
(440,820,o),
(429,837,o),
(429,859,cs),
(429,882,o),
(442,901,o),
(461,916,cs),
(480,929,o),
(505,938,o),
(530,938,cs),
(562,938,o),
(584,930,o),
(598,918,cs),
(611,906,o),
(617,889,o),
(617,870,cs),
(617,845,o),
(605,826,o),
(587,812,cs),
(569,798,o),
(543,791,o),
(518,791,cs)
);
},
{
closed = 1;
nodes = (
(227,790,o),
(205,796,o),
(189,808,cs),
(173,819,o),
(164,836,o),
(164,857,cs),
(164,881,o),
(176,901,o),
(195,915,cs),
(214,929,o),
(238,938,o),
(264,938,cs),
(295,938,o),
(318,930,o),
(333,918,cs),
(347,906,o),
(354,889,o),
(354,869,cs),
(354,845,o),
(341,825,o),
(322,812,cs),
(303,798,o),
(277,790,o),
(250,790,cs)
);
}
);
};
layerId = "B26750D4-52C5-4F85-819B-BFB2F142DAD5";
name = Bold;
shapes = (
{
ref = A;
},
{
pos = (131,0);
ref = dieresiscomb.case;
}
);
width = 781;
}
);
unicode = 196;
},
{
color = 5;
glyphname = Agrave;
lastChange = "2025-01-09 17:04:09 +0000";
layers = (
{
layerId = "E777F328-EA17-4AE7-9EBA-8002E537BA4F";
name = Light;
shapes = (
{
ref = A;
},
{
pos = (145,0);
ref = gravecomb.case;
}
);
width = 729;
},
{
layerId = "39185045-6A8C-415A-8312-7B8F11386A4C";
name = Regular;
shapes = (
{
ref = A;
},
{
pos = (128,0);
ref = gravecomb.case;
}
);
width = 729;
},
{
background = {
shapes = (
{
closed = 1;
nodes = (
(278,938,l),
(460,830,l),
(411,778,l),
(408,777,o),
(401,778,o),
(391,779,cs),
(371,782,o),
(342,787,o),
(310,795,cs),
(278,802,o),
(246,813,o),
(219,825,cs),
(205,831,o),
(193,837,o),
(184,844,c)
);
}
);
};
layerId = "B26750D4-52C5-4F85-819B-BFB2F142DAD5";
name = Bold;
shapes = (
{
ref = A;
},
{
pos = (146,0);
ref = gravecomb.case;
}
);
width = 781;
}
);
unicode = 192;
},
{
color = 5;
glyphname = Amacron;
lastChange = "2025-01-09 17:04:09 +0000";
layers = (
{
background = {
shapes = (
{
closed = 1;
nodes = (
(335,762,l),
(72,44,l),
(1,33,l),
(1,0,l),
(221,0,l),
(221,33,l),
(136,44,l),
(197,222,l),
(512,222,l),
(574,44,l),
(492,33,l),
(492,0,l),
(730,0,l),
(730,33,l),
(649,44,l),
(394,762,l)
);
},
{
closed = 1;
nodes = (
(392,566,l),
(497,267,l),
(212,267,l),
(356,680,l)
);
},
{
closed = 1;
nodes = (
(229,926,o),
(199,903,o),
(199,872,cs),
(199,843,o),
(222,825,o),
(247,825,cs),
(276,825,o),
(304,847,o),
(304,880,cs),
(304,905,o),
(289,926,o),
(256,926,cs)
);
},
{
closed = 1;
nodes = (
(452,926,o),
(422,902,o),
(422,871,cs),
(422,842,o),
(445,825,o),
(470,825,cs),
(499,825,o),
(527,847,o),
(527,879,cs),
(527,905,o),
(513,926,o),
(479,926,cs)
);
}
);
};
layerId = "E777F328-EA17-4AE7-9EBA-8002E537BA4F";
name = Light;
shapes = (
{
ref = A;
},
{
pos = (140,212);
ref = macroncomb;
}
);
width = 729;
},
{
background = {
shapes = (
{
closed = 1;
nodes = (
(325,758,l),
(71,56,l),
(1,42,l),
(1,0,l),
(234,0,l),
(234,42,l),
(153,56,l),
(206,213,l),
(499,213,l),
(551,56,l),
(470,42,l),
(470,0,l),
(728,0,l),
(728,42,l),
(650,56,l),
(407,758,l)
);
},
{
closed = 1;
nodes = (
(400,509,l),
(479,271,l),
(225,271,l),
(354,656,l)
);
},
{
closed = 1;
nodes = (
(222,938,o),
(184,907,o),
(184,866,cs),
(184,829,o),
(213,806,o),
(245,806,cs),
(282,806,o),
(318,834,o),
(318,877,cs),
(318,910,o),
(299,938,o),
(256,938,cs)
);
},
{
closed = 1;
nodes = (
(449,938,o),
(411,907,o),
(411,866,cs),
(411,829,o),
(441,806,o),
(473,806,cs),
(509,806,o),
(546,834,o),
(546,877,cs),
(546,910,o),
(527,938,o),
(484,938,cs)
);
}
);
};
layerId = "39185045-6A8C-415A-8312-7B8F11386A4C";
name = Regular;
shapes = (
{
ref = A;
},
{
pos = (140,212);
ref = macroncomb;
}
);
width = 729;
},
{
background = {
shapes = (
{
closed = 1;
nodes = (
(276,0,l),
(276,68,l),
(203,91,l),
(225,164,l),
(489,164,l),
(510,89,l),
(445,67,l),
(445,0,l),
(779,0,l),
(779,67,l),
(705,87,l),
(471,758,l),
(308,758,l),
(67,88,l),
(2,68,l),
(2,0,l)
);
},
{
closed = 1;
nodes = (
(362,612,l),
(398,478,l),
(463,254,l),
(253,254,l)
);
},
{
closed = 1;
nodes = (
(302,790,o),
(354,821,o),
(354,869,cs),
(354,919,o),
(312,938,o),
(264,938,cs),
(215,938,o),
(164,905,o),
(164,857,cs),
(164,811,o),
(207,790,o),
(250,790,cs)
);
},
{
closed = 1;
nodes = (
(574,791,o),
(617,824,o),
(617,870,cs),
(617,918,o),
(581,938,o),
(530,938,cs),
(482,938,o),
(429,906,o),
(429,859,cs),
(429,816,o),
(470,791,o),
(518,791,cs)
);
}
);
};
layerId = "B26750D4-52C5-4F85-819B-BFB2F142DAD5";
name = Bold;
shapes = (
{
ref = A;
},
{
pos = (127,212);
ref = macroncomb;
}
);
width = 781;
}
);
unicode = 256;
},
{
glyphname = Aogonek;
lastChange = "2014-11-13 13:55:34 +0000";
layers = (
{
layerId = "E777F328-EA17-4AE7-9EBA-8002E537BA4F";
name = Light;
shapes = (
{
closed = 1;
nodes = (
(1,0,l),
(221,0,l),
(221,33,l),
(136,44,l),
(197,222,l),
(512,222,l),
(574,44,l),
(492,33,l),
(492,0,l),
(573,0,l),
(497,-30,o),
(420,-101,o),
(420,-165,cs),
(420,-212,o),
(452,-255,o),
(518,-257,cs),
(598,-260,o),
(646,-228,o),
(672,-208,c),
(663,-173,l),
(644,-185,o),
(599,-211,o),
(556,-209,cs),
(509,-207,o),
(486,-190,o),
(486,-145,cs),
(486,-85,o),
(589,-16,o),
(646,0,c),
(730,0,l),
(730,33,l),
(649,44,l),
(394,762,l),
(335,762,l),
(72,44,l),
(1,33,l)
);
},
{
closed = 1;
nodes = (
(212,267,l),
(356,680,l),
(392,566,l),
(497,267,l)
);
}
);
width = 729;
},
{
layerId = "39185045-6A8C-415A-8312-7B8F11386A4C";
name = Regular;
shapes = (
{
closed = 1;
nodes = (
(1,0,l),
(234,0,l),
(234,42,l),
(153,56,l),
(206,213,l),
(499,213,l),
(551,56,l),
(470,42,l),
(470,0,l),
(557,0,l),
(488,-33,o),
(413,-104,o),
(413,-165,cs),
(413,-208,o),
(438,-253,o),
(510,-257,cs),
(604,-262,o),
(653,-223,o),
(679,-203,c),
(668,-160,l),
(652,-168,o),
(604,-197,o),
(563,-195,cs),
(521,-192,o),
(500,-182,o),
(500,-137,cs),
(500,-93,o),
(579,-23,o),
(637,0,c),
(728,0,l),
(728,42,l),
(650,56,l),
(407,758,l),
(325,758,l),
(71,56,l),
(1,42,l)
);
},
{
closed = 1;
nodes = (
(225,271,l),
(354,656,l),
(400,509,l),
(479,271,l)
);
}
);
width = 729;
},
{
background = {
shapes = (
{
closed = 1;
nodes = (
(551,-251,o),
(623,-231,o),
(688,-185,c),
(670,-119,l),
(653,-125,o),
(633,-132,o),
(614,-138,cs),
(594,-143,o),
(573,-146,o),
(554,-146,cs),
(543,-146,o),
(532,-144,o),
(525,-137,cs),
(518,-130,o),
(515,-117,o),
(523,-95,cs),
(527,-83,o),
(544,-65,o),
(569,-47,cs),
(593,-30,o),
(626,-12,o),
(663,0,c),
(779,0,l),
(779,67,l),
(705,87,l),
(471,758,l),
(308,758,l),
(67,88,l),
(2,68,l),
(2,0,l),
(276,0,l),
(276,68,l),
(203,91,l),
(225,164,l),
(489,164,l),
(510,89,l),
(445,67,l),
(445,0,l),
(543,0,l),
(484,-21,o),
(438,-52,o),
(408,-84,cs),
(376,-116,o),
(360,-148,o),
(362,-171,cs),
(363,-190,o),
(371,-210,o),
(387,-225,cs),
(403,-240,o),
(428,-251,o),
(466,-251,cs)
);
},
{
closed = 1;
nodes = (
(362,612,l),
(398,478,l),
(463,254,l),
(253,254,l)
);
}
);
};
layerId = "B26750D4-52C5-4F85-819B-BFB2F142DAD5";
name = Bold;
shapes = (
{
closed = 1;
nodes = (
(2,0,l),
(276,0,l),
(276,68,l),
(203,91,l),
(225,164,l),
(489,164,l),
(510,89,l),
(445,67,l),
(445,0,l),
(543,0,l),
(462,-27,o),
(362,-104,o),
(362,-171,cs),
(362,-218,o),
(405,-251,o),
(466,-251,cs),
(551,-251,o),
(623,-231,o),
(688,-185,c),
(670,-119,l),
(628,-134,o),
(597,-146,o),
(554,-146,cs),
(532,-146,o),
(517,-138,o),
(517,-118,cs),
(517,-68,o),
(604,-20,o),
(663,0,c),
(779,0,l),
(779,67,l),
(705,87,l),
(471,758,l),
(308,758,l),
(67,88,l),
(2,68,l)
);
},
{
closed = 1;
nodes = (
(253,254,l),
(362,612,l),
(398,478,l),
(463,254,l)
);
}
);
width = 781;
}
);
unicode = 260;
},
{
color = 5;
glyphname = Aring;
lastChange = "2025-01-09 17:04:09 +0000";
layers = (
{
layerId = "E777F328-EA17-4AE7-9EBA-8002E537BA4F";
name = Light;
shapes = (
{
ref = A;
},
{
pos = (192,0);
ref = ringcomb.case;
}
);
width = 729;
},
{
layerId = "39185045-6A8C-415A-8312-7B8F11386A4C";
name = Regular;
shapes = (
{
ref = A;
},
{
pos = (192,0);
ref = ringcomb.case;
}
);
width = 729;
},
{
background = {
shapes = (
{
closed = 1;
nodes = (
(2,68,l),
(67,88,l),
(296,724,l),
(265,744,o),
(246,775,o),
(246,817,cs),
(246,855,o),
(261,886,o),
(287,906,cs),
(313,927,o),
(349,938,o),
(391,938,cs),
(432,938,o),
(469,926,o),
(495,905,cs),
(521,884,o),
(537,854,o),
(537,817,cs),
(537,774,o),
(515,742,o),
(483,722,c),
(705,87,l),
(779,67,l),
(779,0,l),
(445,0,l),
(445,67,l),
(510,89,l),
(489,164,l),
(225,164,l),
(203,91,l),
(276,68,l),
(276,0,l),
(2,0,l)
);
},
{
closed = 1;
nodes = (
(408,759,o),
(423,766,o),
(434,776,cs),
(445,786,o),
(452,800,o),
(452,817,cs),
(452,833,o),
(445,848,o),
(434,859,cs),
(423,870,o),
(408,876,o),
(391,876,cs),
(354,876,o),
(329,851,o),
(329,817,cs),
(329,784,o),
(354,759,o),
(391,759,cs)
);
},
{
closed = 1;
nodes = (
(463,254,l),
(398,478,l),
(362,612,l),
(253,254,l)
);
}
);
};
layerId = "B26750D4-52C5-4F85-819B-BFB2F142DAD5";
name = Bold;
shapes = (
{
ref = A;
},
{
pos = (218,0);
ref = ringcomb.case;
}
);
width = 781;
}
);
unicode = 197;
},
{
color = 4;
glyphname = AE;
lastChange = "2025-01-09 17:02:38 +0000";
layers = (
{
anchors = (
{
name = bottom;
pos = (474,0);
},
{
name = top;
pos = (474,758);
}
);
layerId = "E777F328-EA17-4AE7-9EBA-8002E537BA4F";
name = Light;
shapes = (
{
closed = 1;
nodes = (
(1,0,l),
(221,0,l),
(221,33,l),
(131,44,l),
(204,234,l),
(509,234,l),
(567,44,l),
(480,33,l),
(480,0,l),
(882,0,l),
(904,142,l),
(871,158,l),
(827,48,l),
(647,42,l),
(544,379,l),
(746,377,l),
(758,298,l),
(794,298,l),
(794,503,l),
(758,503,l),
(746,423,l),
(532,420,l),
(442,718,l),
(771,713,l),
(793,618,l),
(832,619,l),
(817,758,l),
(356,758,l),
(68,44,l),
(1,33,l)
);
},
{
closed = 1;
nodes = (
(220,278,l),
(376,686,l),
(395,600,l),
(495,278,l)
);
}
);
width = 947;
},
{
anchors = (
{
name = bottom;
pos = (474,0);
},
{
name = top;
pos = (474,758);
}
);
layerId = "39185045-6A8C-415A-8312-7B8F11386A4C";
name = Regular;
shapes = (
{
closed = 1;
nodes = (
(1,0,l),
(234,0,l),
(234,42,l),
(152,56,l),
(214,223,l),
(510,223,l),
(561,56,l),
(481,42,l),
(481,0,l),
(895,0,l),
(917,142,l),
(874,163,l),
(825,62,l),
(668,54,l),
(574,370,l),
(747,368,l),
(761,298,l),
(806,298,l),
(806,503,l),
(761,503,l),
(747,427,l),
(558,424,l),
(474,707,l),
(772,701,l),
(794,618,l),
(843,619,l),
(829,758,l),
(355,758,l),
(70,56,l),
(1,42,l)
);
},
{
closed = 1;
nodes = (
(236,280,l),
(383,672,l),
(400,579,l),
(492,280,l)
);
}
);
width = 947;
},
{
anchors = (
{
name = bottom;
pos = (473,0);
},
{
name = top;
pos = (473,758);
}
);
layerId = "B26750D4-52C5-4F85-819B-BFB2F142DAD5";
name = Bold;
shapes = (
{
closed = 1;
nodes = (
(2,0,l),
(271,0,l),
(271,69,l),
(185,89,l),
(213,164,l),
(512,164,l),
(535,88,l),
(458,68,l),
(458,0,l),
(916,0,l),
(941,162,l),
(856,179,l),
(802,87,l),
(720,73,l),
(634,351,l),
(728,344,l),
(747,273,l),
(825,273,l),
(825,515,l),
(748,515,l),
(729,442,l),
(606,439,l),
(533,675,l),
(743,664,l),
(774,591,l),
(869,591,l),
(851,758,l),
(332,758,l),
(62,85,l),
(2,69,l)
);
},
{
closed = 1;
nodes = (
(250,259,l),
(385,616,l),
(401,543,l),
(484,259,l)
);
}
);
width = 946;
}
);
unicode = 198;
},
{
color = 4;
glyphname = B;
lastChange = "2025-01-09 17:02:38 +0000";
layers = (
{
anchors = (
{
name = bottom;
pos = (347,0);
},
{
name = center;
pos = (173,190);
},
{
name = top;
pos = (347,758);
}
);
layerId = "E777F328-EA17-4AE7-9EBA-8002E537BA4F";
name = Light;
shapes = (
{
closed = 1;
nodes = (
(52,0,l),
(172,0,l),
(210,-1,o),
(276,-7,o),
(332,-7,cs),
(546,-7,o),
(647,89,o),
(647,224,cs),
(647,337,o),
(556,404,o),
(449,404,c),
(552,425,o),
(598,505,o),
(598,594,cs),
(598,699,o),
(515,765,o),
(360,765,cs),
(282,765,o),
(230,760,o),
(171,758,cs),
(54,758,l),
(54,721,l),
(139,714,l),
(139,45,l),
(52,33,l)
);
},
{
closed = 1;
nodes = (
(211,717,l),
(239,723,o),
(306,724,o),
(345,724,cs),
(444,724,o),
(529,684,o),
(529,581,cs),
(529,467,o),
(452,418,o),
(356,418,cs),
(324,418,o),
(246,416,o),
(210,421,c)
);
},
{
closed = 1;
nodes = (
(211,371,l),
(248,374,o),
(326,373,o),
(372,373,cs),
(488,373,o),
(572,331,o),
(572,209,cs),
(572,73,o),
(459,35,o),
(349,35,cs),
(308,35,o),
(234,42,o),
(211,50,c)
);
}
);
width = 693;
},
{
anchors = (
{
name = bottom;
pos = (347,0);
},
{
name = center;
pos = (173,190);
},
{
name = top;
pos = (347,758);
}
);
layerId = "39185045-6A8C-415A-8312-7B8F11386A4C";
name = Regular;
shapes = (
{
closed = 1;
nodes = (
(52,0,l),
(176,0,l),
(210,-2,o),
(275,-7,o),
(331,-7,cs),
(545,-7,o),
(647,91,o),
(647,223,cs),
(647,333,o),
(562,406,o),
(455,408,c),
(553,430,o),
(598,504,o),
(598,594,cs),
(598,699,o),
(514,764,o),
(357,765,cs),
(278,766,o),
(220,760,o),
(177,758,cs),
(54,758,l),
(54,710,l),
(134,702,l),
(134,56,l),
(52,42,l)
);
},
{
closed = 1;
nodes = (
(230,706,l),
(252,715,o),
(313,713,o),
(337,713,cs),
(435,713,o),
(508,667,o),
(508,576,cs),
(508,477,o),
(446,426,o),
(347,426,cs),
(314,426,o),
(262,423,o),
(229,429,c)
);
},
{
closed = 1;
nodes = (
(229,364,l),
(265,368,o),
(316,366,o),
(362,366,cs),
(484,366,o),
(546,317,o),
(546,204,cs),
(546,88,o),
(460,47,o),
(353,47,cs),
(312,47,o),
(247,55,o),
(229,66,c)
);
}
);
width = 693;
},
{
anchors = (
{
name = bottom;
pos = (356,0);
},
{
name = center;
pos = (178,190);
},
{
name = top;
pos = (356,758);
}
);
background = {
shapes = (
{
closed = 1;
nodes = (
(323,333,l),
(343,339,o),
(357,340,o),
(374,340,cs),
(460,340,o),
(505,305,o),
(505,222,cs),
(505,130,o),
(480,77,o),
(385,77,cs),
(364,77,o),
(342,77,o),
(322,81,c)
);
}
);
};
layerId = "B26750D4-52C5-4F85-819B-BFB2F142DAD5";
name = Bold;
shapes = (
{
closed = 1;
nodes = (
(39,0,l),
(149,0,ls),
(232,0,o),
(278,-5,o),
(342,-5,cs),
(550,-5,o),
(689,45,o),
(689,227,cs),
(689,322,o),
(610,409,o),
(509,409,c),
(588,430,o),
(637,495,o),
(637,584,cs),
(637,718,o),
(522,765,o),
(364,765,cs),
(324,765,o),
(241,758,o),
(193,758,c),
(41,758,l),
(41,678,l),
(115,667,l),
(115,89,l),
(39,68,l)
);
},
{
closed = 1;
nodes = (
(289,683,l),
(309,689,o),
(323,690,o),
(340,690,cs),
(426,690,o),
(471,655,o),
(471,572,cs),
(471,480,o),
(446,427,o),
(351,427,cs),
(330,427,o),
(308,427,o),
(288,431,c)
);
},
{
closed = 1;
nodes = (
(287,348,l),
(318,354,o),
(351,354,o),
(380,354,cs),
(451,354,o),
(507,301,o),
(507,219,cs),
(507,137,o),
(470,67,o),
(387,67,cs),
(342,67,o),
(303,72,o),
(287,80,c)
);
}
);
width = 711;
}
);
unicode = 66;
},
{
color = 4;
glyphname = C;
lastChange = "2025-01-09 17:02:38 +0000";
layers = (
{
anchors = (
{
name = bottom;
pos = (344,0);
},
{
name = top;
pos = (344,758);
}
);
layerId = "E777F328-EA17-4AE7-9EBA-8002E537BA4F";
name = Light;
shapes = (
{
closed = 1;
nodes = (
(227,765,o),
(42,605,o),
(42,357,cs),
(42,140,o),
(190,-14,o),
(392,-14,cs),
(531,-14,o),
(593,28,o),
(640,31,c),
(640,164,l),
(606,164,l),
(585,81,l),
(556,50,o),
(494,27,o),
(414,27,cs),
(221,25,o),
(117,189,o),
(117,380,cs),
(117,599,o),
(262,722,o),
(415,722,cs),
(483,722,o),
(533,709,o),
(574,684,c),
(592,596,l),
(632,596,l),
(639,730,l),
(596,740,o),
(530,765,o),
(436,765,cs)
);
}
);
width = 688;
},
{
anchors = (
{
name = bottom;
pos = (344,0);
},
{
name = top;
pos = (344,758);
}
);
layerId = "39185045-6A8C-415A-8312-7B8F11386A4C";
name = Regular;
shapes = (
{
closed = 1;
nodes = (
(227,765,o),
(42,605,o),
(42,354,cs),
(42,137,o),
(189,-14,o),
(391,-14,cs),
(530,-14,o),
(593,28,o),
(640,31,c),
(640,171,l),
(598,171,l),
(570,96,l),
(541,59,o),
(492,38,o),
(414,38,cs),
(235,38,o),
(142,199,o),
(142,384,cs),
(142,591,o),
(266,708,o),
(405,708,cs),
(473,708,o),
(512,698,o),
(554,670,c),
(580,589,l),
(631,589,l),
(639,730,l),
(597,740,o),
(529,765,o),
(436,765,cs)
);
}
);
width = 688;
},
{
anchors = (
{
name = bottom;
pos = (360,0);
},
{
name = top;
pos = (360,758);
}
);
background = {
shapes = (
{
closed = 1;
nodes = (
(512,765,o),
(553,759,o),
(587,753,cs),
(604,750,o),
(619,746,o),
(633,743,cs),
(646,739,o),
(659,736,o),
(670,734,c),
(660,544,l),
(558,544,l),
(522,644,l),
(516,654,o),
(507,661,o),
(491,667,cs),
(476,672,o),
(452,675,o),
(417,675,cs),
(362,675,o),
(315,650,o),
(281,603,cs),
(247,556,o),
(226,487,o),
(226,398,cs),
(226,342,o),
(234,287,o),
(250,238,cs),
(265,189,o),
(287,147,o),
(317,118,cs),
(347,88,o),
(384,70,o),
(428,70,cs),
(469,70,o),
(496,74,o),
(514,82,cs),
(532,89,o),
(541,99,o),
(545,109,cs),
(585,207,l),
(670,207,l),
(670,33,l),
(658,32,o),
(645,29,o),
(631,24,cs),
(603,15,o),
(564,3,o),
(511,-6,cs),
(484,-11,o),
(453,-14,o),
(416,-14,cs),
(291,-14,o),
(195,27,o),
(131,93,cs),
(66,160,o),
(33,251,o),
(33,354,cs),
(33,438,o),
(57,512,o),
(96,573,cs),
(135,633,o),
(190,682,o),
(253,715,cs),
(317,748,o),
(389,765,o),
(463,765,cs)
);
}
);
};
layerId = "B26750D4-52C5-4F85-819B-BFB2F142DAD5";
name = Bold;
shapes = (
{
closed = 1;
nodes = (
(221,765,o),
(33,587,o),
(33,354,cs),
(33,129,o),
(186,-14,o),
(416,-14,cs),
(549,-14,o),
(641,33,o),
(670,33,c),
(670,207,l),
(585,207,l),
(545,109,ls),
(531,76,o),
(478,70,o),
(428,70,cs),
(295,70,o),
(226,235,o),
(226,398,cs),
(226,549,o),
(291,675,o),
(417,675,cs),
(501,675,o),
(516,654,o),
(522,644,c),
(558,544,l),
(660,544,l),
(670,734,l),
(648,738,o),
(564,765,o),
(463,765,cs)
);
}
);
width = 720;
}
);
unicode = 67;
},
{
color = 5;
glyphname = Cacute;
lastChange = "2025-01-09 17:04:09 +0000";
layers = (
{
background = {
shapes = (
{
closed = 1;
nodes = (
(207,761,o),
(51,624,o),
(45,369,cs),
(42,142,o),
(176,-18,o),
(379,-14,cs),
(562,-10,o),
(711,132,o),
(716,386,cs),
(720,609,o),
(592,769,o),
(393,765,cs)
);
},
{
closed = 1;
nodes = (
(547,724,o),
(638,573,o),
(638,386,cs),
(638,165,o),
(536,27,o),
(386,27,cs),
(224,27,o),
(125,176,o),
(125,369,cs),
(125,595,o),
(234,724,o),
(385,724,cs)
);
},
{
closed = 1;
nodes = (
(365,806,l),
(386,785,l),
(445,809,o),
(516,848,o),
(562,884,c),
(510,938,l)
);
}
);
};
layerId = "E777F328-EA17-4AE7-9EBA-8002E537BA4F";
name = Light;
shapes = (
{
ref = C;
},
{
pos = (86,0);
ref = acutecomb.case;
}
);
width = 688;
},
{
background = {
shapes = (
{
closed = 1;
nodes = (
(204,760,o),
(49,616,o),
(44,367,cs),
(40,146,o),
(172,-18,o),
(378,-14,cs),
(564,-10,o),
(712,136,o),
(718,385,cs),
(722,606,o),
(596,771,o),
(393,765,cs)
);
},
{
closed = 1;
nodes = (
(533,713,o),
(612,554,o),
(612,384,cs),
(612,167,o),
(529,38,o),
(386,38,cs),
(236,38,o),
(149,198,o),
(149,368,cs),
(149,585,o),
(241,713,o),
(384,713,cs)
);
},
{
closed = 1;
nodes = (
(355,811,l),
(381,785,l),
(442,795,o),
(515,826,o),
(576,865,c),
(505,938,l)
);
}
);
};
layerId = "39185045-6A8C-415A-8312-7B8F11386A4C";
name = Regular;
shapes = (
{
ref = C;
},
{
pos = (57,0);
ref = acutecomb.case;
}
);
width = 688;
},
{
background = {
shapes = (
{
closed = 1;
nodes = (
(193,765,o),
(41,591,o),
(34,368,cs),
(30,147,o),
(174,-14,o),
(391,-14,cs),
(607,-14,o),
(746,157,o),
(750,386,cs),
(754,603,o),
(615,765,o),
(401,765,cs)
);
},
{
closed = 1;
nodes = (
(491,685,o),
(559,563,o),
(559,385,cs),
(559,200,o),
(536,64,o),
(397,64,cs),
(284,64,o),
(226,226,o),
(226,369,cs),
(226,545,o),
(255,685,o),
(396,685,cs)
);
},
{
closed = 1;
nodes = (
(325,830,l),
(374,778,l),
(438,782,o),
(567,810,o),
(611,844,c),
(517,938,l)
);
}
);
};
layerId = "B26750D4-52C5-4F85-819B-BFB2F142DAD5";
name = Bold;
shapes = (
{
ref = C;
},
{
pos = (188,0);
ref = acutecomb.case;
}
);
width = 720;
}
);
unicode = 262;
},
{
color = 5;
glyphname = Ccaron;
lastChange = "2025-01-09 17:04:09 +0000";
layers = (
{
background = {
shapes = (
{
closed = 1;
nodes = (
(207,619,o),
(51,482,o),
(45,227,cs),
(42,0,o),
(176,-160,o),
(379,-156,cs),
(562,-152,o),
(711,-10,o),
(716,244,cs),
(720,467,o),
(592,627,o),
(393,623,cs)
);
},
{
closed = 1;
nodes = (
(547,582,o),
(638,431,o),
(638,244,cs),
(638,23,o),
(536,-115,o),
(386,-115,cs),
(224,-115,o),
(125,34,o),
(125,227,cs),
(125,453,o),
(234,582,o),
(385,582,cs)
);
},
{
closed = 1;
nodes = (
(353,796,l),
(222,666,l),
(252,648,l),
(388,745,l),
(521,648,l),
(556,667,l),
(424,796,l)
);
}
);
};
layerId = "E777F328-EA17-4AE7-9EBA-8002E537BA4F";
name = Light;
shapes = (
{
ref = C;
},
{
pos = (111,0);
ref = caroncomb.case;
}
);
width = 688;
},
{
background = {
shapes = (
{
closed = 1;
nodes = (
(204,610,o),
(49,466,o),
(44,217,cs),
(40,-4,o),
(172,-168,o),
(378,-164,cs),
(564,-160,o),
(712,-14,o),
(718,235,cs),
(722,456,o),
(596,621,o),
(393,615,cs)
);
},
{
closed = 1;
nodes = (
(533,563,o),
(612,404,o),
(612,234,cs),
(612,17,o),
(529,-112,o),
(386,-112,cs),
(236,-112,o),
(149,48,o),
(149,218,cs),
(149,435,o),
(241,563,o),
(384,563,cs)
);
},
{
closed = 1;
nodes = (
(339,788,l),
(216,662,l),
(254,639,l),
(386,721,l),
(515,639,l),
(557,663,l),
(432,788,l)
);
}
);
};
layerId = "39185045-6A8C-415A-8312-7B8F11386A4C";
name = Regular;
shapes = (
{
ref = C;
},
{
pos = (83,0);
ref = caroncomb.case;
}
);
width = 688;
},
{
background = {
shapes = (
{
closed = 1;
nodes = (
(193,765,o),
(41,591,o),
(34,368,cs),
(30,147,o),
(174,-14,o),
(391,-14,cs),
(607,-14,o),
(746,157,o),
(750,386,cs),
(754,603,o),
(615,765,o),
(401,765,cs)
);
},
{
closed = 1;
nodes = (
(491,685,o),
(559,563,o),
(559,385,cs),
(559,200,o),
(536,64,o),
(397,64,cs),
(284,64,o),
(226,226,o),
(226,369,cs),
(226,545,o),
(255,685,o),
(396,685,cs)
);
},
{
closed = 1;
nodes = (
(343,780,l),
(209,657,l),
(263,622,l),
(401,685,l),
(534,622,l),
(588,657,l),
(457,780,l)
);
}
);
};
layerId = "B26750D4-52C5-4F85-819B-BFB2F142DAD5";
name = Bold;
shapes = (
{
ref = C;
},
{
pos = (101,0);
ref = caroncomb.case;
}
);
width = 720;
}
);
unicode = 268;
},
{
color = 5;
glyphname = Ccedilla;
lastChange = "2025-01-09 17:14:42 +0000";
layers = (
{
layerId = "E777F328-EA17-4AE7-9EBA-8002E537BA4F";
name = Light;
shapes = (
{
ref = C;
},
{
pos = (213,0);
ref = cedillacomb;
}
);
width = 688;
},
{
layerId = "39185045-6A8C-415A-8312-7B8F11386A4C";
name = Regular;
shapes = (
{
ref = C;
},
{
pos = (169,0);
ref = cedillacomb;
}
);
width = 688;
},
{
background = {
shapes = (
{
closed = 1;
nodes = (
(220,765,o),
(32,587,o),
(32,354,cs),
(32,129,o),
(185,-14,o),
(415,-14,cs),
(548,-14,o),
(640,33,o),
(669,33,c),
(669,207,l),
(584,207,l),
(544,109,ls),
(530,76,o),
(477,70,o),
(427,70,cs),
(294,70,o),
(225,235,o),
(225,398,cs),
(225,549,o),
(290,675,o),
(416,675,cs),
(500,675,o),
(515,654,o),
(521,644,c),
(557,544,l),
(659,544,l),
(669,734,l),
(647,738,o),
(563,765,o),
(462,765,cs)
);
},
{
closed = 1;
nodes = (
(386,5,l),
(374,-11,o),
(357,-98,o),
(357,-125,c),
(364,-125,o),
(375,-124,o),
(386,-124,cs),
(402,-124,o),
(416,-132,o),
(416,-151,cs),
(416,-168,o),
(403,-179,o),
(382,-179,cs),
(370,-179,o),
(328,-174,o),
(321,-172,c),
(321,-245,l),
(360,-253,o),
(391,-260,o),
(426,-260,cs),
(510,-260,o),
(577,-233,o),
(577,-158,cs),
(577,-109,o),
(534,-69,o),
(473,-64,c),
(471,-53,o),
(469,-13,o),
(472,5,c)
);
}
);
};
layerId = "B26750D4-52C5-4F85-819B-BFB2F142DAD5";
name = Bold;
shapes = (
{
ref = C;
},
{
pos = (202,0);
ref = cedillacomb;
}
);
width = 720;
}
);
unicode = 199;
},
{
color = 4;
glyphname = D;
lastChange = "2025-01-09 17:02:38 +0000";
layers = (
{
anchors = (
{
name = bottom;
pos = (389,0);
},
{
name = center;
pos = (195,379);
},
{
name = top;
pos = (389,758);
}
);
layerId = "E777F328-EA17-4AE7-9EBA-8002E537BA4F";
name = Light;
shapes = (
{
closed = 1;
nodes = (
(52,0,l),
(82,0,o),
(146,0,o),
(176,0,cs),
(229,0,o),
(291,-5,o),
(338,-5,cs),
(569,-9,o),
(732,144,o),
(732,399,cs),
(732,629,o),
(610,766,o),
(363,765,cs),
(302,765,o),
(251,758,o),
(175,758,cs),
(54,758,l),
(54,721,l),
(140,713,l),
(140,45,l),
(52,33,l)
);
},
{
closed = 1;
nodes = (
(212,713,l),
(244,718,o),
(288,721,o),
(341,722,cs),
(541,728,o),
(657,611,o),
(657,379,cs),
(657,144,o),
(514,40,o),
(348,37,cs),
(298,36,o),
(257,41,o),
(212,49,c)
);
}
);
width = 778;
},
{
anchors = (
{
name = bottom;
pos = (389,0);
},
{
name = center;
pos = (195,379);
},
{
name = top;
pos = (389,758);
}
);
layerId = "39185045-6A8C-415A-8312-7B8F11386A4C";
name = Regular;
shapes = (
{
closed = 1;
nodes = (
(52,0,l),
(96,0,o),
(139,0,o),
(184,0,cs),
(249,0,o),
(300,-3,o),
(348,-5,cs),
(565,-10,o),
(734,143,o),
(734,399,cs),
(734,626,o),
(618,767,o),
(366,765,cs),
(304,765,o),
(269,758,o),
(182,758,cs),
(54,758,l),
(54,710,l),
(134,702,l),
(134,56,l),
(52,42,l)
);
},
{
closed = 1;
nodes = (
(229,701,l),
(259,706,o),
(283,709,o),
(336,710,cs),
(519,716,o),
(634,604,o),
(634,375,cs),
(634,154,o),
(508,53,o),
(365,49,cs),
(314,48,o),
(271,53,o),
(229,64,c)
);
}
);
width = 778;
},
{
anchors = (
{
name = bottom;
pos = (395,0);
},
{
name = center;
pos = (197,379);
},
{
name = top;
pos = (395,758);
}
);
background = {
shapes = (
{
closed = 1;
nodes = (
(480,-5,o),
(579,33,o),
(648,103,cs),
(717,172,o),
(757,273,o),
(757,401,cs),
(757,508,o),
(729,599,o),
(668,664,cs),
(606,728,o),
(511,765,o),
(377,765,cs),
(346,765,o),
(313,764,o),
(284,762,cs),
(254,760,o),
(228,758,o),
(206,758,cs),
(46,758,l),
(46,678,l),
(115,668,l),
(115,88,l),
(44,68,l),
(44,0,l),
(72,0,o),
(99,0,o),
(126,0,cs),
(154,0,o),
(181,0,o),
(209,0,cs),
(228,0,o),
(254,0,o),
(282,-2,cs),
(310,-4,o),
(339,-5,o),
(364,-5,cs)
);
},
{
closed = 1;
nodes = (
(353,67,o),
(313,72,o),
(290,87,c),
(290,673,l),
(297,677,o),
(309,681,o),
(322,684,cs),
(336,686,o),
(352,687,o),
(366,687,cs),
(505,685,o),
(574,580,o),
(574,365,cs),
(574,282,o),
(557,211,o),
(526,160,cs),
(496,108,o),
(454,77,o),
(405,73,cs)
);
}
);
};
layerId = "B26750D4-52C5-4F85-819B-BFB2F142DAD5";
name = Bold;
shapes = (
{
closed = 1;
nodes = (
(44,0,l),
(69,0,o),
(181,0,o),
(209,0,cs),
(263,0,o),
(312,-5,o),
(364,-5,cs),
(603,-5,o),
(757,153,o),
(757,401,cs),
(757,639,o),
(624,765,o),
(377,765,cs),
(316,765,o),
(254,758,o),
(206,758,cs),
(46,758,l),
(46,678,l),
(115,668,l),
(115,88,l),
(44,68,l)
);
},
{
closed = 1;
nodes = (
(290,673,l),
(310,684,o),
(338,687,o),
(366,687,cs),
(505,687,o),
(574,580,o),
(574,365,cs),
(574,227,o),
(518,82,o),
(405,73,cs),
(353,67,o),
(313,72,o),
(290,87,c)
);
}
);
width = 789;
}
);
unicode = 68;
},
{
glyphname = Eth;
lastChange = "2014-11-13 16:39:18 +0000";
layers = (
{
layerId = "E777F328-EA17-4AE7-9EBA-8002E537BA4F";
name = Light;
shapes = (
{
closed = 1;
nodes = (
(52,0,l),
(82,0,o),
(146,0,o),
(176,0,cs),
(229,0,o),
(291,-5,o),
(338,-5,cs),
(569,-9,o),
(732,144,o),
(732,399,cs),
(732,629,o),
(610,766,o),
(363,765,cs),
(302,765,o),
(251,758,o),
(175,758,cs),
(54,758,l),
(54,721,l),
(140,713,l),
(140,425,l),
(47,425,l),
(47,371,l),
(140,371,l),
(140,45,l),
(52,33,l)
);
},
{
closed = 1;
nodes = (
(212,371,l),
(345,371,l),
(345,425,l),
(212,425,l),
(212,713,l),
(244,718,o),
(288,721,o),
(341,722,cs),
(541,728,o),
(657,611,o),
(657,379,cs),
(657,144,o),
(514,40,o),
(348,37,cs),
(298,36,o),
(257,41,o),
(212,49,c)
);
}
);
width = 778;
},
{
layerId = "39185045-6A8C-415A-8312-7B8F11386A4C";
name = Regular;
shapes = (
{
closed = 1;
nodes = (
(52,0,l),
(96,0,o),
(139,0,o),
(184,0,cs),
(249,0,o),
(300,-3,o),
(348,-5,cs),
(565,-10,o),
(734,143,o),
(734,399,cs),
(734,626,o),
(618,767,o),
(366,765,cs),
(304,765,o),
(269,758,o),
(182,758,cs),
(54,758,l),
(54,710,l),
(134,702,l),
(134,425,l),
(48,425,l),
(48,354,l),
(134,354,l),
(134,56,l),
(52,42,l)
);
},
{
closed = 1;
nodes = (
(229,354,l),
(355,354,l),
(355,425,l),
(229,425,l),
(229,701,l),
(259,706,o),
(283,709,o),
(336,710,cs),
(519,716,o),
(634,604,o),
(634,375,cs),
(634,154,o),
(508,53,o),
(365,49,cs),
(314,48,o),
(271,53,o),
(229,64,c)
);
}
);
width = 778;
},
{
background = {
shapes = (
{
closed = 1;
nodes = (
(44,0,l),
(69,0,o),
(181,0,o),
(209,0,cs),
(263,0,o),
(312,-5,o),
(364,-5,cs),
(603,-5,o),
(757,153,o),
(757,401,cs),
(757,639,o),
(624,765,o),
(377,765,cs),
(316,765,o),
(254,758,o),
(206,758,cs),
(46,758,l),
(46,678,l),
(115,668,l),
(115,88,l),
(44,68,l)
);
},
{
closed = 1;
nodes = (
(290,673,l),
(310,684,o),
(338,687,o),
(366,687,cs),
(505,687,o),
(574,580,o),
(574,365,cs),
(574,227,o),
(518,82,o),
(405,73,cs),
(353,67,o),
(313,72,o),
(290,87,c)
);
}
);
};
layerId = "B26750D4-52C5-4F85-819B-BFB2F142DAD5";
name = Bold;
shapes = (
{
closed = 1;
nodes = (
(44,0,l),
(69,0,o),
(181,0,o),
(209,0,cs),
(263,0,o),
(312,-5,o),
(364,-5,cs),
(603,-5,o),
(757,153,o),
(757,401,cs),
(757,639,o),
(624,765,o),
(377,765,cs),
(316,765,o),
(254,758,o),
(206,758,cs),
(46,758,l),
(46,678,l),
(115,668,l),
(115,445,l),
(24,445,l),
(24,344,l),
(115,344,l),
(115,88,l),
(44,68,l)
);
},
{
closed = 1;
nodes = (
(290,344,l),
(423,344,l),
(423,445,l),
(290,445,l),
(290,673,l),
(310,684,o),
(340,687,o),
(366,687,cs),
(505,685,o),
(574,580,o),
(574,365,cs),
(574,227,o),
(518,82,o),
(405,73,cs),
(353,67,o),
(313,72,o),
(290,87,c)
);
}
);
width = 787;
}
);
unicode = 208;
},
{
color = 4;
glyphname = E;
lastChange = "2025-01-09 17:02:38 +0000";
layers = (
{
anchors = (
{
name = bottom;
pos = (322,0);
},
{
name = ogonek;
pos = (580,10);
},
{
name = top;
pos = (322,758);
},
{
name = topleft;
pos = (20,758);
}
);
layerId = "E777F328-EA17-4AE7-9EBA-8002E537BA4F";
name = Light;
shapes = (
{
closed = 1;
nodes = (
(50,0,l),
(589,0,l),
(611,154,l),
(575,163,l),
(531,49,l),
(209,41,l),
(209,382,l),
(409,379,l),
(421,297,l),
(460,297,l),
(460,504,l),
(421,504,l),
(409,426,l),
(209,422,l),
(209,719,l),
(508,713,l),
(531,619,l),
(572,619,l),
(558,758,l),
(52,758,l),
(52,721,l),
(138,713,l),
(138,44,l),
(50,33,l)
);
}
);
width = 644;
},
{
anchors = (
{
name = bottom;
pos = (322,0);
},
{
name = ogonek;
pos = (580,10);
},
{
name = top;
pos = (322,758);
},
{
name = topleft;
pos = (20,758);
}
);
layerId = "39185045-6A8C-415A-8312-7B8F11386A4C";
name = Regular;
shapes = (
{
closed = 1;
nodes = (
(50,0,l),
(591,0,l),
(613,151,l),
(566,163,l),
(517,62,l),
(227,53,l),
(227,370,l),
(409,367,l),
(423,292,l),
(473,292,l),
(473,502,l),
(423,502,l),
(409,426,l),
(227,422,l),
(227,707,l),
(497,701,l),
(519,619,l),
(573,619,l),
(559,758,l),
(52,758,l),
(52,710,l),
(132,702,l),
(132,56,l),
(50,42,l)
);
}
);
width = 644;
},
{
anchors = (
{
name = bottom;
pos = (348,0);
},
{
name = ogonek;
pos = (626,10);
},
{
name = top;
pos = (348,758);
},
{
name = topleft;
pos = (20,758);
}
);
layerId = "B26750D4-52C5-4F85-819B-BFB2F142DAD5";
name = Bold;
shapes = (
{
closed = 1;
nodes = (
(49,0,l),
(646,0,l),
(672,170,l),
(571,188,l),
(509,92,l),
(294,78,l),
(294,346,l),
(419,343,l),
(446,266,l),
(534,266,l),
(534,504,l),
(446,504,l),
(419,431,l),
(294,426,l),
(294,680,l),
(475,669,l),
(521,591,l),
(621,591,l),
(606,758,l),
(52,758,l),
(52,678,l),
(121,667,l),
(121,87,l),
(49,68,l)
);
}
);
width = 696;
}
);
unicode = 69;
},
{
color = 5;
glyphname = Edotaccent;
lastChange = "2025-01-09 17:04:09 +0000";
layers = (
{
background = {
shapes = (
{
closed = 1;
nodes = (
(52,758,l),
(52,721,l),
(138,713,l),
(138,44,l),
(50,33,l),
(50,0,l),
(589,0,l),
(611,154,l),
(575,163,l),
(531,49,l),
(209,41,l),
(209,382,l),
(409,379,l),
(421,297,l),
(460,297,l),
(460,504,l),
(421,504,l),
(409,426,l),
(209,422,l),
(209,719,l),
(508,713,l),
(531,619,l),
(572,619,l),
(558,758,l)
);
},
{
closed = 1;
nodes = (
(216,926,o),
(187,903,o),
(187,872,cs),
(187,843,o),
(210,825,o),
(235,825,cs),
(264,825,o),
(292,847,o),
(292,880,cs),
(292,905,o),
(277,926,o),
(244,926,cs)
);
},
{
closed = 1;
nodes = (
(439,926,o),
(410,902,o),
(410,871,cs),
(410,842,o),
(433,825,o),
(458,825,cs),
(487,825,o),
(516,847,o),
(516,879,cs),
(516,905,o),
(500,926,o),
(467,926,cs)
);
}
);
};
layerId = "E777F328-EA17-4AE7-9EBA-8002E537BA4F";
name = Light;
shapes = (
{
ref = E;
},
{
pos = (195,0);
ref = dotaccentcomb.case;
}
);
width = 644;
},
{
background = {
shapes = (
{
closed = 1;
nodes = (
(52,758,l),
(52,710,l),
(132,702,l),
(132,56,l),
(50,42,l),
(50,0,l),
(591,0,l),
(613,151,l),
(566,163,l),
(517,62,l),
(227,53,l),
(227,370,l),
(409,367,l),
(423,292,l),
(473,292,l),
(473,502,l),
(423,502,l),
(409,426,l),
(227,422,l),
(227,707,l),
(497,701,l),
(519,619,l),
(573,619,l),
(559,758,l)
);
},
{
closed = 1;
nodes = (
(211,938,o),
(173,907,o),
(173,866,cs),
(173,829,o),
(203,806,o),
(234,806,cs),
(271,806,o),
(308,834,o),
(308,877,cs),
(308,910,o),
(289,938,o),
(246,938,cs)
);
},
{
closed = 1;
nodes = (
(438,938,o),
(400,907,o),
(400,866,cs),
(400,829,o),
(430,806,o),
(462,806,cs),
(499,806,o),
(535,834,o),
(535,877,cs),
(535,910,o),
(516,938,o),
(473,938,cs)
);
}
);
};
layerId = "39185045-6A8C-415A-8312-7B8F11386A4C";
name = Regular;
shapes = (
{
ref = E;
},
{
pos = (180,0);
ref = dotaccentcomb.case;
}
);
width = 644;
},
{
background = {
shapes = (
{
closed = 1;
nodes = (
(52,758,l),
(52,678,l),
(121,667,l),
(121,87,l),
(49,68,l),
(49,0,l),
(646,0,l),
(672,170,l),
(571,188,l),
(509,92,l),
(294,78,l),
(294,346,l),
(419,343,l),
(446,266,l),
(534,266,l),
(534,504,l),
(446,504,l),
(419,431,l),
(294,426,l),
(294,680,l),
(475,669,l),
(521,591,l),
(621,591,l),
(606,758,l)
);
},
{
closed = 1;
nodes = (
(187,938,o),
(136,905,o),
(136,857,cs),
(136,811,o),
(179,790,o),
(222,790,cs),
(274,790,o),
(326,821,o),
(326,869,cs),
(326,919,o),
(284,938,o),
(236,938,cs)
);
},
{
closed = 1;
nodes = (
(454,938,o),
(401,906,o),
(401,859,cs),
(401,816,o),
(442,791,o),
(490,791,cs),
(546,791,o),
(589,824,o),
(589,870,cs),
(589,918,o),
(553,938,o),
(502,938,cs)
);
}
);
};
layerId = "B26750D4-52C5-4F85-819B-BFB2F142DAD5";
name = Bold;
shapes = (
{
ref = E;
},
{
pos = (179,0);
ref = dotaccentcomb.case;
}
);
width = 696;
}
);
unicode = 278;
},
{
color = 5;
glyphname = Emacron;
lastChange = "2025-01-09 17:04:09 +0000";
layers = (
{
background = {
shapes = (
{
closed = 1;
nodes = (
(52,758,l),
(52,721,l),
(138,713,l),
(138,44,l),
(50,33,l),
(50,0,l),
(589,0,l),
(611,154,l),
(575,163,l),
(531,49,l),
(209,41,l),
(209,382,l),
(409,379,l),
(421,297,l),
(460,297,l),
(460,504,l),
(421,504,l),
(409,426,l),
(209,422,l),
(209,719,l),
(508,713,l),
(531,619,l),
(572,619,l),
(558,758,l)
);
},
{
closed = 1;
nodes = (
(216,926,o),
(187,903,o),
(187,872,cs),
(187,843,o),
(210,825,o),
(235,825,cs),
(264,825,o),
(292,847,o),
(292,880,cs),
(292,905,o),
(277,926,o),
(244,926,cs)
);
},
{
closed = 1;
nodes = (
(439,926,o),
(410,902,o),
(410,871,cs),
(410,842,o),
(433,825,o),
(458,825,cs),
(487,825,o),
(516,847,o),
(516,879,cs),
(516,905,o),
(500,926,o),
(467,926,cs)
);
}
);
};
layerId = "E777F328-EA17-4AE7-9EBA-8002E537BA4F";
name = Light;
shapes = (
{
ref = E;
},
{
pos = (97,212);
ref = macroncomb;
}
);
width = 644;
},
{
background = {
shapes = (
{
closed = 1;
nodes = (
(52,758,l),
(52,710,l),
(132,702,l),
(132,56,l),
(50,42,l),
(50,0,l),
(591,0,l),
(613,151,l),
(566,163,l),
(517,62,l),
(227,53,l),
(227,370,l),
(409,367,l),
(423,292,l),
(473,292,l),
(473,502,l),
(423,502,l),
(409,426,l),
(227,422,l),
(227,707,l),
(497,701,l),
(519,619,l),
(573,619,l),
(559,758,l)
);
},
{
closed = 1;
nodes = (
(211,938,o),
(173,907,o),
(173,866,cs),
(173,829,o),
(203,806,o),
(234,806,cs),
(271,806,o),
(308,834,o),
(308,877,cs),
(308,910,o),
(289,938,o),
(246,938,cs)
);
},
{
closed = 1;
nodes = (
(438,938,o),
(400,907,o),
(400,866,cs),
(400,829,o),
(430,806,o),
(462,806,cs),
(499,806,o),
(535,834,o),
(535,877,cs),
(535,910,o),
(516,938,o),
(473,938,cs)
);
}
);
};
layerId = "39185045-6A8C-415A-8312-7B8F11386A4C";
name = Regular;
shapes = (
{
ref = E;
},
{
pos = (97,212);
ref = macroncomb;
}
);
width = 644;
},
{
background = {
shapes = (
{
closed = 1;
nodes = (
(52,758,l),
(52,678,l),
(121,667,l),
(121,87,l),
(49,68,l),
(49,0,l),
(646,0,l),
(672,170,l),
(571,188,l),
(509,92,l),
(294,78,l),
(294,346,l),
(419,343,l),
(446,266,l),
(534,266,l),
(534,504,l),
(446,504,l),
(419,431,l),
(294,426,l),
(294,680,l),
(475,669,l),
(521,591,l),
(621,591,l),
(606,758,l)
);
},
{
closed = 1;
nodes = (
(187,938,o),
(136,905,o),
(136,857,cs),
(136,811,o),
(179,790,o),
(222,790,cs),
(274,790,o),
(326,821,o),
(326,869,cs),
(326,919,o),
(284,938,o),
(236,938,cs)
);
},
{
closed = 1;
nodes = (
(454,938,o),
(401,906,o),
(401,859,cs),
(401,816,o),
(442,791,o),
(490,791,cs),
(546,791,o),
(589,824,o),
(589,870,cs),
(589,918,o),
(553,938,o),
(502,938,cs)
);
}
);
};
layerId = "B26750D4-52C5-4F85-819B-BFB2F142DAD5";
name = Bold;
shapes = (
{
ref = E;
},
{
pos = (84,212);
ref = macroncomb;
}
);
width = 696;
}
);
unicode = 274;
},
{
glyphname = Eogonek;
lastChange = "2014-11-13 17:00:40 +0000";
layers = (
{
layerId = "E777F328-EA17-4AE7-9EBA-8002E537BA4F";
name = Light;
shapes = (
{
closed = 1;
nodes = (
(50,0,l),
(516,0,l),
(440,-30,o),
(363,-101,o),
(363,-165,cs),
(363,-212,o),
(395,-255,o),
(461,-257,cs),
(542,-260,o),
(589,-228,o),
(615,-208,c),
(606,-173,l),
(586,-185,o),
(542,-211,o),
(500,-209,cs),
(453,-207,o),
(429,-190,o),
(429,-145,cs),
(429,-86,o),
(532,-17,o),
(588,0,c),
(589,0,l),
(611,154,l),
(575,163,l),
(531,49,l),
(209,41,l),
(209,382,l),
(409,379,l),
(421,297,l),
(460,297,l),
(460,504,l),
(421,504,l),
(409,426,l),
(209,422,l),
(209,719,l),
(508,713,l),
(531,619,l),
(572,619,l),
(558,758,l),
(52,758,l),
(52,721,l),
(138,713,l),
(138,44,l),
(50,33,l)
);
}
);
width = 644;
},
{
layerId = "39185045-6A8C-415A-8312-7B8F11386A4C";
name = Regular;
shapes = (
{
closed = 1;
nodes = (
(50,0,l),
(511,0,l),
(442,-33,o),
(368,-104,o),
(368,-165,cs),
(368,-208,o),
(393,-253,o),
(464,-257,cs),
(558,-262,o),
(607,-223,o),
(633,-203,c),
(623,-160,l),
(607,-168,o),
(558,-197,o),
(517,-195,cs),
(476,-192,o),
(455,-182,o),
(455,-137,cs),
(455,-94,o),
(532,-24,o),
(590,0,c),
(591,0,l),
(613,151,l),
(566,163,l),
(517,62,l),
(227,53,l),
(227,370,l),
(409,367,l),
(423,292,l),
(473,292,l),
(473,502,l),
(423,502,l),
(409,426,l),
(227,422,l),
(227,707,l),
(497,701,l),
(519,619,l),
(573,619,l),
(559,758,l),
(52,758,l),
(52,710,l),
(132,702,l),
(132,56,l),
(50,42,l)
);
}
);
width = 644;
},
{
background = {
shapes = (
{
closed = 1;
nodes = (
(49,68,l),
(121,87,l),
(121,667,l),
(52,678,l),
(52,758,l),
(606,758,l),
(621,591,l),
(521,591,l),
(475,669,l),
(294,680,l),
(294,426,l),
(419,431,l),
(446,504,l),
(534,504,l),
(534,266,l),
(446,266,l),
(419,343,l),
(294,346,l),
(294,78,l),
(509,92,l),
(571,188,l),
(672,170,l),
(646,0,l),
(626,0,l),
(590,-12,o),
(557,-30,o),
(533,-47,cs),
(508,-65,o),
(491,-83,o),
(487,-95,cs),
(479,-117,o),
(482,-130,o),
(489,-137,cs),
(496,-144,o),
(507,-146,o),
(518,-146,cs),
(537,-146,o),
(558,-143,o),
(578,-138,cs),
(597,-132,o),
(617,-125,o),
(634,-119,c),
(651,-185,l),
(587,-231,o),
(515,-251,o),
(430,-251,cs),
(392,-251,o),
(367,-240,o),
(351,-225,cs),
(334,-210,o),
(327,-190,o),
(326,-171,cs),
(324,-148,o),
(340,-116,o),
(372,-84,cs),
(402,-52,o),
(448,-21,o),
(507,0,c),
(49,0,l)
);
}
);
};
layerId = "B26750D4-52C5-4F85-819B-BFB2F142DAD5";
name = Bold;
shapes = (
{
closed = 1;
nodes = (
(49,0,l),
(507,0,l),
(427,-28,o),
(326,-103,o),
(326,-167,cs),
(326,-219,o),
(368,-251,o),
(430,-251,cs),
(515,-251,o),
(587,-231,o),
(651,-185,c),
(634,-119,l),
(592,-134,o),
(561,-146,o),
(518,-146,cs),
(497,-146,o),
(482,-138,o),
(482,-118,cs),
(482,-69,o),
(561,-22,o),
(626,0,c),
(646,0,l),
(672,170,l),
(571,188,l),
(509,92,l),
(294,78,l),
(294,346,l),
(419,343,l),
(446,266,l),
(534,266,l),
(534,504,l),
(446,504,l),
(419,431,l),
(294,426,l),
(294,680,l),
(475,669,l),
(521,591,l),
(621,591,l),
(606,758,l),
(52,758,l),
(52,678,l),
(121,667,l),
(121,87,l),
(49,68,l)
);
}
);
width = 696;
}
);
unicode = 280;
},
{
color = 4;
glyphname = F;
lastChange = "2025-01-09 17:02:38 +0000";
layers = (
{
anchors = (
{
name = bottom;
pos = (302,0);
},
{
name = top;
pos = (302,758);
}
);
layerId = "E777F328-EA17-4AE7-9EBA-8002E537BA4F";
name = Light;
shapes = (
{
closed = 1;
nodes = (
(51,0,l),
(367,0,l),
(367,36,l),
(216,44,l),
(216,367,l),
(442,363,l),
(454,282,l),
(496,282,l),
(496,487,l),
(458,487,l),
(442,411,l),
(216,407,l),
(216,717,l),
(525,711,l),
(548,618,l),
(586,619,l),
(575,758,l),
(58,758,l),
(58,721,l),
(144,713,l),
(144,45,l),
(51,33,l)
);
}
);
width = 604;
},
{
anchors = (
{
name = bottom;
pos = (302,0);
},
{
name = top;
pos = (302,758);
}
);
layerId = "39185045-6A8C-415A-8312-7B8F11386A4C";
name = Regular;
shapes = (
{
closed = 1;
nodes = (
(51,0,l),
(370,0,l),
(370,46,l),
(229,56,l),
(229,361,l),
(444,357,l),
(457,284,l),
(511,284,l),
(511,489,l),
(463,489,l),
(444,418,l),
(229,414,l),
(229,705,l),
(516,698,l),
(539,618,l),
(587,619,l),
(578,758,l),
(54,758,l),
(54,710,l),
(134,702,l),
(134,56,l),
(51,42,l)
);
}
);
width = 604;
},
{
anchors = (
{
name = bottom;
pos = (323,0);
},
{
name = top;
pos = (323,758);
}
);
layerId = "B26750D4-52C5-4F85-819B-BFB2F142DAD5";
name = Bold;
shapes = (
{
closed = 1;
nodes = (
(42,0,l),
(445,0,l),
(445,78,l),
(289,91,l),
(289,331,l),
(431,329,l),
(453,249,l),
(534,249,l),
(534,498,l),
(461,498,l),
(429,423,l),
(288,417,l),
(288,673,l),
(493,662,l),
(528,587,l),
(614,588,l),
(599,758,l),
(39,758,l),
(39,678,l),
(115,668,l),
(115,84,l),
(42,68,l)
);
}
);
width = 646;
}
);
unicode = 70;
},
{
color = 4;
glyphname = G;
lastChange = "2025-01-09 17:02:38 +0000";
layers = (
{
anchors = (
{
name = bottom;
pos = (375,0);
},
{
name = top;
pos = (375,758);
}
);
layerId = "E777F328-EA17-4AE7-9EBA-8002E537BA4F";
name = Light;
shapes = (
{
closed = 1;
nodes = (
(221,765,o),
(42,606,o),
(42,357,cs),
(42,143,o),
(180,-14,o),
(382,-14,cs),
(500,-14,o),
(611,33,o),
(654,37,c),
(654,301,l),
(721,309,l),
(721,346,l),
(447,346,l),
(447,309,l),
(582,302,l),
(582,75,l),
(544,42,o),
(464,27,o),
(401,27,cs),
(204,27,o),
(117,202,o),
(117,379,cs),
(117,597,o),
(260,720,o),
(412,722,cs),
(504,723,o),
(567,701,o),
(586,685,c),
(606,599,l),
(646,599,l),
(653,732,l),
(615,740,o),
(552,765,o),
(434,765,cs)
);
}
);
width = 750;
},
{
anchors = (
{
name = bottom;
pos = (375,0);
},
{
name = top;
pos = (375,758);
}
);
layerId = "39185045-6A8C-415A-8312-7B8F11386A4C";
name = Regular;
shapes = (
{
closed = 1;
nodes = (
(221,765,o),
(42,605,o),
(42,354,cs),
(42,142,o),
(180,-14,o),
(381,-14,cs),
(500,-14,o),
(618,37,o),
(661,40,c),
(661,289,l),
(721,298,l),
(721,346,l),
(447,346,l),
(447,298,l),
(565,290,l),
(565,89,l),
(527,47,o),
(460,38,o),
(404,38,cs),
(226,38,o),
(142,207,o),
(142,384,cs),
(142,587,o),
(264,706,o),
(403,708,cs),
(507,710,o),
(563,687,o),
(573,674,c),
(598,592,l),
(650,592,l),
(658,734,l),
(624,742,o),
(556,765,o),
(434,765,cs)
);
}
);
width = 750;
},
{
anchors = (
{
name = bottom;
pos = (387,0);
},
{
name = top;
pos = (387,758);
}
);
layerId = "B26750D4-52C5-4F85-819B-BFB2F142DAD5";
name = Bold;
shapes = (
{
closed = 1;
nodes = (
(195,765,o),
(32,612,o),
(32,365,cs),
(32,149,o),
(170,-14,o),
(381,-14,cs),
(490,-14,o),
(618,38,o),
(691,26,c),
(691,253,l),
(737,265,l),
(737,346,l),
(435,346,l),
(435,265,l),
(538,251,l),
(538,126,l),
(533,90,o),
(465,64,o),
(412,64,cs),
(268,64,o),
(220,232,o),
(220,404,cs),
(220,552,o),
(286,688,o),
(426,688,cs),
(495,688,o),
(532,669,o),
(541,659,c),
(586,571,l),
(674,571,l),
(685,738,l),
(629,755,o),
(513,765,o),
(436,765,cs)
);
}
);
width = 774;
}
);
unicode = 71;
},
{
color = 4;
glyphname = H;
lastChange = "2025-01-09 17:02:38 +0000";
layers = (
{
anchors = (
{
name = bottom;
pos = (417,0);
},
{
name = center;
pos = (417,569);
},
{
name = top;
pos = (417,758);
},
{
name = topleft;
pos = (20,758);
}
);
layerId = "E777F328-EA17-4AE7-9EBA-8002E537BA4F";
name = Light;
shapes = (
{
closed = 1;
nodes = (
(52,0,l),
(291,0,l),
(291,33,l),
(208,44,l),
(208,343,l),
(617,343,l),
(617,44,l),
(534,33,l),
(534,0,l),
(774,0,l),
(774,33,l),
(689,45,l),
(689,714,l),
(766,721,l),
(766,758,l),
(537,758,l),
(537,721,l),
(617,714,l),
(617,388,l),
(208,388,l),
(208,714,l),
(287,721,l),
(287,758,l),
(55,758,l),
(55,721,l),
(136,714,l),
(136,45,l),
(52,33,l)
);
}
);
width = 833;
},
{
anchors = (
{
name = bottom;
pos = (417,0);
},
{
name = center;
pos = (417,569);
},
{
name = top;
pos = (417,758);
},
{
name = topleft;
pos = (20,758);
}
);
layerId = "39185045-6A8C-415A-8312-7B8F11386A4C";
name = Regular;
shapes = (
{
closed = 1;
nodes = (
(52,0,l),
(313,0,l),
(313,42,l),
(229,56,l),
(229,340,l),
(604,340,l),
(604,56,l),
(520,42,l),
(520,0,l),
(783,0,l),
(783,42,l),
(699,56,l),
(699,702,l),
(777,710,l),
(777,758,l),
(523,758,l),
(523,710,l),
(604,702,l),
(604,397,l),
(229,397,l),
(229,702,l),
(309,710,l),
(309,758,l),
(54,758,l),
(54,710,l),
(134,702,l),
(134,56,l),
(52,42,l)
);
}
);
width = 833;
},
{
anchors = (
{
name = bottom;
pos = (435,0);
},
{
name = center;
pos = (435,569);
},
{
name = top;
pos = (435,758);
},
{
name = topleft;
pos = (20,758);
}
);
layerId = "B26750D4-52C5-4F85-819B-BFB2F142DAD5";
name = Bold;
shapes = (
{
closed = 1;
nodes = (
(32,0,l),
(379,0,l),
(379,68,l),
(290,89,l),
(290,337,l),
(580,337,l),
(580,88,l),
(491,67,l),
(491,0,l),
(845,0,l),
(845,67,l),
(754,88,l),
(754,668,l),
(840,678,l),
(840,758,l),
(498,758,l),
(498,678,l),
(580,669,l),
(580,431,l),
(290,431,l),
(290,667,l),
(374,678,l),
(374,758,l),
(29,758,l),
(29,678,l),
(115,667,l),
(115,89,l),
(32,68,l)
);
}
);
width = 869;
}
);
unicode = 72;
},
{
color = 9;
glyphname = Hbar;
lastChange = "2025-01-09 17:06:49 +0000";
layers = (
{
layerId = "E777F328-EA17-4AE7-9EBA-8002E537BA4F";
shapes = (
{
closed = 1;
nodes = (
(52,0,l),
(291,0,l),
(291,33,l),
(208,44,l),
(208,343,l),
(617,343,l),
(617,44,l),
(534,33,l),
(534,0,l),
(774,0,l),
(774,33,l),
(689,45,l),
(689,714,l),
(766,721,l),
(766,758,l),
(537,758,l),
(537,721,l),
(617,714,l),
(617,388,l),
(208,388,l),
(208,714,l),
(287,721,l),
(287,758,l),
(55,758,l),
(55,721,l),
(136,714,l),
(136,45,l),
(52,33,l)
);
},
{
closed = 1;
nodes = (
(60,502,l),
(764,502,l),
(764,546,l),
(60,546,l)
);
}
);
width = 833;
},
{
layerId = "39185045-6A8C-415A-8312-7B8F11386A4C";
shapes = (
{
closed = 1;
nodes = (
(52,0,l),
(313,0,l),
(313,42,l),
(229,56,l),
(229,340,l),
(604,340,l),
(604,56,l),
(520,42,l),
(520,0,l),
(783,0,l),
(783,42,l),
(699,56,l),
(699,702,l),
(777,710,l),
(777,758,l),
(523,758,l),
(523,710,l),
(604,702,l),
(604,397,l),
(229,397,l),
(229,702,l),
(309,710,l),
(309,758,l),
(54,758,l),
(54,710,l),
(134,702,l),
(134,56,l),
(52,42,l)
);
},
{
closed = 1;
nodes = (
(66,502,l),
(770,502,l),
(770,546,l),
(66,546,l)
);
}
);
width = 833;
},
{
layerId = "B26750D4-52C5-4F85-819B-BFB2F142DAD5";
shapes = (
{
closed = 1;
nodes = (
(32,0,l),
(379,0,l),
(379,68,l),
(290,89,l),
(290,337,l),
(580,337,l),
(580,88,l),
(491,67,l),
(491,0,l),
(845,0,l),
(845,67,l),
(754,88,l),
(754,668,l),
(840,678,l),
(840,758,l),
(498,758,l),
(498,678,l),
(580,669,l),
(580,431,l),
(290,431,l),
(290,667,l),
(374,678,l),
(374,758,l),
(29,758,l),
(29,678,l),
(115,667,l),
(115,89,l),
(32,68,l)
);
},
{
closed = 1;
nodes = (
(35,502,l),
(839,502,l),
(839,546,l),
(35,546,l)
);
}
);
width = 869;
}
);
metricLeft = H;
metricRight = H;
unicode = 294;
},
{
color = 4;
glyphname = I;
lastChange = "2025-01-09 17:02:38 +0000";
layers = (
{
anchors = (
{
name = bottom;
pos = (187,0);
},
{
name = ogonek;
pos = (336,10);
},
{
name = top;
pos = (187,758);
},
{
name = topleft;
pos = (20,758);
}
);
layerId = "E777F328-EA17-4AE7-9EBA-8002E537BA4F";
name = Light;
shapes = (
{
closed = 1;
nodes = (
(66,0,l),
(307,0,l),
(307,33,l),
(221,44,l),
(221,714,l),
(303,721,l),
(303,758,l),
(68,758,l),
(68,721,l),
(149,714,l),
(149,44,l),
(66,33,l)
);
}
);
width = 373;
},
{
anchors = (
{
name = bottom;
pos = (187,0);
},
{
name = ogonek;
pos = (336,10);
},
{
name = top;
pos = (187,758);
},
{
name = topleft;
pos = (20,758);
}
);
layerId = "39185045-6A8C-415A-8312-7B8F11386A4C";
name = Regular;
shapes = (
{
closed = 1;
nodes = (
(51,0,l),
(323,0,l),
(323,42,l),
(234,56,l),
(234,702,l),
(318,710,l),
(318,758,l),
(53,758,l),
(53,710,l),
(139,702,l),
(139,56,l),
(51,42,l)
);
}
);
width = 373;
},
{
anchors = (
{
name = bottom;
pos = (207,0);
},
{
name = ogonek;
pos = (373,10);
},
{
name = top;
pos = (207,758);
},
{
name = topleft;
pos = (20,758);
}
);
layerId = "B26750D4-52C5-4F85-819B-BFB2F142DAD5";
name = Bold;
shapes = (
{
closed = 1;
nodes = (
(27,0,l),
(387,0,l),
(387,68,l),
(295,89,l),
(295,666,l),
(382,678,l),
(382,758,l),
(27,758,l),
(27,678,l),
(119,667,l),
(119,88,l),
(27,68,l)
);
}
);
width = 414;
}
);
unicode = 73;
},
{
glyphname = IJ;
lastChange = "2014-11-13 17:06:21 +0000";
layers = (
{
layerId = "E777F328-EA17-4AE7-9EBA-8002E537BA4F";
name = Light;
shapes = (
{
closed = 1;
nodes = (
(352,-189,l),
(451,-175,o),
(556,-100,o),
(579,17,cs),
(591,78,o),
(588,151,o),
(588,232,cs),
(588,714,l),
(676,721,l),
(676,758,l),
(430,758,l),
(430,721,l),
(516,714,l),
(516,196,ls),
(516,96,o),
(514,28,o),
(495,-29,c),
(470,-92,o),
(411,-139,o),
(331,-160,c)
);
},
{
closed = 1;
nodes = (
(66,0,l),
(307,0,l),
(307,33,l),
(221,44,l),
(221,714,l),
(303,721,l),
(303,758,l),
(68,758,l),
(68,721,l),
(149,714,l),
(149,44,l),
(66,33,l)
);
}
);
width = 725;
},
{
layerId = "39185045-6A8C-415A-8312-7B8F11386A4C";
name = Regular;
shapes = (
{
closed = 1;
nodes = (
(356,-190,l),
(458,-175,o),
(571,-104,o),
(597,24,cs),
(610,91,o),
(606,176,o),
(606,269,cs),
(606,702,l),
(686,710,l),
(686,758,l),
(431,758,l),
(431,710,l),
(511,702,l),
(511,196,ls),
(511,96,o),
(508,28,o),
(489,-29,cs),
(464,-91,o),
(403,-132,o),
(331,-156,c)
);
},
{
closed = 1;
nodes = (
(51,0,l),
(323,0,l),
(323,42,l),
(234,56,l),
(234,702,l),
(318,710,l),
(318,758,l),
(53,758,l),
(53,710,l),
(139,702,l),
(139,56,l),
(51,42,l)
);
}
);
width = 724;
},
{
layerId = "B26750D4-52C5-4F85-819B-BFB2F142DAD5";
name = Bold;
shapes = (
{
closed = 1;
nodes = (
(393,-193,l),
(488,-193,o),
(630,-128,o),
(674,-20,cs),
(696,35,o),
(704,150,o),
(704,261,cs),
(704,667,l),
(773,678,l),
(773,758,l),
(455,758,l),
(455,678,l),
(527,667,l),
(527,198,ls),
(527,114,o),
(526,43,o),
(503,-23,c),
(476,-84,o),
(427,-119,o),
(359,-144,c)
);
},
{
closed = 1;
nodes = (
(27,0,l),
(387,0,l),
(387,68,l),
(295,89,l),
(295,666,l),
(382,678,l),
(382,758,l),
(27,758,l),
(27,678,l),
(119,667,l),
(119,88,l),
(27,68,l)
);
}
);
width = 798;
}
);
unicode = 306;
},
{
color = 5;
glyphname = Idotaccent;
lastChange = "2025-01-09 17:04:09 +0000";
layers = (
{
layerId = "E777F328-EA17-4AE7-9EBA-8002E537BA4F";
name = Light;
shapes = (
{
ref = I;
},
{
pos = (60,0);
ref = dotaccentcomb.case;
}
);
width = 373;
},
{
layerId = "39185045-6A8C-415A-8312-7B8F11386A4C";
name = Regular;
shapes = (
{
ref = I;
},
{
pos = (45,0);
ref = dotaccentcomb.case;
}
);
width = 373;
},
{
background = {
shapes = (
{
closed = 1;
nodes = (
(27,758,l),
(27,678,l),
(119,667,l),
(119,88,l),
(27,68,l),
(27,0,l),
(387,0,l),
(387,68,l),
(295,89,l),
(295,666,l),
(382,678,l),
(382,758,l)
);
},
{
closed = 1;
nodes = (
(28,938,o),
(-23,905,o),
(-23,857,cs),
(-23,811,o),
(20,790,o),
(63,790,cs),
(115,790,o),
(167,821,o),
(167,869,cs),
(167,919,o),
(125,938,o),
(77,938,cs)
);
},
{
closed = 1;
nodes = (
(295,938,o),
(242,906,o),
(242,859,cs),
(242,816,o),
(283,791,o),
(331,791,cs),
(387,791,o),
(430,824,o),
(430,870,cs),
(430,918,o),
(394,938,o),
(343,938,cs)
);
}
);
};
layerId = "B26750D4-52C5-4F85-819B-BFB2F142DAD5";
name = Bold;
shapes = (
{
ref = I;
},
{
pos = (38,0);
ref = dotaccentcomb.case;
}
);
width = 414;
}
);
unicode = 304;
},
{
color = 4;
glyphname = J;
lastChange = "2025-01-09 17:02:38 +0000";
layers = (
{
anchors = (
{
name = bottom;
pos = (176,0);
},
{
name = top;
pos = (176,758);
}
);
layerId = "E777F328-EA17-4AE7-9EBA-8002E537BA4F";
name = Light;
shapes = (
{
closed = 1;
nodes = (
(57,758,l),
(57,721,l),
(143,714,l),
(143,196,ls),
(143,96,o),
(142,28,o),
(122,-29,c),
(97,-92,o),
(38,-139,o),
(-42,-160,c),
(-21,-189,l),
(79,-175,o),
(183,-100,o),
(207,17,cs),
(218,78,o),
(215,151,o),
(215,232,cs),
(215,714,l),
(303,721,l),
(303,758,l)
);
}
);
width = 352;
},
{
anchors = (
{
name = bottom;
pos = (176,0);
},
{
name = top;
pos = (176,758);
}
);
layerId = "39185045-6A8C-415A-8312-7B8F11386A4C";
name = Regular;
shapes = (
{
closed = 1;
nodes = (
(58,758,l),
(58,710,l),
(139,702,l),
(139,196,ls),
(139,96,o),
(136,28,o),
(116,-29,cs),
(91,-91,o),
(31,-132,o),
(-42,-156,c),
(-17,-190,l),
(86,-175,o),
(199,-104,o),
(225,24,cs),
(237,91,o),
(234,176,o),
(234,269,cs),
(234,702,l),
(313,710,l),
(313,758,l)
);
}
);
width = 352;
},
{
anchors = (
{
name = bottom;
pos = (192,0);
},
{
name = top;
pos = (192,758);
}
);
background = {
shapes = (
{
closed = 1;
nodes = (
(99,6,o),
(105,36,o),
(109,72,cs),
(112,107,o),
(113,148,o),
(113,198,cs),
(113,667,l),
(41,678,l),
(41,758,l),
(359,758,l),
(359,678,l),
(290,667,l),
(290,261,ls),
(290,203,o),
(288,145,o),
(283,95,cs),
(278,45,o),
(270,3,o),
(260,-20,cs),
(243,-59,o),
(216,-91,o),
(185,-116,cs),
(153,-142,o),
(116,-160,o),
(80,-173,cs),
(44,-186,o),
(9,-193,o),
(-21,-193,c),
(-55,-144,l),
(-23,-132,o),
(7,-117,o),
(31,-98,cs),
(56,-78,o),
(75,-54,o),
(89,-23,c)
);
}
);
};
layerId = "B26750D4-52C5-4F85-819B-BFB2F142DAD5";
name = Bold;
shapes = (
{
closed = 1;
nodes = (
(41,758,l),
(41,678,l),
(113,667,l),
(113,198,ls),
(113,114,o),
(112,43,o),
(89,-23,c),
(62,-84,o),
(13,-119,o),
(-55,-144,c),
(-21,-193,l),
(74,-193,o),
(216,-128,o),
(260,-20,cs),
(282,35,o),
(290,150,o),
(290,261,cs),
(290,667,l),
(359,678,l),
(359,758,l)
);
}
);
width = 384;
}
);
unicode = 74;
},
{
color = 4;
glyphname = K;
lastChange = "2025-01-09 17:02:38 +0000";
layers = (
{
anchors = (
{
name = bottom;
pos = (347,0);
},
{
name = top;
pos = (347,758);
}
);
layerId = "E777F328-EA17-4AE7-9EBA-8002E537BA4F";
name = Light;
shapes = (
{
closed = 1;
nodes = (
(52,0,l),
(290,0,l),
(290,33,l),
(204,44,l),
(204,283,l),
(297,389,l),
(366,323,o),
(534,0,o),
(568,0,cs),
(696,0,l),
(696,33,l),
(622,47,l),
(588,47,o),
(400,373,o),
(339,437,c),
(584,713,l),
(662,721,l),
(662,758,l),
(437,758,l),
(437,721,l),
(516,713,l),
(204,350,l),
(204,714,l),
(282,721,l),
(282,758,l),
(53,758,l),
(53,721,l),
(131,714,l),
(131,44,l),
(52,33,l)
);
}
);
width = 693;
},
{
anchors = (
{
name = bottom;
pos = (347,0);
},
{
name = top;
pos = (347,758);
}
);
layerId = "39185045-6A8C-415A-8312-7B8F11386A4C";
name = Regular;
shapes = (
{
closed = 1;
nodes = (
(52,0,l),
(319,0,l),
(319,42,l),
(229,55,l),
(229,280,l),
(311,374,l),
(381,303,o),
(520,0,o),
(554,0,cs),
(705,0,l),
(705,42,l),
(626,60,l),
(593,60,o),
(431,365,o),
(366,438,c),
(595,702,l),
(675,710,l),
(675,758,l),
(431,758,l),
(432,710,l),
(507,702,l),
(229,365,l),
(229,702,l),
(309,710,l),
(309,758,l),
(54,758,l),
(54,710,l),
(134,702,l),
(134,56,l),
(52,42,l)
);
}
);
width = 693;
},
{
anchors = (
{
name = bottom;
pos = (375,0);
},
{
name = top;
pos = (375,758);
}
);
background = {
shapes = (
{
closed = 1;
nodes = (
(22,68,l),
(115,89,l),
(115,666,l),
(21,678,l),
(21,758,l),
(375,758,l),
(375,678,l),
(288,666,l),
(288,389,l),
(512,667,l),
(435,678,l),
(433,758,l),
(735,758,l),
(735,678,l),
(644,666,l),
(434,434,l),
(455,415,o),
(479,386,o),
(502,352,cs),
(526,318,o),
(550,280,o),
(574,243,cs),
(597,206,o),
(619,171,o),
(639,143,cs),
(659,115,o),
(677,94,o),
(691,86,c),
(754,68,l),
(754,0,l),
(548,0,ls),
(534,0,o),
(518,17,o),
(502,44,cs),
(486,71,o),
(469,107,o),
(452,145,cs),
(435,183,o),
(417,223,o),
(398,257,cs),
(380,291,o),
(361,319,o),
(343,334,c),
(288,272,l),
(288,89,l),
(386,68,l),
(386,0,l),
(22,0,l)
);
}
);
};
layerId = "B26750D4-52C5-4F85-819B-BFB2F142DAD5";
name = Bold;
shapes = (
{
closed = 1;
nodes = (
(22,0,l),
(386,0,l),
(386,68,l),
(288,89,l),
(288,272,l),
(343,334,l),
(428,256,o),
(490,2,o),
(548,0,c),
(754,0,l),
(754,68,l),
(691,86,l),
(640,109,o),
(523,354,o),
(434,434,c),
(644,666,l),
(735,678,l),
(735,758,l),
(433,758,l),
(435,678,l),
(512,667,l),
(288,389,l),
(288,666,l),
(375,678,l),
(375,758,l),
(21,758,l),
(21,678,l),
(115,666,l),
(115,89,l),
(22,68,l)
);
}
);
width = 750;
}
);
unicode = 75;
},
{
glyphname = Kcommaaccent;
lastChange = "2025-01-09 17:02:38 +0000";
layers = (
{
background = {
shapes = (
{
closed = 1;
nodes = (
(52,0,l),
(290,0,l),
(290,33,l),
(204,44,l),
(204,283,l),
(297,389,l),
(366,323,o),
(534,0,o),
(568,0,cs),
(696,0,l),
(696,33,l),
(622,47,l),
(588,47,o),
(400,373,o),
(339,437,c),
(584,713,l),
(662,721,l),
(662,758,l),
(437,758,l),
(437,747,o),
(438,732,o),
(438,721,c),
(516,713,l),
(204,350,l),
(204,714,l),
(282,721,l),
(282,758,l),
(53,758,l),
(53,721,l),
(131,714,l),
(131,44,l),
(52,33,l)
);
},
{
closed = 1;
nodes = (
(336,-73,l),
(336,-94,l),
(359,-94,o),
(395,-120,o),
(395,-163,cs),
(395,-212,o),
(375,-264,o),
(335,-281,c),
(335,-294,l),
(356,-313,l),
(404,-296,o),
(471,-229,o),
(469,-147,c),
(469,-101,o),
(435,-48,o),
(372,-36,c)
);
}
);
};
layerId = "E777F328-EA17-4AE7-9EBA-8002E537BA4F";
name = Light;
shapes = (
{
ref = K;
},
{
pos = (145,0);
ref = commaaccent;
}
);
width = 693;
},
{
background = {
shapes = (
{
closed = 1;
nodes = (
(52,0,l),
(319,0,l),
(319,42,l),
(229,55,l),
(229,280,l),
(311,374,l),
(381,303,o),
(520,0,o),
(554,0,cs),
(705,0,l),
(705,42,l),
(626,60,l),
(593,60,o),
(431,365,o),
(366,438,c),
(595,702,l),
(675,710,l),
(675,758,l),
(431,758,l),
(431,742,o),
(432,727,o),
(432,710,c),
(507,702,l),
(229,365,l),
(229,702,l),
(309,710,l),
(309,758,l),
(54,758,l),
(54,710,l),
(134,702,l),
(134,56,l),
(52,42,l)
);
},
{
closed = 1;
nodes = (
(349,-71,l),
(349,-97,l),
(366,-97,o),
(398,-126,o),
(398,-164,cs),
(398,-207,o),
(386,-258,o),
(349,-275,c),
(349,-288,l),
(376,-313,l),
(420,-301,o),
(499,-233,o),
(499,-144,cs),
(499,-96,o),
(466,-38,o),
(398,-20,c)
);
}
);
};
layerId = "39185045-6A8C-415A-8312-7B8F11386A4C";
name = Regular;
shapes = (
{
ref = K;
},
{
pos = (215,0);
ref = commaaccent;
}
);
width = 693;
},
{
background = {
shapes = (
{
closed = 1;
nodes = (
(22,68,l),
(115,89,l),
(115,666,l),
(21,678,l),
(21,758,l),
(375,758,l),
(375,678,l),
(288,666,l),
(288,389,l),
(512,667,l),
(435,678,l),
(433,758,l),
(735,758,l),
(735,678,l),
(644,666,l),
(434,434,l),
(455,415,o),
(479,386,o),
(502,352,cs),
(526,318,o),
(550,280,o),
(574,243,cs),
(597,206,o),
(619,171,o),
(639,143,cs),
(659,115,o),
(677,94,o),
(691,86,c),
(754,68,l),
(754,0,l),
(548,0,ls),
(534,0,o),
(518,17,o),
(502,44,cs),
(486,71,o),
(469,107,o),
(452,145,cs),
(435,183,o),
(417,223,o),
(398,257,cs),
(380,291,o),
(361,319,o),
(343,334,c),
(288,272,l),
(288,89,l),
(386,68,l),
(386,0,l),
(22,0,l)
);
},
{
closed = 1;
nodes = (
(360,-20,l),
(394,-20,o),
(426,-32,o),
(450,-56,cs),
(473,-80,o),
(488,-114,o),
(488,-157,cs),
(488,-185,o),
(479,-210,o),
(465,-231,cs),
(451,-253,o),
(432,-272,o),
(414,-286,cs),
(396,-299,o),
(377,-309,o),
(364,-313,c),
(302,-288,l),
(302,-277,l),
(306,-273,o),
(311,-269,o),
(316,-264,cs),
(327,-255,o),
(337,-244,o),
(344,-229,cs),
(347,-221,o),
(349,-212,o),
(349,-202,cs),
(349,-185,o),
(342,-168,o),
(331,-156,cs),
(319,-145,o),
(304,-137,o),
(288,-137,c),
(288,-99,l)
);
}
);
};
layerId = "B26750D4-52C5-4F85-819B-BFB2F142DAD5";
name = Bold;
shapes = (
{
ref = K;
},
{
pos = (213,0);
ref = commaaccent;
}
);
width = 750;
}
);
unicode = 310;
},
{
color = 4;
glyphname = L;
lastChange = "2025-01-09 17:02:38 +0000";
layers = (
{
anchors = (
{
name = bottom;
pos = (304,0);
},
{
name = center;
pos = (304,379);
},
{
name = top;
pos = (304,758);
},
{
name = topright;
pos = (587,758);
}
);
layerId = "E777F328-EA17-4AE7-9EBA-8002E537BA4F";
name = Light;
shapes = (
{
closed = 1;
nodes = (
(52,0,l),
(561,0,l),
(593,155,l),
(560,171,l),
(507,51,l),
(211,42,l),
(212,710,l),
(307,717,l),
(307,758,l),
(54,758,l),
(54,717,l),
(140,710,l),
(140,45,l),
(52,33,l)
);
}
);
width = 607;
},
{
anchors = (
{
name = bottom;
pos = (304,0);
},
{
name = center;
pos = (304,379);
},
{
name = top;
pos = (304,758);
},
{
name = topright;
pos = (587,758);
}
);
layerId = "39185045-6A8C-415A-8312-7B8F11386A4C";
name = Regular;
shapes = (
{
closed = 1;
nodes = (
(52,0,l),
(561,0,l),
(593,162,l),
(550,183,l),
(490,66,l),
(229,55,l),
(230,697,l),
(316,705,l),
(316,758,l),
(54,758,l),
(54,705,l),
(134,697,l),
(134,56,l),
(52,42,l)
);
}
);
width = 607;
},
{
anchors = (
{
name = bottom;
pos = (316,0);
},
{
name = center;
pos = (316,379);
},
{
name = top;
pos = (316,758);
},
{
name = topright;
pos = (611,758);
}
);
layerId = "B26750D4-52C5-4F85-819B-BFB2F142DAD5";
name = Bold;
shapes = (
{
closed = 1;
nodes = (
(45,0,l),
(588,0,l),
(622,187,l),
(547,214,l),
(466,99,l),
(290,80,l),
(290,657,l),
(379,668,l),
(379,758,l),
(48,758,l),
(48,668,l),
(115,658,l),
(115,87,l),
(45,68,l)
);
}
);
width = 631;
}
);
unicode = 76;
},
{
color = 5;
glyphname = Lacute;
lastChange = "2025-01-09 17:04:09 +0000";
layers = (
{
background = {
shapes = (
{
closed = 1;
nodes = (
(174,785,l),
(233,809,o),
(303,848,o),
(350,884,c),
(298,938,l),
(153,806,l)
);
},
{
closed = 1;
nodes = (
(56,0,l),
(297,0,l),
(297,33,l),
(211,44,l),
(211,714,l),
(293,721,l),
(293,758,l),
(58,758,l),
(58,721,l),
(139,714,l),
(139,44,l),
(56,33,l)
);
}
);
};
layerId = "E777F328-EA17-4AE7-9EBA-8002E537BA4F";
name = Light;
shapes = (
{
ref = L;
},
{
pos = (46,0);
ref = acutecomb.case;
}
);
width = 607;
},
{
background = {
shapes = (
{
closed = 1;
nodes = (
(179,785,l),
(239,795,o),
(312,826,o),
(373,865,c),
(302,938,l),
(153,811,l)
);
},
{
closed = 1;
nodes = (
(46,0,l),
(318,0,l),
(318,42,l),
(229,56,l),
(229,702,l),
(313,710,l),
(313,758,l),
(48,758,l),
(48,710,l),
(134,702,l),
(134,56,l),
(46,42,l)
);
}
);
};
layerId = "39185045-6A8C-415A-8312-7B8F11386A4C";
name = Regular;
shapes = (
{
ref = L;
},
{
pos = (17,0);
ref = acutecomb.case;
}
);
width = 607;
},
{
background = {
shapes = (
{
closed = 1;
nodes = (
(174,778,l),
(238,782,o),
(367,810,o),
(411,844,c),
(317,938,l),
(125,830,l)
);
},
{
closed = 1;
nodes = (
(23,0,l),
(383,0,l),
(383,68,l),
(291,89,l),
(291,666,l),
(378,678,l),
(378,758,l),
(23,758,l),
(23,678,l),
(115,667,l),
(115,88,l),
(23,68,l)
);
}
);
};
layerId = "B26750D4-52C5-4F85-819B-BFB2F142DAD5";
name = Bold;
shapes = (
{
ref = L;
},
{
pos = (144,0);
ref = acutecomb.case;
}
);
width = 631;
}
);
unicode = 313;
},
{
glyphname = Ldot;
lastChange = "2014-11-13 17:18:36 +0000";
layers = (
{
layerId = "E777F328-EA17-4AE7-9EBA-8002E537BA4F";
name = Light;
shapes = (
{
closed = 1;
nodes = (
(54,758,l),
(54,717,l),
(140,710,l),
(140,45,l),
(52,33,l),
(52,0,l),
(561,0,l),
(593,155,l),
(560,171,l),
(507,51,l),
(211,42,l),
(212,710,l),
(307,717,l),
(307,758,l)
);
},
{
closed = 1;
nodes = (
(576,461,o),
(547,444,o),
(543,417,cs),
(539,392,o),
(555,373,o),
(576,370,cs),
(601,366,o),
(628,383,o),
(632,411,cs),
(636,434,o),
(628,455,o),
(599,459,cs)
);
}
);
width = 680;
},
{
layerId = "39185045-6A8C-415A-8312-7B8F11386A4C";
name = Regular;
shapes = (
{
closed = 1;
nodes = (
(54,758,l),
(54,705,l),
(134,697,l),
(134,56,l),
(52,42,l),
(52,0,l),
(561,0,l),
(593,162,l),
(550,183,l),
(490,66,l),
(229,55,l),
(230,697,l),
(316,705,l),
(316,758,l)
);
},
{
closed = 1;
nodes = (
(560,479,o),
(521,449,o),
(521,408,cs),
(521,370,o),
(551,348,o),
(583,348,cs),
(620,348,o),
(656,375,o),
(656,418,cs),
(656,452,o),
(637,479,o),
(594,479,cs)
);
}
);
width = 680;
},
{
background = {
shapes = (
{
closed = 1;
nodes = (
(614,313,o),
(644,323,o),
(667,342,cs),
(690,361,o),
(704,387,o),
(704,420,cs),
(704,446,o),
(696,470,o),
(679,487,cs),
(663,504,o),
(637,515,o),
(603,515,cs),
(576,515,o),
(547,502,o),
(525,483,cs),
(502,463,o),
(486,435,o),
(486,404,cs),
(486,375,o),
(499,352,o),
(518,337,cs),
(536,321,o),
(561,313,o),
(585,313,cs)
);
}
);
};
layerId = "B26750D4-52C5-4F85-819B-BFB2F142DAD5";
name = Bold;
shapes = (
{
closed = 1;
nodes = (
(48,758,l),
(48,668,l),
(115,658,l),
(115,87,l),
(45,68,l),
(45,0,l),
(588,0,l),
(622,187,l),
(547,214,l),
(466,99,l),
(290,80,l),
(290,657,l),
(379,668,l),
(379,758,l)
);
},
{
closed = 1;
nodes = (
(549,515,o),
(486,465,o),
(486,404,cs),
(486,351,o),
(532,313,o),
(585,313,cs),
(645,313,o),
(704,354,o),
(704,420,cs),
(704,477,o),
(667,515,o),
(603,515,cs)
);
}
);
width = 697;
}
);
unicode = 319;
},
{
glyphname = Lslash;
lastChange = "2014-11-13 17:19:33 +0000";
layers = (
{
layerId = "E777F328-EA17-4AE7-9EBA-8002E537BA4F";
name = Light;
shapes = (
{
closed = 1;
nodes = (
(54,758,l),
(54,717,l),
(140,710,l),
(140,343,l),
(43,303,l),
(43,275,l),
(43,266,o),
(43,258,o),
(43,249,c),
(140,287,l),
(140,45,l),
(52,33,l),
(52,0,l),
(561,0,l),
(593,155,l),
(560,171,l),
(507,51,l),
(211,42,l),
(211,316,l),
(475,422,l),
(475,481,l),
(389,445,l),
(330,421,o),
(270,397,o),
(211,373,c),
(212,710,l),
(307,717,l),
(307,758,l)
);
}
);
width = 607;
},
{
layerId = "39185045-6A8C-415A-8312-7B8F11386A4C";
name = Regular;
shapes = (
{
closed = 1;
nodes = (
(54,758,l),
(54,705,l),
(134,697,l),
(134,348,l),
(47,313,l),
(47,277,ls),
(47,267,o),
(47,255,o),
(47,242,c),
(134,275,l),
(134,56,l),
(52,42,l),
(52,0,l),
(561,0,l),
(593,162,l),
(550,183,l),
(490,66,l),
(229,55,l),
(229,311,l),
(496,413,l),
(496,491,l),
(409,457,ls),
(358,437,o),
(292,410,o),
(229,385,c),
(230,697,l),
(316,705,l),
(316,758,l)
);
}
);
width = 607;
},
{
layerId = "B26750D4-52C5-4F85-819B-BFB2F142DAD5";
name = Bold;
shapes = (
{
closed = 1;
nodes = (
(48,758,l),
(48,668,l),
(115,658,l),
(115,385,l),
(33,350,l),
(33,290,ls),
(33,273,o),
(33,253,o),
(33,231,c),
(115,264,l),
(115,87,l),
(45,68,l),
(45,0,l),
(588,0,l),
(622,187,l),
(547,214,l),
(466,99,l),
(290,80,l),
(290,334,l),
(492,415,l),
(492,548,l),
(366,494,ls),
(342,483,o),
(316,472,o),
(290,461,c),
(290,657,l),
(379,668,l),
(379,758,l)
);
}
);
width = 629;
}
);
unicode = 321;
},
{
color = 4;
glyphname = M;
lastChange = "2025-01-09 17:02:38 +0000";
layers = (
{
anchors = (
{
name = bottom;
pos = (483,0);
},
{
name = top;
pos = (483,758);
}
);
layerId = "E777F328-EA17-4AE7-9EBA-8002E537BA4F";
name = Light;
shapes = (
{
closed = 1;
nodes = (
(38,0,l),
(291,0,l),
(291,33,l),
(187,45,l),
(214,520,l),
(222,712,l),
(237,668,o),
(258,605,o),
(272,566,cs),
(475,-7,l),
(500,-7,l),
(710,619,l),
(736,712,l),
(743,546,l),
(786,44,l),
(692,33,l),
(692,0,l),
(949,0,l),
(949,33,l),
(854,44,l),
(796,710,l),
(893,718,l),
(893,758,l),
(704,758,l),
(519,184,l),
(497,115,l),
(477,183,l),
(281,758,l),
(80,758,l),
(80,718,l),
(178,710,l),
(128,44,l),
(38,33,l)
);
}
);
width = 965;
},
{
anchors = (
{
name = bottom;
pos = (483,0);
},
{
name = top;
pos = (483,758);
}
);
layerId = "39185045-6A8C-415A-8312-7B8F11386A4C";
name = Regular;
shapes = (
{
closed = 1;
nodes = (
(38,0,l),
(291,0,l),
(291,42,l),
(198,56,l),
(222,520,l),
(226,687,l),
(244,633,o),
(261,580,o),
(280,527,cs),
(467,-7,l),
(500,-7,l),
(706,602,l),
(726,682,l),
(730,513,l),
(771,56,l),
(690,42,l),
(690,0,l),
(944,0,l),
(944,42,l),
(860,56,l),
(805,697,l),
(896,705,l),
(896,758,l),
(689,758,l),
(521,228,l),
(499,154,l),
(476,226,l),
(300,758,l),
(75,758,l),
(75,705,l),
(170,697,l),
(122,56,l),
(38,42,l)
);
}
);
width = 965;
},
{
anchors = (
{
name = bottom;
pos = (503,0);
},
{
name = top;
pos = (503,758);
}
);
layerId = "B26750D4-52C5-4F85-819B-BFB2F142DAD5";
name = Bold;
shapes = (
{
closed = 1;
nodes = (
(30,0,l),
(324,0,l),
(324,68,l),
(234,90,l),
(249,522,l),
(250,658,l),
(270,597,o),
(289,536,o),
(309,475,c),
(470,-9,l),
(534,-9,l),
(707,594,l),
(724,662,l),
(726,463,l),
(753,89,l),
(672,67,l),
(672,0,l),
(996,0,l),
(996,67,l),
(919,88,l),
(869,656,l),
(960,667,l),
(960,758,l),
(654,758,l),
(544,370,l),
(523,271,l),
(507,370,l),
(390,758,l),
(58,758,l),
(58,667,l),
(148,656,l),
(114,89,l),
(30,68,l)
);
}
);
width = 1006;
}
);
unicode = 77;
},
{
color = 4;
glyphname = N;
lastChange = "2025-01-09 17:02:38 +0000";
layers = (
{
anchors = (
{
name = bottom;
pos = (406,0);
},
{
name = top;
pos = (406,758);
}
);
layerId = "E777F328-EA17-4AE7-9EBA-8002E537BA4F";
name = Light;
shapes = (
{
closed = 1;
nodes = (
(551,758,l),
(551,718,l),
(636,710,l),
(636,63,l),
(564,195,l),
(213,758,l),
(54,758,l),
(54,717,l),
(137,710,l),
(137,44,l),
(51,33,l),
(51,0,l),
(291,0,l),
(291,33,l),
(190,44,l),
(190,191,o),
(191,529,o),
(191,680,c),
(263,543,l),
(610,0,l),
(689,0,l),
(689,710,l),
(774,718,l),
(774,758,l)
);
}
);
width = 812;
},
{
anchors = (
{
name = bottom;
pos = (406,0);
},
{
name = top;
pos = (406,758);
}
);
layerId = "39185045-6A8C-415A-8312-7B8F11386A4C";
name = Regular;
shapes = (
{
closed = 1;
nodes = (
(543,758,l),
(543,706,l),
(623,697,l),
(623,90,l),
(554,224,l),
(227,758,l),
(54,758,l),
(54,705,l),
(134,697,l),
(134,56,l),
(51,42,l),
(51,0,l),
(299,0,l),
(299,42,l),
(204,56,l),
(204,252,o),
(204,448,o),
(204,644,c),
(271,508,l),
(593,0,l),
(693,0,l),
(693,697,l),
(774,706,l),
(774,758,l)
);
}
);
width = 812;
},
{
anchors = (
{
name = bottom;
pos = (417,0);
},
{
name = top;
pos = (417,758);
}
);
layerId = "B26750D4-52C5-4F85-819B-BFB2F142DAD5";
name = Bold;
shapes = (
{
closed = 1;
nodes = (
(539,758,l),
(539,669,l),
(627,655,l),
(627,131,l),
(584,247,l),
(290,758,l),
(42,758,l),
(42,668,l),
(115,657,l),
(115,90,l),
(38,68,l),
(38,0,l),
(327,0,l),
(327,68,l),
(228,92,l),
(228,173,o),
(227,502,o),
(227,580,c),
(280,448,l),
(546,0,l),
(738,0,l),
(738,658,l),
(805,669,l),
(805,758,l)
);
}
);
width = 833;
}
);
unicode = 78;
},
{
color = 5;
glyphname = Nacute;
lastChange = "2025-01-09 17:04:09 +0000";
layers = (
{
background = {
shapes = (
{
closed = 1;
nodes = (
(551,758,l),
(551,718,l),
(636,710,l),
(636,63,l),
(564,195,l),
(213,758,l),
(54,758,l),
(54,717,l),
(137,710,l),
(137,44,l),
(51,33,l),
(51,0,l),
(291,0,l),
(291,33,l),
(190,44,l),
(190,191,o),
(191,529,o),
(191,680,c),
(263,543,l),
(610,0,l),
(689,0,l),
(689,710,l),
(774,718,l),
(774,758,l)
);
},
{
closed = 1;
nodes = (
(387,806,l),
(407,785,l),
(466,809,o),
(537,848,o),
(583,884,c),
(531,938,l)
);
}
);
};
layerId = "E777F328-EA17-4AE7-9EBA-8002E537BA4F";
name = Light;
shapes = (
{
ref = N;
},
{
pos = (148,0);
ref = acutecomb.case;
}
);
width = 812;
},
{
background = {
shapes = (
{
closed = 1;
nodes = (
(543,758,l),
(543,706,l),
(623,697,l),
(623,90,l),
(554,224,l),
(227,758,l),
(54,758,l),
(54,705,l),
(134,697,l),
(134,56,l),
(51,42,l),
(51,0,l),
(299,0,l),
(299,42,l),
(204,56,l),
(204,252,o),
(204,448,o),
(204,644,c),
(271,508,l),
(593,0,l),
(693,0,l),
(693,697,l),
(774,706,l),
(774,758,l)
);
},
{
closed = 1;
nodes = (
(375,811,l),
(401,785,l),
(462,795,o),
(535,826,o),
(596,865,c),
(525,938,l)
);
}
);
};
layerId = "39185045-6A8C-415A-8312-7B8F11386A4C";
name = Regular;
shapes = (
{
ref = N;
},
{
pos = (119,0);
ref = acutecomb.case;
}
);
width = 812;
},
{
background = {
shapes = (
{
closed = 1;
nodes = (
(355,830,l),
(547,938,l),
(641,844,l),
(623,830,o),
(593,818,o),
(560,808,cs),
(528,798,o),
(492,791,o),
(464,785,cs),
(449,783,o),
(436,781,o),
(426,779,cs),
(415,778,o),
(408,777,o),
(404,778,c)
);
},
{
closed = 1;
nodes = (
(38,68,l),
(114,90,l),
(114,657,l),
(41,668,l),
(41,758,l),
(290,758,l),
(584,247,l),
(627,131,l),
(627,655,l),
(539,669,l),
(539,758,l),
(804,758,l),
(804,669,l),
(737,658,l),
(737,0,l),
(546,0,l),
(280,448,l),
(227,580,l),
(227,498,o),
(227,417,o),
(227,335,cs),
(227,254,o),
(227,173,o),
(227,92,c),
(326,68,l),
(326,0,l),
(38,0,l)
);
}
);
};
layerId = "B26750D4-52C5-4F85-819B-BFB2F142DAD5";
name = Bold;
shapes = (
{
ref = N;
},
{
pos = (245,0);
ref = acutecomb.case;
}
);
width = 833;
}
);
unicode = 323;
},
{
color = 5;
glyphname = Ntilde;
lastChange = "2025-01-09 17:04:09 +0000";
layers = (
{
background = {
shapes = (
{
closed = 1;
nodes = (
(551,758,l),
(551,718,l),
(636,710,l),
(636,63,l),
(564,195,l),
(213,758,l),
(54,758,l),
(54,717,l),
(137,710,l),
(137,44,l),
(51,33,l),
(51,0,l),
(291,0,l),
(291,33,l),
(190,44,l),
(190,191,o),
(191,529,o),
(191,680,c),
(263,543,l),
(610,0,l),
(689,0,l),
(689,710,l),
(774,718,l),
(774,758,l)
);
},
{
closed = 1;
nodes = (
(293,938,o),
(242,902,o),
(216,859,c),
(237,831,l),
(258,855,o),
(292,879,o),
(331,879,cs),
(381,879,o),
(404,807,o),
(467,807,cs),
(520,807,o),
(570,844,o),
(595,885,c),
(575,915,l),
(553,890,o),
(523,867,o),
(481,867,cs),
(432,867,o),
(409,938,o),
(346,938,cs)
);
}
);
};
layerId = "E777F328-EA17-4AE7-9EBA-8002E537BA4F";
name = Light;
shapes = (
{
ref = N;
},
{
pos = (149,0);
ref = tildecomb.case;
}
);
width = 812;
},
{
background = {
shapes = (
{
closed = 1;
nodes = (
(543,758,l),
(543,706,l),
(623,697,l),
(623,90,l),
(554,224,l),
(227,758,l),
(54,758,l),
(54,705,l),
(134,697,l),
(134,56,l),
(51,42,l),
(51,0,l),
(299,0,l),
(299,42,l),
(204,56,l),
(204,252,o),
(204,448,o),
(204,644,c),
(271,508,l),
(593,0,l),
(693,0,l),
(693,697,l),
(774,706,l),
(774,758,l)
);
},
{
closed = 1;
nodes = (
(295,938,o),
(236,900,o),
(211,854,c),
(237,819,l),
(256,838,o),
(293,860,o),
(327,860,cs),
(375,860,o),
(390,796,o),
(454,796,cs),
(506,796,o),
(565,834,o),
(589,880,c),
(564,916,l),
(543,895,o),
(511,876,o),
(474,876,cs),
(426,876,o),
(410,938,o),
(347,938,cs)
);
}
);
};
layerId = "39185045-6A8C-415A-8312-7B8F11386A4C";
name = Regular;
shapes = (
{
ref = N;
},
{
pos = (151,0);
ref = tildecomb.case;
}
);
width = 812;
},
{
background = {
shapes = (
{
closed = 1;
nodes = (
(223,836,l),
(233,865,o),
(260,890,o),
(289,908,cs),
(319,926,o),
(350,938,o),
(373,938,cs),
(409,938,o),
(434,925,o),
(456,913,cs),
(478,901,o),
(495,889,o),
(516,889,cs),
(551,889,o),
(576,904,o),
(597,923,c),
(641,876,l),
(630,847,o),
(605,824,o),
(576,808,cs),
(548,792,o),
(517,783,o),
(494,783,cs),
(459,783,o),
(432,795,o),
(410,808,cs),
(387,821,o),
(368,833,o),
(347,833,cs),
(318,833,o),
(288,817,o),
(265,798,c)
);
},
{
closed = 1;
nodes = (
(40,68,l),
(116,90,l),
(116,657,l),
(43,668,l),
(43,758,l),
(292,758,l),
(586,247,l),
(629,131,l),
(629,655,l),
(541,669,l),
(541,758,l),
(806,758,l),
(806,669,l),
(739,658,l),
(739,0,l),
(548,0,l),
(282,448,l),
(229,580,l),
(229,498,o),
(229,417,o),
(229,335,cs),
(229,254,o),
(229,173,o),
(229,92,c),
(328,68,l),
(328,0,l),
(40,0,l)
);
}
);
};
layerId = "B26750D4-52C5-4F85-819B-BFB2F142DAD5";
name = Bold;
shapes = (
{
ref = N;
},
{
pos = (157,0);
ref = tildecomb.case;
}
);
width = 833;
}
);
unicode = 209;
},
{
color = 4;
glyphname = O;
lastChange = "2025-01-09 17:02:38 +0000";
layers = (
{
anchors = (
{
name = bottom;
pos = (380,0);
},
{
name = center;
pos = (380,379);
},
{
name = ogonek;
pos = (683,10);
},
{
name = top;
pos = (380,758);
},
{
name = topleft;
pos = (20,758);
},
{
name = topright;
pos = (739,758);
}
);
background = {
shapes = (
{
closed = 1;
nodes = (
(42,142,o),
(176,-18,o),
(379,-14,cs),
(562,-10,o),
(711,132,o),
(716,386,cs),
(720,609,o),
(592,769,o),
(393,765,cs),
(207,761,o),
(51,624,o),
(45,369,cs)
);
},
{
closed = 1;
nodes = (
(224,27,o),
(125,176,o),
(125,369,cs),
(125,595,o),
(234,724,o),
(385,724,cs),
(547,724,o),
(638,573,o),
(638,386,cs),
(638,165,o),
(536,27,o),
(386,27,cs)
);
}
);
};
layerId = "E777F328-EA17-4AE7-9EBA-8002E537BA4F";
name = Light;
shapes = (
{
closed = 1;
nodes = (
(336,765,o),
(275,749,o),
(222,718,cs),
(120,657,o),
(49,539,o),
(45,369,cs),
(42,145,o),
(173,-14,o),
(372,-14,cs),
(560,-14,o),
(716,133,o),
(716,396,cs),
(716,611,o),
(592,765,o),
(400,765,cs)
);
},
{
closed = 1;
nodes = (
(547,724,o),
(638,573,o),
(638,386,cs),
(638,165,o),
(536,27,o),
(386,27,cs),
(224,27,o),
(125,176,o),
(125,369,cs),
(125,595,o),
(234,724,o),
(385,724,cs)
);
}
);
width = 759;
},
{
anchors = (
{
name = bottom;
pos = (380,0);
},
{
name = center;
pos = (380,379);
},
{
name = ogonek;
pos = (683,10);
},
{
name = top;
pos = (380,758);
},
{
name = topleft;
pos = (20,758);
},
{
name = topright;
pos = (739,758);
}
);
background = {
shapes = (
{
closed = 1;
nodes = (
(44,367,cs),
(40,146,o),
(172,-18,o),
(378,-14,cs),
(564,-10,o),
(712,136,o),
(718,385,cs),
(722,606,o),
(596,771,o),
(393,765,cs),
(204,760,o),
(49,616,o)
);
},
{
closed = 1;
nodes = (
(386,38,cs),
(236,38,o),
(149,198,o),
(149,368,cs),
(149,585,o),
(241,713,o),
(384,713,cs),
(533,713,o),
(612,554,o),
(612,384,cs),
(612,167,o),
(529,38,o)
);
}
);
};
layerId = "39185045-6A8C-415A-8312-7B8F11386A4C";
name = Regular;
shapes = (
{
closed = 1;
nodes = (
(354,765,o),
(294,756,o),
(233,723,cs),
(124,664,o),
(44,536,o),
(44,357,cs),
(44,144,o),
(172,-14,o),
(371,-14,cs),
(560,-14,o),
(712,133,o),
(718,385,cs),
(722,602,o),
(600,765,o),
(404,765,cs)
);
},
{
closed = 1;
nodes = (
(533,713,o),
(612,554,o),
(612,384,cs),
(612,167,o),
(529,38,o),
(386,38,cs),
(236,38,o),
(149,198,o),
(149,368,cs),
(149,585,o),
(241,713,o),
(384,713,cs)
);
}
);
width = 759;
},
{
anchors = (
{
name = bottom;
pos = (391,0);
},
{
name = center;
pos = (391,379);
},
{
name = ogonek;
pos = (703,10);
},
{
name = top;
pos = (391,758);
},
{
name = topleft;
pos = (20,758);
},
{
name = topright;
pos = (761,758);
}
);
background = {
shapes = (
{
closed = 1;
nodes = (
(36,450,o),
(57,521,o),
(90,581,cs),
(124,639,o),
(171,686,o),
(225,717,cs),
(278,749,o),
(339,765,o),
(401,765,cs),
(507,765,o),
(596,725,o),
(657,657,cs),
(718,589,o),
(752,495,o),
(750,386,cs),
(748,263,o),
(708,163,o),
(645,94,cs),
(580,25,o),
(492,-14,o),
(391,-14,cs),
(280,-14,o),
(189,28,o),
(127,97,cs),
(65,165,o),
(32,261,o),
(34,368,cs)
);
},
{
closed = 1;
nodes = (
(460,64,o),
(501,91,o),
(526,145,cs),
(550,198,o),
(559,278,o),
(559,385,cs),
(559,428,o),
(554,475,o),
(543,520,cs),
(533,564,o),
(515,605,o),
(491,635,cs),
(467,665,o),
(436,685,o),
(396,685,cs),
(332,685,o),
(289,656,o),
(263,603,cs),
(236,550,o),
(226,471,o),
(226,369,cs),
(226,330,o),
(230,284,o),
(242,239,cs),
(253,194,o),
(271,150,o),
(297,118,cs),
(322,86,o),
(355,64,o),
(397,64,cs)
);
}
);
};
layerId = "B26750D4-52C5-4F85-819B-BFB2F142DAD5";
name = Bold;
shapes = (
{
closed = 1;
nodes = (
(320,765,o),
(249,739,o),
(191,695,cs),
(96,624,o),
(38,505,o),
(34,368,cs),
(30,147,o),
(174,-14,o),
(391,-14,cs),
(607,-14,o),
(746,157,o),
(750,386,cs),
(754,603,o),
(615,765,o),
(401,765,cs)
);
},
{
closed = 1;
nodes = (
(491,685,o),
(559,563,o),
(559,385,cs),
(559,200,o),
(536,64,o),
(397,64,cs),
(284,64,o),
(226,226,o),
(226,369,cs),
(226,545,o),
(255,685,o),
(396,685,cs)
);
}
);
width = 781;
}
);
unicode = 79;
},
{
color = 5;
glyphname = Odieresis;
lastChange = "2025-01-09 17:04:09 +0000";
layers = (
{
background = {
shapes = (
{
closed = 1;
nodes = (
(207,761,o),
(51,624,o),
(45,369,cs),
(42,142,o),
(176,-18,o),
(379,-14,cs),
(562,-10,o),
(711,132,o),
(716,386,cs),
(720,609,o),
(592,769,o),
(393,765,cs)
);
},
{
closed = 1;
nodes = (
(547,724,o),
(638,573,o),
(638,386,cs),
(638,165,o),
(536,27,o),
(386,27,cs),
(224,27,o),
(125,176,o),
(125,369,cs),
(125,595,o),
(234,724,o),
(385,724,cs)
);
},
{
closed = 1;
nodes = (
(253,926,o),
(223,903,o),
(223,872,cs),
(223,843,o),
(246,825,o),
(271,825,cs),
(300,825,o),
(329,847,o),
(329,880,cs),
(329,905,o),
(313,926,o),
(280,926,cs)
);
},
{
closed = 1;
nodes = (
(476,926,o),
(446,902,o),
(446,871,cs),
(446,842,o),
(470,825,o),
(495,825,cs),
(523,825,o),
(552,847,o),
(552,879,cs),
(552,905,o),
(537,926,o),
(503,926,cs)
);
}
);
};
layerId = "E777F328-EA17-4AE7-9EBA-8002E537BA4F";
name = Light;
shapes = (
{
ref = O;
},
{
pos = (137,0);
ref = dieresiscomb.case;
}
);
width = 759;
},
{
background = {
shapes = (
{
closed = 1;
nodes = (
(204,760,o),
(49,616,o),
(44,367,cs),
(40,146,o),
(172,-18,o),
(378,-14,cs),
(564,-10,o),
(712,136,o),
(718,385,cs),
(722,606,o),
(596,771,o),
(393,765,cs)
);
},
{
closed = 1;
nodes = (
(533,713,o),
(612,554,o),
(612,384,cs),
(612,167,o),
(529,38,o),
(386,38,cs),
(236,38,o),
(149,198,o),
(149,368,cs),
(149,585,o),
(241,713,o),
(384,713,cs)
);
},
{
closed = 1;
nodes = (
(242,938,o),
(204,907,o),
(204,866,cs),
(204,829,o),
(233,806,o),
(265,806,cs),
(302,806,o),
(338,834,o),
(338,877,cs),
(338,910,o),
(319,938,o),
(276,938,cs)
);
},
{
closed = 1;
nodes = (
(469,938,o),
(431,907,o),
(431,866,cs),
(431,829,o),
(461,806,o),
(493,806,cs),
(529,806,o),
(566,834,o),
(566,877,cs),
(566,910,o),
(547,938,o),
(504,938,cs)
);
}
);
};
layerId = "39185045-6A8C-415A-8312-7B8F11386A4C";
name = Regular;
shapes = (
{
ref = O;
},
{
pos = (121,0);
ref = dieresiscomb.case;
}
);
width = 759;
},
{
background = {
shapes = (
{
closed = 1;
nodes = (
(503,791,o),
(482,796,o),
(465,808,cs),
(449,820,o),
(438,837,o),
(438,859,cs),
(438,882,o),
(451,901,o),
(470,916,cs),
(489,929,o),
(514,938,o),
(539,938,cs),
(571,938,o),
(593,930,o),
(606,918,cs),
(620,906,o),
(626,889,o),
(626,870,cs),
(626,845,o),
(614,826,o),
(596,812,cs),
(578,798,o),
(552,791,o),
(526,791,cs)
);
},
{
closed = 1;
nodes = (
(235,790,o),
(214,796,o),
(198,808,cs),
(182,819,o),
(172,836,o),
(172,857,cs),
(172,881,o),
(185,901,o),
(204,915,cs),
(223,929,o),
(247,938,o),
(272,938,cs),
(304,938,o),
(327,930,o),
(341,918,cs),
(356,906,o),
(362,889,o),
(362,869,cs),
(362,845,o),
(350,825,o),
(331,812,cs),
(312,798,o),
(286,790,o),
(259,790,cs)
);
},
{
closed = 1;
nodes = (
(36,450,o),
(57,521,o),
(90,581,cs),
(124,639,o),
(171,686,o),
(225,717,cs),
(278,749,o),
(339,765,o),
(401,765,cs),
(507,765,o),
(596,725,o),
(657,657,cs),
(718,589,o),
(752,495,o),
(750,386,cs),
(748,263,o),
(708,163,o),
(645,94,cs),
(580,25,o),
(492,-14,o),
(391,-14,cs),
(280,-14,o),
(189,28,o),
(127,97,cs),
(65,165,o),
(32,261,o),
(34,368,cs)
);
},
{
closed = 1;
nodes = (
(460,64,o),
(501,91,o),
(526,145,cs),
(550,198,o),
(559,278,o),
(559,385,cs),
(559,428,o),
(554,475,o),
(543,520,cs),
(533,564,o),
(515,605,o),
(491,635,cs),
(467,665,o),
(436,685,o),
(396,685,cs),
(332,685,o),
(289,656,o),
(263,603,cs),
(236,550,o),
(226,471,o),
(226,369,cs),
(226,330,o),
(230,284,o),
(242,239,cs),
(253,194,o),
(271,150,o),
(297,118,cs),
(322,86,o),
(355,64,o),
(397,64,cs)
);
}
);
};
layerId = "B26750D4-52C5-4F85-819B-BFB2F142DAD5";
name = Bold;
shapes = (
{
ref = O;
},
{
pos = (131,0);
ref = dieresiscomb.case;
}
);
width = 781;
}
);
unicode = 214;
},
{
color = 5;
glyphname = Ograve;
lastChange = "2025-01-09 17:04:09 +0000";
layers = (
{
background = {
shapes = (
{
closed = 1;
nodes = (
(207,761,o),
(51,624,o),
(45,369,cs),
(42,142,o),
(176,-18,o),
(379,-14,cs),
(562,-10,o),
(711,132,o),
(716,386,cs),
(720,609,o),
(592,769,o),
(393,765,cs)
);
},
{
closed = 1;
nodes = (
(547,724,o),
(638,573,o),
(638,386,cs),
(638,165,o),
(536,27,o),
(386,27,cs),
(224,27,o),
(125,176,o),
(125,369,cs),
(125,595,o),
(234,724,o),
(385,724,cs)
);
},
{
closed = 1;
nodes = (
(214,884,l),
(261,848,o),
(330,809,o),
(390,785,c),
(411,806,l),
(266,938,l)
);
}
);
};
layerId = "E777F328-EA17-4AE7-9EBA-8002E537BA4F";
name = Light;
shapes = (
{
ref = O;
},
{
pos = (160,0);
ref = gravecomb.case;
}
);
width = 759;
},
{
background = {
shapes = (
{
closed = 1;
nodes = (
(204,760,o),
(49,616,o),
(44,367,cs),
(40,146,o),
(172,-18,o),
(378,-14,cs),
(564,-10,o),
(712,136,o),
(718,385,cs),
(722,606,o),
(596,771,o),
(393,765,cs)
);
},
{
closed = 1;
nodes = (
(533,713,o),
(612,554,o),
(612,384,cs),
(612,167,o),
(529,38,o),
(386,38,cs),
(236,38,o),
(149,198,o),
(149,368,cs),
(149,585,o),
(241,713,o),
(384,713,cs)
);
},
{
closed = 1;
nodes = (
(196,865,l),
(257,826,o),
(330,795,o),
(391,785,c),
(417,811,l),
(268,938,l)
);
}
);
};
layerId = "39185045-6A8C-415A-8312-7B8F11386A4C";
name = Regular;
shapes = (
{
ref = O;
},
{
pos = (143,0);
ref = gravecomb.case;
}
);
width = 759;
},
{
background = {
shapes = (
{
closed = 1;
nodes = (
(287,938,l),
(469,830,l),
(420,778,l),
(417,777,o),
(410,778,o),
(399,779,cs),
(379,782,o),
(351,787,o),
(319,795,cs),
(287,802,o),
(255,813,o),
(228,825,cs),
(213,831,o),
(202,837,o),
(193,844,c)
);
},
{
closed = 1;
nodes = (
(36,450,o),
(57,521,o),
(90,581,cs),
(124,639,o),
(171,686,o),
(225,717,cs),
(278,749,o),
(339,765,o),
(401,765,cs),
(507,765,o),
(596,725,o),
(657,657,cs),
(718,589,o),
(752,495,o),
(750,386,cs),
(748,263,o),
(708,163,o),
(645,94,cs),
(580,25,o),
(492,-14,o),
(391,-14,cs),
(280,-14,o),
(189,28,o),
(127,97,cs),
(65,165,o),
(32,261,o),
(34,368,cs)
);
},
{
closed = 1;
nodes = (
(460,64,o),
(501,91,o),
(526,145,cs),
(550,198,o),
(559,278,o),
(559,385,cs),
(559,428,o),
(554,475,o),
(543,520,cs),
(533,564,o),
(515,605,o),
(491,635,cs),
(467,665,o),
(436,685,o),
(396,685,cs),
(332,685,o),
(289,656,o),
(263,603,cs),
(236,550,o),
(226,471,o),
(226,369,cs),
(226,330,o),
(230,284,o),
(242,239,cs),
(253,194,o),
(271,150,o),
(297,118,cs),
(322,86,o),
(355,64,o),
(397,64,cs)
);
}
);
};
layerId = "B26750D4-52C5-4F85-819B-BFB2F142DAD5";
name = Bold;
shapes = (
{
ref = O;
},
{
pos = (146,0);
ref = gravecomb.case;
}
);
width = 781;
}
);
unicode = 210;
},
{
color = 5;
glyphname = Ohungarumlaut;
lastChange = "2025-01-09 17:15:00 +0000";
layers = (
{
layerId = "E777F328-EA17-4AE7-9EBA-8002E537BA4F";
name = Light;
shapes = (
{
ref = O;
},
{
pos = (172,212);
ref = hungarumlautcomb;
}
);
width = 759;
},
{
layerId = "39185045-6A8C-415A-8312-7B8F11386A4C";
name = Regular;
shapes = (
{
ref = O;
},
{
pos = (132,212);
ref = hungarumlautcomb;
}
);
width = 759;
},
{
background = {
shapes = (
{
closed = 1;
nodes = (
(193,765,o),
(41,591,o),
(34,368,cs),
(30,147,o),
(174,-14,o),
(391,-14,cs),
(607,-14,o),
(746,157,o),
(750,386,cs),
(754,603,o),
(615,765,o),
(401,765,cs)
);
},
{
closed = 1;
nodes = (
(491,685,o),
(559,563,o),
(559,385,cs),
(559,200,o),
(536,64,o),
(397,64,cs),
(284,64,o),
(226,226,o),
(226,369,cs),
(226,545,o),
(255,685,o),
(396,685,cs)
);
},
{
closed = 1;
nodes = (
(325,830,l),
(374,778,l),
(438,782,o),
(567,810,o),
(611,844,c),
(517,938,l)
);
}
);
};
layerId = "B26750D4-52C5-4F85-819B-BFB2F142DAD5";
name = Bold;
shapes = (
{
ref = O;
},
{
pos = (203,212);
ref = hungarumlautcomb;
}
);
width = 781;
}
);
unicode = 336;
},
{
color = 4;
glyphname = Oslash;
lastChange = "2025-01-09 17:02:38 +0000";
layers = (
{
anchors = (
{
name = bottom;
pos = (380,0);
},
{
name = top;
pos = (380,758);
}
);
layerId = "E777F328-EA17-4AE7-9EBA-8002E537BA4F";
name = Light;
shapes = (
{
closed = 1;
nodes = (
(217,-81,l),
(252,-94,l),
(283,-2,l),
(313,-10,o),
(346,-14,o),
(379,-14,cs),
(562,-10,o),
(711,132,o),
(716,386,cs),
(719,549,o),
(652,677,o),
(538,733,c),
(565,812,l),
(532,825,l),
(505,748,l),
(470,759,o),
(433,765,o),
(393,765,cs),
(207,761,o),
(51,624,o),
(45,369,cs),
(42,195,o),
(121,61,o),
(248,9,c)
);
},
{
closed = 1;
nodes = (
(267,59,l),
(177,113,o),
(125,229,o),
(125,369,cs),
(125,595,o),
(234,724,o),
(385,724,cs),
(424,724,o),
(458,715,o),
(487,700,c)
);
},
{
closed = 1;
nodes = (
(519,681,l),
(596,624,o),
(638,512,o),
(638,386,cs),
(638,165,o),
(536,27,o),
(386,27,cs),
(355,27,o),
(327,32,o),
(301,42,c)
);
}
);
width = 759;
},
{
anchors = (
{
name = bottom;
pos = (380,0);
},
{
name = top;
pos = (380,758);
}
);
layerId = "39185045-6A8C-415A-8312-7B8F11386A4C";
name = Regular;
shapes = (
{
closed = 1;
nodes = (
(216,-81,l),
(259,-97,l),
(291,-5,l),
(318,-11,o),
(347,-14,o),
(378,-14,cs),
(564,-10,o),
(712,136,o),
(718,385,cs),
(720,542,o),
(657,672,o),
(546,731,c),
(573,810,l),
(533,827,l),
(505,749,l),
(471,760,o),
(434,767,o),
(393,765,cs),
(204,760,o),
(49,616,o),
(44,367,cs),
(40,198,o),
(118,62,o),
(247,9,c)
);
},
{
closed = 1;
nodes = (
(271,74,l),
(192,131,o),
(149,247,o),
(149,368,cs),
(149,585,o),
(241,713,o),
(384,713,cs),
(421,713,o),
(453,703,o),
(482,686,c)
);
},
{
closed = 1;
nodes = (
(519,657,l),
(580,596,o),
(612,492,o),
(612,384,cs),
(612,167,o),
(529,38,o),
(386,38,cs),
(359,38,o),
(335,42,o),
(312,52,c)
);
}
);
width = 759;
},
{
anchors = (
{
name = bottom;
pos = (391,0);
},
{
name = top;
pos = (391,758);
}
);
background = {
shapes = (
{
closed = 1;
nodes = (
(320,765,o),
(249,739,o),
(191,695,cs),
(96,624,o),
(38,505,o),
(34,368,cs),
(30,147,o),
(174,-14,o),
(391,-14,cs),
(607,-14,o),
(746,157,o),
(750,386,cs),
(754,603,o),
(615,765,o),
(401,765,cs)
);
},
{
closed = 1;
nodes = (
(491,685,o),
(559,563,o),
(559,385,cs),
(559,200,o),
(536,64,o),
(397,64,cs),
(284,64,o),
(226,226,o),
(226,369,cs),
(226,545,o),
(255,685,o),
(396,685,cs)
);
}
);
};
layerId = "B26750D4-52C5-4F85-819B-BFB2F142DAD5";
name = Bold;
shapes = (
{
closed = 1;
nodes = (
(186,-83,l),
(246,-104,l),
(290,-1,l),
(321,-9,o),
(355,-14,o),
(391,-14,cs),
(605,-14,o),
(746,155,o),
(750,386,cs),
(754,531,o),
(688,666,o),
(564,728,c),
(592,805,l),
(529,826,l),
(503,751,l),
(472,761,o),
(438,765,o),
(401,765,cs),
(193,765,o),
(40,591,o),
(34,368,cs),
(30,217,o),
(98,85,o),
(229,21,c)
);
},
{
closed = 1;
nodes = (
(281,141,l),
(245,201,o),
(226,294,o),
(226,369,cs),
(226,541,o),
(253,685,o),
(396,685,cs),
(422,685,o),
(443,677,o),
(462,663,c)
);
},
{
closed = 1;
nodes = (
(512,604,l),
(543,544,o),
(559,464,o),
(559,385,cs),
(559,203,o),
(537,64,o),
(397,64,cs),
(372,64,o),
(350,72,o),
(331,85,c)
);
}
);
width = 781;
}
);
unicode = 216;
},
{
color = 5;
glyphname = Otilde;
lastChange = "2025-01-09 17:04:09 +0000";
layers = (
{
background = {
shapes = (
{
closed = 1;
nodes = (
(207,761,o),
(51,624,o),
(45,369,cs),
(42,142,o),
(176,-18,o),
(379,-14,cs),
(562,-10,o),
(711,132,o),
(716,386,cs),
(720,609,o),
(592,769,o),
(393,765,cs)
);
},
{
closed = 1;
nodes = (
(547,724,o),
(638,573,o),
(638,386,cs),
(638,165,o),
(536,27,o),
(386,27,cs),
(224,27,o),
(125,176,o),
(125,369,cs),
(125,595,o),
(234,724,o),
(385,724,cs)
);
},
{
closed = 1;
nodes = (
(272,938,o),
(220,902,o),
(195,859,c),
(216,831,l),
(238,855,o),
(271,879,o),
(310,879,cs),
(360,879,o),
(383,807,o),
(446,807,cs),
(498,807,o),
(549,844,o),
(574,885,c),
(554,915,l),
(531,890,o),
(501,867,o),
(460,867,cs),
(411,867,o),
(387,938,o),
(325,938,cs)
);
}
);
};
layerId = "E777F328-EA17-4AE7-9EBA-8002E537BA4F";
name = Light;
shapes = (
{
ref = O;
},
{
pos = (123,0);
ref = tildecomb.case;
}
);
width = 759;
},
{
background = {
shapes = (
{
closed = 1;
nodes = (
(204,760,o),
(49,616,o),
(44,367,cs),
(40,146,o),
(172,-18,o),
(378,-14,cs),
(564,-10,o),
(712,136,o),
(718,385,cs),
(722,606,o),
(596,771,o),
(393,765,cs)
);
},
{
closed = 1;
nodes = (
(533,713,o),
(612,554,o),
(612,384,cs),
(612,167,o),
(529,38,o),
(386,38,cs),
(236,38,o),
(149,198,o),
(149,368,cs),
(149,585,o),
(241,713,o),
(384,713,cs)
);
},
{
closed = 1;
nodes = (
(275,938,o),
(216,900,o),
(191,854,c),
(217,819,l),
(236,838,o),
(273,860,o),
(307,860,cs),
(355,860,o),
(370,796,o),
(434,796,cs),
(486,796,o),
(545,834,o),
(569,880,c),
(544,916,l),
(523,895,o),
(491,876,o),
(454,876,cs),
(406,876,o),
(390,938,o),
(327,938,cs)
);
}
);
};
layerId = "39185045-6A8C-415A-8312-7B8F11386A4C";
name = Regular;
shapes = (
{
ref = O;
},
{
pos = (125,0);
ref = tildecomb.case;
}
);
width = 759;
},
{
background = {
shapes = (
{
closed = 1;
nodes = (
(190,836,l),
(201,865,o),
(228,890,o),
(257,908,cs),
(286,926,o),
(318,938,o),
(341,938,cs),
(376,938,o),
(402,925,o),
(424,913,cs),
(445,901,o),
(463,889,o),
(484,889,cs),
(519,889,o),
(543,904,o),
(565,923,c),
(608,876,l),
(597,847,o),
(572,824,o),
(544,808,cs),
(516,792,o),
(484,783,o),
(461,783,cs),
(426,783,o),
(400,795,o),
(377,808,cs),
(355,821,o),
(336,833,o),
(315,833,cs),
(286,833,o),
(256,817,o),
(233,798,c)
);
},
{
closed = 1;
nodes = (
(36,450,o),
(57,521,o),
(90,581,cs),
(124,639,o),
(171,686,o),
(225,717,cs),
(278,749,o),
(339,765,o),
(401,765,cs),
(507,765,o),
(596,725,o),
(657,657,cs),
(718,589,o),
(752,495,o),
(750,386,cs),
(748,263,o),
(708,163,o),
(645,94,cs),
(580,25,o),
(492,-14,o),
(391,-14,cs),
(280,-14,o),
(189,28,o),
(127,97,cs),
(65,165,o),
(32,261,o),
(34,368,cs)
);
},
{
closed = 1;
nodes = (
(460,64,o),
(501,91,o),
(526,145,cs),
(550,198,o),
(559,278,o),
(559,385,cs),
(559,428,o),
(554,475,o),
(543,520,cs),
(533,564,o),
(515,605,o),
(491,635,cs),
(467,665,o),
(436,685,o),
(396,685,cs),
(332,685,o),
(289,656,o),
(263,603,cs),
(236,550,o),
(226,471,o),
(226,369,cs),
(226,330,o),
(230,284,o),
(242,239,cs),
(253,194,o),
(271,150,o),
(297,118,cs),
(322,86,o),
(355,64,o),
(397,64,cs)
);
}
);
};
layerId = "B26750D4-52C5-4F85-819B-BFB2F142DAD5";
name = Bold;
shapes = (
{
ref = O;
},
{
pos = (131,0);
ref = tildecomb.case;
}
);
width = 781;
}
);
unicode = 213;
},
{
color = 4;
glyphname = OE;
lastChange = "2025-01-09 17:02:38 +0000";
layers = (
{
anchors = (
{
name = bottom;
pos = (508,0);
},
{
name = top;
pos = (508,758);
}
);
layerId = "E777F328-EA17-4AE7-9EBA-8002E537BA4F";
name = Light;
shapes = (
{
closed = 1;
nodes = (
(204,761,o),
(51,619,o),
(45,371,cs),
(42,143,o),
(176,-16,o),
(378,-14,cs),
(414,-13,o),
(446,-8,o),
(476,0,c),
(962,0,l),
(984,154,l),
(948,163,l),
(903,49,l),
(595,41,l),
(595,383,l),
(792,380,l),
(806,298,l),
(844,298,l),
(844,505,l),
(806,505,l),
(792,427,l),
(595,423,l),
(595,719,l),
(884,713,l),
(907,619,l),
(948,619,l),
(934,758,l),
(472,758,l),
(447,763,o),
(422,765,o),
(393,765,cs)
);
},
{
closed = 1;
nodes = (
(442,724,o),
(488,701,o),
(523,664,c),
(523,82,l),
(488,45,o),
(443,26,o),
(386,26,cs),
(224,26,o),
(125,178,o),
(125,371,cs),
(125,591,o),
(231,724,o),
(385,724,cs)
);
}
);
width = 1015;
},
{
anchors = (
{
name = bottom;
pos = (505,0);
},
{
name = top;
pos = (505,758);
}
);
layerId = "39185045-6A8C-415A-8312-7B8F11386A4C";
name = Regular;
shapes = (
{
closed = 1;
nodes = (
(204,760,o),
(49,616,o),
(44,367,cs),
(40,146,o),
(172,-18,o),
(378,-14,cs),
(409,-12,o),
(438,-8,o),
(467,0,c),
(959,0,l),
(981,151,l),
(934,163,l),
(885,62,l),
(611,53,l),
(611,371,l),
(791,368,l),
(806,293,l),
(855,293,l),
(855,503,l),
(806,503,l),
(791,427,l),
(611,423,l),
(611,707,l),
(869,701,l),
(892,619,l),
(945,619,l),
(931,758,l),
(469,758,l),
(444,763,o),
(419,766,o),
(393,765,cs)
);
},
{
closed = 1;
nodes = (
(438,713,o),
(481,693,o),
(517,659,c),
(517,86,l),
(481,55,o),
(438,38,o),
(386,38,cs),
(236,38,o),
(149,198,o),
(149,368,cs),
(149,585,o),
(241,713,o),
(384,713,cs)
);
}
);
width = 1010;
},
{
anchors = (
{
name = bottom;
pos = (543,0);
},
{
name = top;
pos = (543,758);
}
);
layerId = "B26750D4-52C5-4F85-819B-BFB2F142DAD5";
name = Bold;
shapes = (
{
closed = 1;
nodes = (
(193,765,o),
(40,591,o),
(34,368,cs),
(30,147,o),
(174,-14,o),
(391,-14,cs),
(426,-14,o),
(459,-9,o),
(491,0,c),
(1039,0,l),
(1065,170,l),
(978,188,l),
(916,92,l),
(693,78,l),
(693,341,l),
(820,338,l),
(842,260,l),
(920,260,l),
(920,499,l),
(842,499,l),
(820,427,l),
(693,422,l),
(693,680,l),
(874,669,l),
(919,591,l),
(1005,591,l),
(990,758,l),
(475,758,l),
(451,763,o),
(426,765,o),
(401,765,cs)
);
},
{
closed = 1;
nodes = (
(454,685,o),
(491,646,o),
(520,589,c),
(520,132,l),
(494,87,o),
(456,64,o),
(397,64,cs),
(283,64,o),
(226,226,o),
(226,369,cs),
(226,541,o),
(253,685,o),
(396,685,cs)
);
}
);
width = 1085;
}
);
unicode = 338;
},
{
color = 4;
glyphname = P;
lastChange = "2025-01-09 17:02:38 +0000";
layers = (
{
anchors = (
{
name = bottom;
pos = (317,0);
},
{
name = top;
pos = (317,758);
}
);
layerId = "E777F328-EA17-4AE7-9EBA-8002E537BA4F";
name = Light;
shapes = (
{
closed = 1;
nodes = (
(42,0,l),
(347,0,l),
(347,33,l),
(212,45,l),
(212,289,l),
(233,291,o),
(267,290,o),
(321,290,cs),
(464,289,o),
(604,378,o),
(604,537,cs),
(604,712,o),
(499,765,o),
(349,765,cs),
(284,765,o),
(214,758,o),
(175,758,cs),
(53,758,l),
(53,717,l),
(140,710,l),
(140,45,l),
(42,33,l)
);
},
{
closed = 1;
nodes = (
(212,713,l),
(241,721,o),
(288,721,o),
(319,723,cs),
(462,727,o),
(531,664,o),
(531,536,cs),
(531,383,o),
(437,331,o),
(319,329,cs),
(289,329,o),
(249,329,o),
(212,334,c)
);
}
);
width = 633;
},
{
anchors = (
{
name = bottom;
pos = (317,0);
},
{
name = top;
pos = (317,758);
}
);
layerId = "39185045-6A8C-415A-8312-7B8F11386A4C";
name = Regular;
shapes = (
{
closed = 1;
nodes = (
(42,0,l),
(360,0,l),
(360,42,l),
(229,56,l),
(229,288,l),
(250,292,o),
(279,292,o),
(328,291,cs),
(471,287,o),
(611,380,o),
(611,539,cs),
(611,714,o),
(506,765,o),
(356,765,cs),
(292,765,o),
(213,758,o),
(182,758,cs),
(54,758,l),
(54,705,l),
(134,697,l),
(134,56,l),
(42,42,l)
);
},
{
closed = 1;
nodes = (
(229,701,l),
(259,708,o),
(287,709,o),
(319,711,cs),
(444,715,o),
(514,657,o),
(514,537,cs),
(514,372,o),
(421,340,o),
(327,340,cs),
(297,340,o),
(267,340,o),
(229,346,c)
);
}
);
width = 633;
},
{
anchors = (
{
name = bottom;
pos = (334,0);
},
{
name = top;
pos = (334,758);
}
);
background = {
shapes = (
{
closed = 1;
nodes = (
(406,0,l),
(406,68,l),
(287,89,l),
(287,295,l),
(297,294,o),
(309,294,o),
(323,294,cs),
(337,294,o),
(354,294,o),
(373,294,cs),
(455,294,o),
(529,316,o),
(582,358,cs),
(634,400,o),
(667,462,o),
(667,543,cs),
(667,634,o),
(633,689,o),
(579,722,cs),
(525,755,o),
(452,765,o),
(373,765,cs),
(338,765,o),
(309,764,o),
(282,762,cs),
(254,760,o),
(229,758,o),
(206,758,cs),
(31,758,l),
(31,674,l),
(115,657,l),
(115,89,l),
(29,68,l),
(29,0,l)
);
},
{
closed = 1;
nodes = (
(357,377,o),
(342,377,o),
(327,378,cs),
(312,378,o),
(296,380,o),
(287,382,c),
(287,679,l),
(291,681,o),
(303,683,o),
(316,684,cs),
(330,685,o),
(344,686,o),
(352,686,cs),
(393,685,o),
(428,674,o),
(454,653,cs),
(480,631,o),
(496,598,o),
(496,552,cs),
(496,486,o),
(481,442,o),
(458,415,cs),
(435,388,o),
(403,377,o),
(369,377,cs)
);
}
);
};
layerId = "B26750D4-52C5-4F85-819B-BFB2F142DAD5";
name = Bold;
shapes = (
{
closed = 1;
nodes = (
(29,0,l),
(406,0,l),
(406,68,l),
(287,89,l),
(287,295,l),
(315,294,o),
(336,294,o),
(373,294,cs),
(541,294,o),
(667,384,o),
(667,543,cs),
(667,709,o),
(554,765,o),
(373,765,cs),
(306,765,o),
(257,758,o),
(206,758,cs),
(31,758,l),
(31,674,l),
(115,657,l),
(115,89,l),
(29,68,l)
);
},
{
closed = 1;
nodes = (
(287,679,l),
(294,682,o),
(324,686,o),
(352,686,cs),
(435,686,o),
(496,640,o),
(496,552,cs),
(496,452,o),
(460,377,o),
(369,377,cs),
(348,377,o),
(305,378,o),
(287,382,c)
);
}
);
width = 668;
}
);
unicode = 80;
},
{
glyphname = Thorn;
lastChange = "2014-11-13 18:01:19 +0000";
layers = (
{
layerId = "E777F328-EA17-4AE7-9EBA-8002E537BA4F";
name = Light;
shapes = (
{
closed = 1;
nodes = (
(42,0,l),
(347,0,l),
(347,33,l),
(212,45,l),
(212,162,l),
(233,162,o),
(267,159,o),
(321,159,cs),
(464,157,o),
(604,239,o),
(604,398,cs),
(604,550,o),
(495,612,o),
(345,612,cs),
(298,612,o),
(250,603,o),
(212,599,c),
(212,714,l),
(295,721,l),
(295,758,l),
(60,758,l),
(60,721,l),
(140,714,l),
(140,45,l),
(42,33,l)
);
},
{
closed = 1;
nodes = (
(212,555,l),
(241,563,o),
(284,568,o),
(315,570,cs),
(458,575,o),
(531,511,o),
(531,397,cs),
(531,251,o),
(435,199,o),
(319,197,cs),
(289,197,o),
(249,198,o),
(212,204,c)
);
}
);
width = 633;
},
{
layerId = "39185045-6A8C-415A-8312-7B8F11386A4C";
name = Regular;
shapes = (
{
closed = 1;
nodes = (
(42,0,l),
(360,0,l),
(360,42,l),
(229,56,l),
(229,161,l),
(250,160,o),
(279,160,o),
(328,159,cs),
(471,155,o),
(611,243,o),
(611,402,cs),
(611,543,o),
(506,612,o),
(356,612,cs),
(313,612,o),
(267,605,o),
(229,601,c),
(229,702,l),
(314,710,l),
(314,758,l),
(49,758,l),
(49,710,l),
(134,702,l),
(134,56,l),
(42,42,l)
);
},
{
closed = 1;
nodes = (
(229,544,l),
(259,551,o),
(287,557,o),
(319,558,cs),
(444,563,o),
(514,500,o),
(514,400,cs),
(514,245,o),
(420,208,o),
(327,208,cs),
(297,208,o),
(267,208,o),
(229,214,c)
);
}
);
width = 633;
},
{
layerId = "B26750D4-52C5-4F85-819B-BFB2F142DAD5";
name = Bold;
shapes = (
{
closed = 1;
nodes = (
(35,0,l),
(412,0,l),
(412,68,l),
(288,89,l),
(288,156,l),
(307,154,o),
(344,152,o),
(381,152,cs),
(551,152,o),
(671,231,o),
(671,400,cs),
(671,547,o),
(564,600,o),
(396,600,cs),
(361,600,o),
(323,595,o),
(288,591,c),
(288,666,l),
(385,678,l),
(385,758,l),
(11,758,l),
(11,678,l),
(115,666,l),
(115,89,l),
(35,68,l)
);
},
{
closed = 1;
nodes = (
(288,513,l),
(292,514,o),
(327,516,o),
(342,516,cs),
(433,516,o),
(491,476,o),
(491,389,cs),
(491,299,o),
(443,232,o),
(359,232,cs),
(339,232,o),
(298,233,o),
(288,236,c)
);
}
);
width = 673;
}
);
unicode = 222;
},
{
glyphname = Q;
lastChange = "2014-11-13 18:04:15 +0000";
layers = (
{
background = {
shapes = (
{
closed = 1;
nodes = (
(40,142,o),
(175,-18,o),
(377,-14,c),
(395,-13,l),
(424,-130,o),
(504,-173,o),
(596,-173,cs),
(651,-173,o),
(697,-157,o),
(708,-139,c),
(701,-91,l),
(684,-104,o),
(653,-111,o),
(620,-111,cs),
(545,-111,o),
(462,-82,o),
(438,-7,c),
(591,24,o),
(710,161,o),
(714,386,cs),
(718,609,o),
(591,769,o),
(391,765,cs),
(205,761,o),
(50,624,o),
(44,369,cs)
);
},
{
closed = 1;
nodes = (
(223,27,o),
(123,176,o),
(123,369,cs),
(123,595,o),
(233,724,o),
(384,724,cs),
(545,724,o),
(636,573,o),
(636,386,cs),
(636,165,o),
(534,27,o),
(385,27,cs)
);
}
);
};
layerId = "E777F328-EA17-4AE7-9EBA-8002E537BA4F";
name = Light;
shapes = (
{
closed = 1;
nodes = (
(320,765,o),
(246,741,o),
(187,695,cs),
(101,629,o),
(44,516,o),
(44,359,cs),
(44,137,o),
(178,-18,o),
(377,-14,c),
(395,-14,l),
(424,-131,o),
(504,-173,o),
(596,-173,cs),
(651,-173,o),
(697,-157,o),
(708,-139,c),
(701,-91,l),
(684,-104,o),
(653,-111,o),
(620,-111,cs),
(545,-111,o),
(462,-82,o),
(438,-7,c),
(594,25,o),
(714,166,o),
(714,396,cs),
(714,611,o),
(591,765,o),
(398,765,cs)
);
},
{
closed = 1;
nodes = (
(545,724,o),
(636,573,o),
(636,386,cs),
(636,165,o),
(534,27,o),
(385,27,cs),
(223,27,o),
(123,176,o),
(123,369,cs),
(123,595,o),
(233,724,o),
(384,724,cs)
);
}
);
width = 759;
},
{
background = {
shapes = (
{
closed = 1;
nodes = (
(233,723,cs),
(124,664,o),
(44,536,o),
(44,357,cs),
(44,144,o),
(172,-14,o),
(371,-14,cs),
(560,-14,o),
(712,133,o),
(718,385,cs),
(722,602,o),
(600,765,o),
(404,765,cs),
(354,765,o),
(294,756,o)
);
},
{
closed = 1;
nodes = (
(386,38,cs),
(236,38,o),
(149,198,o),
(149,368,cs),
(149,585,o),
(241,713,o),
(384,713,cs),
(533,713,o),
(612,554,o),
(612,384,cs),
(612,167,o),
(529,38,o)
);
}
);
};
layerId = "39185045-6A8C-415A-8312-7B8F11386A4C";
name = Regular;
shapes = (
{
closed = 1;
nodes = (
(354,765,o),
(294,756,o),
(233,723,cs),
(124,664,o),
(44,536,o),
(44,357,c),
(40,149,o),
(172,-14,o),
(378,-14,c),
(389,-14,l),
(422,-143,o),
(510,-174,o),
(604,-174,cs),
(659,-174,o),
(700,-156,o),
(713,-137,c),
(704,-77,l),
(687,-88,o),
(660,-93,o),
(636,-93,cs),
(570,-93,o),
(475,-83,o),
(443,-6,c),
(597,27,o),
(714,166,o),
(718,385,cs),
(722,602,o),
(600,765,o),
(404,765,c)
);
},
{
closed = 1;
nodes = (
(533,713,o),
(612,554,o),
(612,384,cs),
(612,167,o),
(529,38,o),
(386,38,cs),
(236,38,o),
(149,198,o),
(149,368,c),
(149,585,o),
(241,713,o),
(384,713,c)
);
}
);
width = 759;
},
{
background = {
shapes = (
{
closed = 1;
nodes = (
(36,450,o),
(57,521,o),
(90,581,cs),
(124,639,o),
(171,686,o),
(225,717,cs),
(278,749,o),
(339,765,o),
(401,765,cs),
(507,765,o),
(596,725,o),
(657,657,cs),
(718,589,o),
(752,495,o),
(750,386,cs),
(748,282,o),
(720,195,o),
(673,129,cs),
(625,63,o),
(560,18,o),
(482,-2,c),
(495,-30,o),
(515,-45,o),
(537,-54,cs),
(559,-63,o),
(583,-65,o),
(604,-64,cs),
(614,-63,o),
(623,-63,o),
(631,-62,c),
(640,-61,o),
(646,-60,o),
(650,-60,cs),
(667,-57,o),
(684,-53,o),
(697,-49,cs),
(704,-47,o),
(709,-45,o),
(714,-44,cs),
(719,-42,o),
(723,-41,o),
(726,-40,c),
(726,-147,l),
(714,-159,o),
(697,-169,o),
(674,-177,cs),
(650,-186,o),
(619,-191,o),
(582,-191,cs),
(547,-191,o),
(509,-183,o),
(476,-157,cs),
(442,-131,o),
(415,-86,o),
(400,-13,c),
(399,-13,o),
(397,-13,o),
(396,-13,c),
(394,-14,o),
(392,-14,o),
(391,-14,cs),
(280,-14,o),
(189,28,o),
(127,97,cs),
(65,165,o),
(32,261,o),
(34,368,cs)
);
},
{
closed = 1;
nodes = (
(460,64,o),
(501,91,o),
(526,145,cs),
(550,198,o),
(559,278,o),
(559,385,cs),
(559,428,o),
(554,475,o),
(543,520,cs),
(533,564,o),
(515,605,o),
(491,635,cs),
(467,665,o),
(436,685,o),
(396,685,cs),
(332,685,o),
(289,656,o),
(263,603,cs),
(236,550,o),
(226,471,o),
(226,369,cs),
(226,330,o),
(230,284,o),
(242,239,cs),
(253,194,o),
(271,150,o),
(297,118,cs),
(322,86,o),
(355,64,o),
(397,64,cs)
);
}
);
};
layerId = "B26750D4-52C5-4F85-819B-BFB2F142DAD5";
name = Bold;
shapes = (
{
closed = 1;
nodes = (
(339,765,o),
(278,749,o),
(225,717,cs),
(103,647,o),
(34,513,o),
(34,359,cs),
(34,143,o),
(177,-14,o),
(391,-14,c),
(400,-14,l),
(422,-123,o),
(477,-191,o),
(582,-191,cs),
(631,-191,o),
(693,-180,o),
(726,-147,c),
(726,-40,l),
(690,-52,o),
(645,-64,o),
(597,-64,cs),
(548,-64,o),
(504,-49,o),
(482,-2,c),
(654,42,o),
(750,199,o),
(750,395,cs),
(750,605,o),
(614,765,o),
(401,765,cs)
);
},
{
closed = 1;
nodes = (
(508,685,o),
(559,527,o),
(559,385,cs),
(559,203,o),
(537,64,o),
(397,64,cs),
(283,64,o),
(226,226,o),
(226,369,cs),
(226,541,o),
(253,685,o),
(396,685,cs)
);
}
);
width = 781;
}
);
unicode = 81;
},
{
color = 4;
glyphname = R;
lastChange = "2025-01-09 17:02:38 +0000";
layers = (
{
anchors = (
{
name = bottom;
pos = (347,0);
},
{
name = top;
pos = (347,758);
}
);
background = {
shapes = (
{
closed = 1;
nodes = (
(262,765,o),
(210,759,o),
(177,758,cs),
(53,758,l),
(53,717,l),
(140,710,l),
(140,45,l),
(42,33,l),
(42,0,l),
(318,0,l),
(318,33,l),
(212,44,l),
(212,335,l),
(250,335,o),
(287,335,o),
(322,336,c),
(320,335,l),
(430,343,o),
(528,0,o),
(572,0,cs),
(697,0,l),
(697,33,l),
(638,44,ls),
(592,52,o),
(503,318,o),
(410,347,c),
(409,347,o),
(408,348,o),
(408,348,c),
(512,377,o),
(580,459,o),
(580,561,cs),
(580,718,o),
(475,765,o),
(327,765,cs)
);
},
{
closed = 1;
nodes = (
(453,729,o),
(504,664,o),
(504,552,cs),
(504,444,o),
(443,377,o),
(325,375,cs),
(300,375,o),
(235,377,o),
(212,379,c),
(212,716,l),
(238,724,o),
(282,723,o),
(313,724,cs)
);
}
);
};
layerId = "E777F328-EA17-4AE7-9EBA-8002E537BA4F";
name = Light;
shapes = (
{
closed = 1;
nodes = (
(262,765,o),
(210,759,o),
(177,758,cs),
(53,758,l),
(53,717,l),
(140,710,l),
(140,45,l),
(42,33,l),
(42,0,l),
(318,0,l),
(318,33,l),
(212,44,l),
(212,335,l),
(252,335,o),
(285,335,o),
(320,335,c),
(430,343,o),
(528,0,o),
(572,0,cs),
(697,0,l),
(697,33,l),
(638,44,ls),
(592,52,o),
(504,318,o),
(411,347,c),
(411,347,o),
(408,348,o),
(408,348,c),
(512,377,o),
(580,459,o),
(580,561,cs),
(580,718,o),
(475,765,o),
(327,765,cs)
);
},
{
closed = 1;
nodes = (
(453,729,o),
(504,664,o),
(504,552,cs),
(504,444,o),
(443,377,o),
(325,375,cs),
(300,375,o),
(235,377,o),
(212,379,c),
(212,716,l),
(238,724,o),
(282,723,o),
(313,724,cs)
);
}
);
width = 693;
},
{
anchors = (
{
name = bottom;
pos = (347,0);
},
{
name = top;
pos = (347,758);
}
);
layerId = "39185045-6A8C-415A-8312-7B8F11386A4C";
name = Regular;
shapes = (
{
closed = 1;
nodes = (
(264,765,o),
(213,758,o),
(182,758,cs),
(54,758,l),
(54,705,l),
(134,697,l),
(134,56,l),
(42,42,l),
(42,0,l),
(331,0,l),
(331,42,l),
(229,56,l),
(229,328,l),
(259,328,o),
(285,328,o),
(308,329,cs),
(421,340,o),
(509,0,o),
(559,0,cs),
(700,0,l),
(700,42,l),
(647,56,ls),
(597,70,o),
(524,298,o),
(432,344,c),
(429,345,o),
(425,347,o),
(422,348,c),
(519,381,o),
(585,461,o),
(585,563,cs),
(585,721,o),
(479,765,o),
(329,765,cs)
);
},
{
closed = 1;
nodes = (
(446,718,o),
(486,651,o),
(486,552,cs),
(486,431,o),
(420,380,o),
(316,380,cs),
(295,380,o),
(245,381,o),
(229,383,c),
(229,705,l),
(254,712,o),
(284,711,o),
(316,713,cs)
);
}
);
width = 693;
},
{
anchors = (
{
name = bottom;
pos = (373,0);
},
{
name = top;
pos = (373,758);
}
);
background = {
shapes = (
{
closed = 1;
nodes = (
(381,0,l),
(381,68,l),
(288,87,l),
(288,314,l),
(297,315,o),
(306,315,o),
(316,315,c),
(326,314,o),
(336,314,o),
(347,315,c),
(368,315,o),
(387,295,o),
(405,266,cs),
(422,236,o),
(439,197,o),
(455,158,cs),
(470,118,o),
(486,79,o),
(501,49,cs),
(517,20,o),
(532,0,o),
(548,0,cs),
(754,0,l),
(754,68,l),
(691,86,l),
(681,92,o),
(671,101,o),
(662,113,cs),
(643,138,o),
(624,171,o),
(604,208,cs),
(594,226,o),
(583,243,o),
(573,260,cs),
(551,293,o),
(528,323,o),
(501,337,c),
(614,376,o),
(666,451,o),
(666,567,cs),
(666,639,o),
(634,688,o),
(581,720,cs),
(528,751,o),
(455,765,o),
(371,765,cs),
(346,765,o),
(314,764,o),
(276,762,cs),
(238,759,o),
(195,758,o),
(149,758,cs),
(39,758,l),
(39,674,l),
(115,662,l),
(115,89,l),
(30,68,l),
(30,0,l)
);
},
{
closed = 1;
nodes = (
(320,391,o),
(303,393,o),
(288,395,c),
(288,679,l),
(291,681,o),
(294,682,o),
(299,683,c),
(309,684,o),
(320,685,o),
(332,685,cs),
(337,685,o),
(342,685,o),
(347,685,cs),
(404,685,o),
(442,667,o),
(466,641,cs),
(489,615,o),
(499,581,o),
(499,549,cs),
(499,488,o),
(482,451,o),
(461,428,cs),
(439,405,o),
(412,397,o),
(390,394,cs),
(374,392,o),
(356,391,o),
(338,391,cs)
);
}
);
};
layerId = "B26750D4-52C5-4F85-819B-BFB2F142DAD5";
name = Bold;
shapes = (
{
closed = 1;
nodes = (
(315,765,o),
(226,758,o),
(149,758,cs),
(39,758,l),
(39,674,l),
(115,662,l),
(115,89,l),
(30,68,l),
(30,0,l),
(381,0,l),
(381,68,l),
(288,87,l),
(288,314,l),
(301,314,o),
(314,314,o),
(347,315,c),
(431,315,o),
(479,0,o),
(548,0,cs),
(754,0,l),
(754,68,l),
(691,86,l),
(646,107,o),
(595,253,o),
(527,318,cs),
(519,326,o),
(509,332,o),
(501,337,c),
(614,376,o),
(666,451,o),
(666,567,cs),
(666,711,o),
(536,765,o),
(371,765,cs)
);
},
{
closed = 1;
nodes = (
(439,685,o),
(499,634.267,o),
(499,549,cs),
(499,434,o),
(449,391,o),
(338,391,cs),
(320,391,o),
(303,393,o),
(288,395,c),
(288,679,l),
(297,685,o),
(320,685,o),
(347,685,cs)
);
}
);
width = 745;
}
);
unicode = 82;
},
{
color = 5;
glyphname = Racute;
lastChange = "2025-01-09 17:04:09 +0000";
layers = (
{
background = {
shapes = (
{
closed = 1;
nodes = (
(333,785,l),
(392,809,o),
(462,848,o),
(508,884,c),
(457,938,l),
(312,806,l)
);
},
{
closed = 1;
nodes = (
(262,765,o),
(210,759,o),
(177,758,cs),
(53,758,l),
(53,717,l),
(140,710,l),
(140,45,l),
(42,33,l),
(42,0,l),
(318,0,l),
(318,33,l),
(212,44,l),
(212,335,l),
(252,335,o),
(285,335,o),
(320,335,c),
(430,343,o),
(528,0,o),
(572,0,cs),
(697,0,l),
(697,33,l),
(638,44,ls),
(592,52,o),
(503,318,o),
(410,347,c),
(408,348,l),
(512,377,o),
(580,459,o),
(580,561,cs),
(580,718,o),
(475,765,o),
(327,765,cs)
);
},
{
closed = 1;
nodes = (
(453,729,o),
(504,664,o),
(504,552,cs),
(504,444,o),
(443,377,o),
(325,375,cs),
(300,375,o),
(235,377,o),
(212,379,c),
(212,716,l),
(238,724,o),
(282,723,o),
(313,724,cs)
);
}
);
};
layerId = "E777F328-EA17-4AE7-9EBA-8002E537BA4F";
name = Light;
shapes = (
{
ref = R;
},
{
pos = (89,0);
ref = acutecomb.case;
}
);
width = 693;
},
{
background = {
shapes = (
{
closed = 1;
nodes = (
(336,785,l),
(396,795,o),
(470,826,o),
(531,865,c),
(459,938,l),
(310,811,l)
);
},
{
closed = 1;
nodes = (
(264,765,o),
(213,758,o),
(182,758,cs),
(54,758,l),
(54,705,l),
(134,697,l),
(134,56,l),
(42,42,l),
(42,0,l),
(331,0,l),
(331,42,l),
(229,56,l),
(229,328,l),
(259,328,o),
(285,328,o),
(308,329,cs),
(421,340,o),
(509,0,o),
(559,0,cs),
(700,0,l),
(700,42,l),
(647,56,ls),
(597,70,o),
(524,298,o),
(432,344,c),
(422,348,l),
(519,381,o),
(585,461,o),
(585,563,cs),
(585,721,o),
(479,765,o),
(329,765,cs)
);
},
{
closed = 1;
nodes = (
(446,718,o),
(486,651,o),
(486,552,cs),
(486,431,o),
(420,380,o),
(316,380,cs),
(295,380,o),
(245,381,o),
(229,383,c),
(229,705,l),
(254,712,o),
(284,711,o),
(316,713,cs)
);
}
);
};
layerId = "39185045-6A8C-415A-8312-7B8F11386A4C";
name = Regular;
shapes = (
{
ref = R;
},
{
pos = (60,0);
ref = acutecomb.case;
}
);
width = 693;
},
{
background = {
shapes = (
{
closed = 1;
nodes = (
(284,830,l),
(476,938,l),
(570,844,l),
(552,830,o),
(521,818,o),
(489,808,cs),
(456,798,o),
(421,791,o),
(392,785,cs),
(377,783,o),
(365,781,o),
(354,779,cs),
(344,778,o),
(336,777,o),
(333,778,c)
);
},
{
closed = 1;
nodes = (
(30,68,l),
(115,89,l),
(115,662,l),
(39,674,l),
(39,758,l),
(149,758,ls),
(195,758,o),
(238,759,o),
(276,762,cs),
(314,764,o),
(346,765,o),
(371,765,cs),
(455,765,o),
(528,751,o),
(581,720,cs),
(634,688,o),
(666,639,o),
(666,567,cs),
(666,451,o),
(614,376,o),
(501,337,c),
(528,323,o),
(551,293,o),
(573,260,cs),
(583,243,o),
(594,226,o),
(604,208,cs),
(624,171,o),
(643,138,o),
(662,113,cs),
(671,101,o),
(681,92,o),
(691,86,c),
(754,68,l),
(754,0,l),
(548,0,ls),
(532,0,o),
(517,20,o),
(501,49,cs),
(486,79,o),
(470,118,o),
(455,158,cs),
(439,197,o),
(422,236,o),
(405,266,cs),
(387,295,o),
(368,315,o),
(347,315,c),
(336,314,o),
(326,314,o),
(316,315,c),
(306,315,o),
(297,315,o),
(288,314,c),
(288,87,l),
(381,68,l),
(381,0,l),
(30,0,l)
);
},
{
closed = 1;
nodes = (
(288,395,l),
(303,393,o),
(320,391,o),
(338,391,cs),
(356,391,o),
(374,392,o),
(390,394,cs),
(412,397,o),
(439,405,o),
(461,428,cs),
(482,451,o),
(499,488,o),
(499,549,cs),
(499,581,o),
(489,615,o),
(466,641,cs),
(442,667,o),
(404,685,o),
(347,685,cs),
(342,685,o),
(337,685,o),
(332,685,cs),
(320,685,o),
(309,684,o),
(299,683,c),
(294,682,o),
(291,681,o),
(288,679,c)
);
}
);
};
layerId = "B26750D4-52C5-4F85-819B-BFB2F142DAD5";
name = Bold;
shapes = (
{
ref = R;
},
{
pos = (201,0);
ref = acutecomb.case;
}
);
width = 745;
}
);
unicode = 340;
},
{
color = 5;
glyphname = Rcaron;
lastChange = "2025-01-09 17:04:09 +0000";
layers = (
{
background = {
shapes = (
{
closed = 1;
nodes = (
(336,848,l),
(207,938,l),
(174,917,l),
(302,796,l),
(371,796,l),
(497,918,l),
(468,938,l)
);
},
{
closed = 1;
nodes = (
(262,765,o),
(210,759,o),
(177,758,cs),
(53,758,l),
(53,717,l),
(140,710,l),
(140,45,l),
(42,33,l),
(42,0,l),
(318,0,l),
(318,33,l),
(212,44,l),
(212,335,l),
(252,335,o),
(285,335,o),
(320,335,c),
(430,343,o),
(528,0,o),
(572,0,cs),
(697,0,l),
(697,33,l),
(638,44,ls),
(592,52,o),
(503,318,o),
(410,347,c),
(408,348,l),
(512,377,o),
(580,459,o),
(580,561,cs),
(580,718,o),
(475,765,o),
(327,765,cs)
);
},
{
closed = 1;
nodes = (
(453,729,o),
(504,664,o),
(504,552,cs),
(504,444,o),
(443,377,o),
(325,375,cs),
(300,375,o),
(235,377,o),
(212,379,c),
(212,716,l),
(238,724,o),
(282,723,o),
(313,724,cs)
);
}
);
};
layerId = "E777F328-EA17-4AE7-9EBA-8002E537BA4F";
name = Light;
shapes = (
{
ref = R;
},
{
pos = (114,0);
ref = caroncomb.case;
}
);
width = 693;
},
{
background = {
shapes = (
{
closed = 1;
nodes = (
(342,855,l),
(223,938,l),
(180,914,l),
(296,789,l),
(388,789,l),
(502,915,l),
(464,938,l)
);
},
{
closed = 1;
nodes = (
(264,765,o),
(213,758,o),
(182,758,cs),
(54,758,l),
(54,705,l),
(134,697,l),
(134,56,l),
(42,42,l),
(42,0,l),
(331,0,l),
(331,42,l),
(229,56,l),
(229,328,l),
(259,328,o),
(285,328,o),
(308,329,cs),
(421,340,o),
(509,0,o),
(559,0,cs),
(700,0,l),
(700,42,l),
(647,56,ls),
(597,70,o),
(524,298,o),
(432,344,c),
(422,348,l),
(519,381,o),
(585,461,o),
(585,563,cs),
(585,721,o),
(479,765,o),
(329,765,cs)
);
},
{
closed = 1;
nodes = (
(446,718,o),
(486,651,o),
(486,552,cs),
(486,431,o),
(420,380,o),
(316,380,cs),
(295,380,o),
(245,381,o),
(229,383,c),
(229,705,l),
(254,712,o),
(284,711,o),
(316,713,cs)
);
}
);
};
layerId = "39185045-6A8C-415A-8312-7B8F11386A4C";
name = Regular;
shapes = (
{
ref = R;
},
{
pos = (86,0);
ref = caroncomb.case;
}
);
width = 693;
},
{
background = {
shapes = (
{
closed = 1;
nodes = (
(163,902,l),
(218,938,l),
(355,875,l),
(498,938,l),
(552,902,l),
(413,780,l),
(300,780,l)
);
},
{
closed = 1;
nodes = (
(30,68,l),
(115,89,l),
(115,662,l),
(39,674,l),
(39,758,l),
(149,758,ls),
(195,758,o),
(238,759,o),
(276,762,cs),
(314,764,o),
(346,765,o),
(371,765,cs),
(455,765,o),
(528,751,o),
(581,720,cs),
(634,688,o),
(666,639,o),
(666,567,cs),
(666,451,o),
(614,376,o),
(501,337,c),
(528,323,o),
(551,293,o),
(573,260,cs),
(583,243,o),
(594,226,o),
(604,208,cs),
(624,171,o),
(643,138,o),
(662,113,cs),
(671,101,o),
(681,92,o),
(691,86,c),
(754,68,l),
(754,0,l),
(548,0,ls),
(532,0,o),
(517,20,o),
(501,49,cs),
(486,79,o),
(470,118,o),
(455,158,cs),
(439,197,o),
(422,236,o),
(405,266,cs),
(387,295,o),
(368,315,o),
(347,315,c),
(336,314,o),
(326,314,o),
(316,315,c),
(306,315,o),
(297,315,o),
(288,314,c),
(288,87,l),
(381,68,l),
(381,0,l),
(30,0,l)
);
},
{
closed = 1;
nodes = (
(288,395,l),
(303,393,o),
(320,391,o),
(338,391,cs),
(356,391,o),
(374,392,o),
(390,394,cs),
(412,397,o),
(439,405,o),
(461,428,cs),
(482,451,o),
(499,488,o),
(499,549,cs),
(499,581,o),
(489,615,o),
(466,641,cs),
(442,667,o),
(404,685,o),
(347,685,cs),
(342,685,o),
(337,685,o),
(332,685,cs),
(320,685,o),
(309,684,o),
(299,683,c),
(294,682,o),
(291,681,o),
(288,679,c)
);
}
);
};
layerId = "B26750D4-52C5-4F85-819B-BFB2F142DAD5";
name = Bold;
shapes = (
{
ref = R;
},
{
pos = (114,0);
ref = caroncomb.case;
}
);
width = 745;
}
);
unicode = 344;
},
{
color = 5;
glyphname = Rcommaaccent;
lastChange = "2025-01-09 17:04:09 +0000";
layers = (
{
background = {
shapes = (
{
closed = 1;
nodes = (
(329,-73,l),
(329,-94,l),
(352,-94,o),
(387,-120,o),
(387,-163,cs),
(387,-212,o),
(367,-265,o),
(328,-281,c),
(328,-294,l),
(348,-313,l),
(396,-295,o),
(463,-229,o),
(462,-147,cs),
(460,-101,o),
(427,-48,o),
(364,-36,c)
);
},
{
closed = 1;
nodes = (
(262,765,o),
(210,759,o),
(177,758,cs),
(53,758,l),
(53,717,l),
(140,710,l),
(140,45,l),
(42,33,l),
(42,0,l),
(318,0,l),
(318,33,l),
(212,44,l),
(212,335,l),
(252,335,o),
(285,335,o),
(320,335,c),
(430,343,o),
(528,0,o),
(572,0,cs),
(697,0,l),
(697,33,l),
(638,44,ls),
(592,52,o),
(503,318,o),
(410,347,c),
(408,348,l),
(512,377,o),
(580,459,o),
(580,561,cs),
(580,718,o),
(475,765,o),
(327,765,cs)
);
},
{
closed = 1;
nodes = (
(453,729,o),
(504,664,o),
(504,552,cs),
(504,444,o),
(443,377,o),
(325,375,cs),
(300,375,o),
(235,377,o),
(212,379,c),
(212,716,l),
(238,724,o),
(282,723,o),
(313,724,cs)
);
}
);
};
layerId = "E777F328-EA17-4AE7-9EBA-8002E537BA4F";
name = Light;
shapes = (
{
ref = R;
},
{
pos = (145,0);
ref = commaaccent;
}
);
width = 693;
},
{
background = {
shapes = (
{
closed = 1;
nodes = (
(321,-71,l),
(321,-97,l),
(339,-97,o),
(371,-126,o),
(371,-164,cs),
(371,-207,o),
(359,-258,o),
(322,-275,c),
(322,-288,l),
(349,-313,l),
(393,-301,o),
(471,-233,o),
(471,-144,cs),
(471,-96,o),
(439,-38,o),
(371,-20,c)
);
},
{
closed = 1;
nodes = (
(264,765,o),
(213,758,o),
(182,758,cs),
(54,758,l),
(54,705,l),
(134,697,l),
(134,56,l),
(42,42,l),
(42,0,l),
(331,0,l),
(331,42,l),
(229,56,l),
(229,328,l),
(259,328,o),
(285,328,o),
(308,329,cs),
(421,340,o),
(509,0,o),
(559,0,cs),
(700,0,l),
(700,42,l),
(647,56,ls),
(597,70,o),
(524,298,o),
(432,344,c),
(422,348,l),
(519,381,o),
(585,461,o),
(585,563,cs),
(585,721,o),
(479,765,o),
(329,765,cs)
);
},
{
closed = 1;
nodes = (
(446,718,o),
(486,651,o),
(486,552,cs),
(486,431,o),
(420,380,o),
(316,380,cs),
(295,380,o),
(245,381,o),
(229,383,c),
(229,705,l),
(254,712,o),
(284,711,o),
(316,713,cs)
);
}
);
};
layerId = "39185045-6A8C-415A-8312-7B8F11386A4C";
name = Regular;
shapes = (
{
ref = R;
},
{
pos = (138,0);
ref = commaaccent;
}
);
width = 693;
},
{
background = {
shapes = (
{
closed = 1;
nodes = (
(30,68,l),
(115,89,l),
(115,662,l),
(39,674,l),
(39,758,l),
(149,758,ls),
(195,758,o),
(238,759,o),
(276,762,cs),
(314,764,o),
(346,765,o),
(371,765,cs),
(455,765,o),
(528,751,o),
(581,720,cs),
(634,688,o),
(666,639,o),
(666,567,cs),
(666,451,o),
(614,376,o),
(501,337,c),
(528,323,o),
(551,293,o),
(573,260,cs),
(583,243,o),
(594,226,o),
(604,208,cs),
(624,171,o),
(643,138,o),
(662,113,cs),
(671,101,o),
(681,92,o),
(691,86,c),
(754,68,l),
(754,0,l),
(548,0,ls),
(532,0,o),
(517,20,o),
(501,49,cs),
(486,79,o),
(470,118,o),
(455,158,cs),
(439,197,o),
(422,236,o),
(405,266,cs),
(387,295,o),
(368,315,o),
(347,315,c),
(336,314,o),
(326,314,o),
(316,315,c),
(306,315,o),
(297,315,o),
(288,314,c),
(288,87,l),
(381,68,l),
(381,0,l),
(30,0,l)
);
},
{
closed = 1;
nodes = (
(288,395,l),
(303,393,o),
(320,391,o),
(338,391,cs),
(356,391,o),
(374,392,o),
(390,394,cs),
(412,397,o),
(439,405,o),
(461,428,cs),
(482,451,o),
(499,488,o),
(499,549,cs),
(499,581,o),
(489,615,o),
(466,641,cs),
(442,667,o),
(404,685,o),
(347,685,cs),
(342,685,o),
(337,685,o),
(332,685,cs),
(320,685,o),
(309,684,o),
(299,683,c),
(294,682,o),
(291,681,o),
(288,679,c)
);
},
{
closed = 1;
nodes = (
(407,-20,l),
(441,-20,o),
(474,-32,o),
(497,-56,cs),
(521,-80,o),
(536,-114,o),
(536,-157,cs),
(536,-185,o),
(526,-210,o),
(513,-231,cs),
(499,-253,o),
(479,-272,o),
(461,-286,cs),
(443,-299,o),
(425,-309,o),
(412,-313,c),
(349,-288,l),
(349,-277,l),
(353,-273,o),
(358,-269,o),
(363,-264,cs),
(374,-255,o),
(384,-244,o),
(391,-229,cs),
(395,-221,o),
(396,-212,o),
(396,-202,cs),
(396,-185,o),
(389,-168,o),
(378,-156,cs),
(367,-145,o),
(351,-137,o),
(335,-137,c),
(335,-99,l)
);
}
);
};
layerId = "B26750D4-52C5-4F85-819B-BFB2F142DAD5";
name = Bold;
shapes = (
{
ref = R;
},
{
pos = (198,0);
ref = commaaccent;
}
);
width = 745;
}
);
unicode = 342;
},
{
color = 4;
glyphname = S;
lastChange = "2025-01-09 17:12:02 +0000";
layers = (
{
anchors = (
{
name = bottom;
pos = (300,0);
},
{
name = top;
pos = (300,758);
}
);
layerId = "E777F328-EA17-4AE7-9EBA-8002E537BA4F";
name = Light;
shapes = (
{
closed = 1;
nodes = (
(435,-11,o),
(550,49,o),
(550,192,cs),
(550,307,o),
(434,364,o),
(327,415,cs),
(234,459,o),
(147,503,o),
(147,586,cs),
(147,689,o),
(240,727,o),
(311,727,cs),
(363,727,o),
(414,718,o),
(443,693,c),
(472,596,l),
(505,596,l),
(505,726,l),
(476,743,o),
(417,765,o),
(317,765,cs),
(216,765,o),
(80,712,o),
(80,575,cs),
(80,464,o),
(187,408,o),
(291,358,cs),
(388,311,o),
(482,263,o),
(482,173,cs),
(482,66,o),
(391,28,o),
(307,28,cs),
(250,28,o),
(174,38,o),
(134,77,c),
(111,177,l),
(75,177,l),
(75,31,l),
(103,14,o),
(201,-11,o),
(298,-11,cs)
);
}
);
width = 600;
},
{
anchors = (
{
name = bottom;
pos = (300,0);
},
{
name = top;
pos = (300,758);
}
);
layerId = "39185045-6A8C-415A-8312-7B8F11386A4C";
name = Regular;
shapes = (
{
closed = 1;
nodes = (
(432,-11,o),
(550,48,o),
(550,194,cs),
(550,308,o),
(436,369,o),
(332,425,cs),
(246,470,o),
(168,519,o),
(168,593,cs),
(168,688,o),
(255,717,o),
(308,717,cs),
(355,717,o),
(401,707,o),
(424,686,c),
(462,592,l),
(504,592,l),
(504,728,l),
(476,744,o),
(410,765,o),
(315,765,cs),
(217,765,o),
(80,713,o),
(80,577,cs),
(80,467,o),
(182,406,o),
(281,352,cs),
(373,300,o),
(460,250,o),
(460,167,cs),
(460,76,o),
(383,38,o),
(311,38,cs),
(253,38,o),
(188,49,o),
(149,90,c),
(118,187,l),
(75,187,l),
(75,30,l),
(103,13,o),
(200,-11,o),
(298,-11,cs)
);
}
);
width = 600;
},
{
anchors = (
{
name = bottom;
pos = (322,0);
},
{
name = top;
pos = (322,758);
}
);
background = {
shapes = (
{
closed = 1;
nodes = (
(67,229,l),
(140,229,l),
(186,111,l),
(203,88,o),
(225,76,o),
(249,69,cs),
(272,63,o),
(298,62,o),
(323,62,cs),
(349,62,o),
(378,68,o),
(400,84,cs),
(423,101,o),
(439,127,o),
(439,170,cs),
(439,203,o),
(417,229,o),
(384,254,cs),
(367,267,o),
(348,279,o),
(327,290,cs),
(284,313,o),
(236,338,o),
(189,368,cs),
(142,397,o),
(104,434,o),
(81,479,cs),
(70,502,o),
(64,528,o),
(64,557,cs),
(64,624,o),
(97,676,o),
(146,711,cs),
(194,747,o),
(260,765,o),
(326,765,cs),
(379,765,o),
(434,760,o),
(477,752,cs),
(499,749,o),
(517,745,o),
(532,741,cs),
(547,737,o),
(557,733,o),
(563,730,c),
(563,568,l),
(482,568,l),
(437,671,l),
(435,673,o),
(431,675,o),
(425,678,cs),
(413,683,o),
(395,688,o),
(374,691,cs),
(364,693,o),
(354,694,o),
(343,694,cs),
(317,694,o),
(289,689,o),
(267,677,cs),
(245,665,o),
(229,645,o),
(229,614,cs),
(229,577,o),
(246,548,o),
(271,522,cs),
(297,497,o),
(333,476,o),
(372,454,cs),
(390,444,o),
(409,434,o),
(428,424,cs),
(466,404,o),
(502,381,o),
(534,356,cs),
(565,331,o),
(589,301,o),
(603,265,cs),
(609,247,o),
(613,228,o),
(613,206,cs),
(613,143,o),
(585,88,o),
(536,49,cs),
(486,10,o),
(413,-14,o),
(322,-14,cs),
(277,-14,o),
(226,-9,o),
(179,-1,cs),
(133,7,o),
(92,18,o),
(67,31,c)
);
}
);
};
layerId = "B26750D4-52C5-4F85-819B-BFB2F142DAD5";
name = Bold;
shapes = (
{
closed = 1;
nodes = (
(481,-14,o),
(613,63,o),
(613,206,cs),
(613,307,o),
(532,370,o),
(428,424,cs),
(305,489,o),
(229,532,o),
(229,614,cs),
(229,669,o),
(282,694,o),
(343,694,cs),
(368,694,o),
(420,685,o),
(437,671,c),
(482,568,l),
(563,568,l),
(563,730,l),
(520,751,o),
(388,765,o),
(326,765,cs),
(189,765,o),
(64,686,o),
(64,557,cs),
(64,429,o),
(173,372,o),
(327,290,cs),
(386,259,o),
(439,218,o),
(439,170,cs),
(439,100,o),
(393,62,o),
(323,62,cs),
(267,62,o),
(218,67,o),
(186,111,c),
(140,229,l),
(67,229,l),
(67,31,l),
(121,3,o),
(247,-14,o),
(322,-14,cs)
);
}
);
width = 643;
}
);
unicode = 83;
},
{
color = 5;
glyphname = Scaron;
lastChange = "2025-01-09 17:04:09 +0000";
layers = (
{
background = {
shapes = (
{
closed = 1;
nodes = (
(283,796,l),
(352,796,l),
(478,918,l),
(449,938,l),
(317,848,l),
(188,938,l),
(155,917,l)
);
},
{
closed = 1;
nodes = (
(73,31,l),
(101,14,o),
(199,-11,o),
(296,-11,cs),
(433,-11,o),
(548,49,o),
(548,192,cs),
(548,307,o),
(432,364,o),
(325,415,cs),
(232,459,o),
(145,503,o),
(145,586,cs),
(145,689,o),
(238,727,o),
(309,727,cs),
(361,727,o),
(412,718,o),
(441,693,c),
(470,596,l),
(503,596,l),
(503,726,l),
(474,743,o),
(415,765,o),
(315,765,cs),
(214,765,o),
(78,712,o),
(78,575,cs),
(78,464,o),
(185,408,o),
(289,358,cs),
(386,311,o),
(480,263,o),
(480,173,cs),
(480,66,o),
(389,28,o),
(305,28,cs),
(248,28,o),
(172,38,o),
(132,77,c),
(109,177,l),
(73,177,l)
);
}
);
};
layerId = "E777F328-EA17-4AE7-9EBA-8002E537BA4F";
name = Light;
shapes = (
{
ref = S;
},
{
pos = (67,0);
ref = caroncomb.case;
}
);
width = 600;
},
{
background = {
shapes = (
{
closed = 1;
nodes = (
(268,789,l),
(360,789,l),
(474,915,l),
(436,938,l),
(314,855,l),
(195,938,l),
(152,914,l)
);
},
{
closed = 1;
nodes = (
(72,30,l),
(100,13,o),
(197,-11,o),
(295,-11,cs),
(429,-11,o),
(547,48,o),
(547,194,cs),
(547,308,o),
(433,369,o),
(329,425,cs),
(243,470,o),
(166,519,o),
(166,593,cs),
(166,688,o),
(252,717,o),
(305,717,cs),
(353,717,o),
(398,707,o),
(421,686,c),
(459,592,l),
(501,592,l),
(501,728,l),
(473,744,o),
(407,765,o),
(312,765,cs),
(214,765,o),
(77,713,o),
(77,577,cs),
(77,467,o),
(179,406,o),
(278,352,cs),
(370,300,o),
(457,250,o),
(457,167,cs),
(457,76,o),
(380,38,o),
(308,38,cs),
(250,38,o),
(185,49,o),
(146,90,c),
(115,187,l),
(72,187,l)
);
}
);
};
layerId = "39185045-6A8C-415A-8312-7B8F11386A4C";
name = Regular;
shapes = (
{
ref = S;
},
{
pos = (39,0);
ref = caroncomb.case;
}
);
width = 600;
},
{
background = {
shapes = (
{
closed = 1;
nodes = (
(122,902,l),
(177,938,l),
(314,875,l),
(457,938,l),
(511,902,l),
(372,780,l),
(259,780,l)
);
},
{
closed = 1;
nodes = (
(64,229,l),
(138,229,l),
(183,111,l),
(201,88,o),
(222,76,o),
(246,69,cs),
(270,63,o),
(295,62,o),
(321,62,cs),
(346,62,o),
(375,68,o),
(398,84,cs),
(420,101,o),
(437,127,o),
(437,170,cs),
(437,203,o),
(415,229,o),
(381,254,cs),
(365,267,o),
(346,279,o),
(325,290,cs),
(282,313,o),
(234,338,o),
(187,368,cs),
(140,397,o),
(102,434,o),
(79,479,cs),
(67,502,o),
(62,528,o),
(62,557,cs),
(62,624,o),
(94,676,o),
(143,711,cs),
(192,747,o),
(257,765,o),
(324,765,cs),
(377,765,o),
(431,760,o),
(475,752,cs),
(496,749,o),
(515,745,o),
(530,741,cs),
(545,737,o),
(555,733,o),
(560,730,c),
(560,568,l),
(480,568,l),
(434,671,l),
(433,673,o),
(429,675,o),
(423,678,cs),
(411,683,o),
(393,688,o),
(372,691,cs),
(361,693,o),
(351,694,o),
(341,694,cs),
(315,694,o),
(286,689,o),
(265,677,cs),
(243,665,o),
(227,645,o),
(227,614,cs),
(227,577,o),
(243,548,o),
(269,522,cs),
(295,497,o),
(331,476,o),
(369,454,cs),
(387,444,o),
(406,434,o),
(425,424,cs),
(463,404,o),
(500,381,o),
(531,356,cs),
(563,331,o),
(586,301,o),
(600,265,cs),
(607,247,o),
(610,228,o),
(610,206,cs),
(610,143,o),
(583,88,o),
(533,49,cs),
(483,10,o),
(410,-14,o),
(320,-14,cs),
(274,-14,o),
(223,-9,o),
(177,-1,cs),
(130,7,o),
(89,18,o),
(64,31,c)
);
}
);
};
layerId = "B26750D4-52C5-4F85-819B-BFB2F142DAD5";
name = Bold;
shapes = (
{
ref = S;
},
{
pos = (63,0);
ref = caroncomb.case;
}
);
width = 643;
}
);
unicode = 352;
},
{
color = 9;
glyphname = Germandbls;
lastChange = "2025-01-09 17:16:59 +0000";
layers = (
{
anchors = (
{
name = bottom;
pos = (372,0);
},
{
name = top;
pos = (372,758);
}
);
background = {
shapes = (
{
closed = 1;
nodes = (
(369,772,l),
(162,772,o),
(78,664,o),
(78,442,cs),
(78,309,o),
(78,177,o),
(78,44,c),
(3,37,l),
(3,0,l),
(236,0,l),
(236,37,l),
(151,45,l),
(151,445,ls),
(151,669,o),
(248,733,o),
(383,733,c)
);
}
);
};
layerId = "E777F328-EA17-4AE7-9EBA-8002E537BA4F";
shapes = (
{
closed = 1;
nodes = (
(579,-9,o),
(664,59,o),
(664,199,cs),
(664,331,o),
(592,404,o),
(446,437,c),
(629,679,l),
(629,715,l),
(570,748,o),
(487,766,o),
(390,766,cs),
(183,766,o),
(79,637,o),
(79,471,cs),
(79,42,l),
(16,32,l),
(16,0,l),
(152,0,l),
(152,494,ls),
(152,659,o),
(218,724,o),
(391,724,cs),
(465,724,o),
(507,716,o),
(549,695,c),
(372,447,l),
(372,414,l),
(530,380,o),
(576,318,o),
(576,184,cs),
(576,70,o),
(522,29,o),
(458,29,cs),
(409,29,o),
(364,44,o),
(338,68,c),
(311,177,l),
(278,177,l),
(272,23,l),
(300,20,o),
(366,-9,o),
(452,-9,cs)
);
}
);
width = 714;
},
{
anchors = (
{
name = bottom;
pos = (338,0);
},
{
name = top;
pos = (338,758);
}
);
background = {
shapes = (
{
pos = (-13,758);
ref = U;
scale = (1,-1);
}
);
};
layerId = "39185045-6A8C-415A-8312-7B8F11386A4C";
shapes = (
{
closed = 1;
nodes = (
(579,-12,o),
(664,59,o),
(664,199,cs),
(664,331,o),
(592,404,o),
(446,437,c),
(629,679,l),
(629,715,l),
(570,748,o),
(487,766,o),
(390,766,cs),
(183,766,o),
(79,637,o),
(79,471,cs),
(79,56,l),
(16,50,l),
(16,0,l),
(152,0,l),
(152,494,ls),
(152,659,o),
(198,710,o),
(371,710,cs),
(445,710,o),
(469,696,o),
(511,675,c),
(363,447,l),
(363,414,l),
(521,380,o),
(556,318,o),
(556,184,cs),
(556,99,o),
(522,38,o),
(458,38,cs),
(409,38,o),
(364,44,o),
(338,68,c),
(311,177,l),
(248,177,l),
(242,23,l),
(270,20,o),
(366,-12,o),
(452,-12,cs)
);
}
);
width = 714;
},
{
anchors = (
{
name = bottom;
pos = (241,0);
},
{
name = top;
pos = (389,758);
}
);
layerId = "B26750D4-52C5-4F85-819B-BFB2F142DAD5";
shapes = (
{
closed = 1;
nodes = (
(647,-12,o),
(753,67,o),
(753,221,cs),
(753,357,o),
(671,418,o),
(520,430,c),
(699,644,l),
(699,713,l),
(643,742,o),
(560,760,o),
(456,760,cs),
(215,760,o),
(75,627,o),
(75,444,cs),
(75,78,l),
(20,67,l),
(20,0,l),
(246,0,l),
(246,496,ls),
(246,629,o),
(274,662,o),
(376,662,cs),
(447,662,o),
(486,644,o),
(515,608,c),
(391,449,l),
(391,391,l),
(519,366,o),
(576,311,o),
(576,203,cs),
(576,85,o),
(538,57,o),
(508,57,cs),
(480,57,o),
(452,67,o),
(441,83,c),
(416,229,l),
(332,229,l),
(327,29,l),
(363,27,o),
(412,-12,o),
(516,-12,cs)
);
}
);
width = 783;
}
);
metricLeft = U;
metricRight = S;
unicode = 7838;
},
{
color = 4;
glyphname = T;
kernLeft = T;
kernRight = T;
lastChange = "2025-01-09 17:02:38 +0000";
layers = (
{
anchors = (
{
name = bottom;
pos = (310,0);
},
{
name = center;
pos = (310,379);
},
{
name = top;
pos = (310,758);
}
);
layerId = "E777F328-EA17-4AE7-9EBA-8002E537BA4F";
name = Light;
shapes = (
{
closed = 1;
nodes = (
(154,0,l),
(489,0,l),
(489,33,l),
(354,45,l),
(354,717,l),
(556,709,l),
(576,604,l),
(607,608,l),
(608,758,l),
(27,758,l),
(15,610,l),
(49,611,l),
(79,709,l),
(282,717,l),
(282,45,l),
(154,33,l)
);
}
);
width = 620;
},
{
anchors = (
{
name = bottom;
pos = (310,0);
},
{
name = center;
pos = (310,379);
},
{
name = top;
pos = (310,758);
}
);
layerId = "39185045-6A8C-415A-8312-7B8F11386A4C";
name = Regular;
shapes = (
{
closed = 1;
nodes = (
(151,0,l),
(493,0,l),
(493,42,l),
(366,56,l),
(366,704,l),
(542,695,l),
(567,604,l),
(607,608,l),
(608,758,l),
(27,758,l),
(15,610,l),
(59,611,l),
(93,694,l),
(271,704,l),
(271,56,l),
(151,42,l)
);
}
);
width = 620;
},
{
anchors = (
{
name = bottom;
pos = (356,0);
},
{
name = center;
pos = (356,379);
},
{
name = top;
pos = (356,758);
}
);
layerId = "B26750D4-52C5-4F85-819B-BFB2F142DAD5";
name = Bold;
shapes = (
{
closed = 1;
nodes = (
(167,0,l),
(562,0,l),
(562,68,l),
(452,88,l),
(452,676,l),
(581,663,l),
(619,551,l),
(688,560,l),
(688,758,l),
(35,758,l),
(23,554,l),
(111,558,l),
(145,663,l),
(279,676,l),
(279,87,l),
(167,68,l)
);
}
);
width = 711;
}
);
unicode = 84;
},
{
color = 4;
glyphname = U;
lastChange = "2025-01-09 17:02:38 +0000";
layers = (
{
anchors = (
{
name = bottom;
pos = (385,0);
},
{
name = ogonek;
pos = (693,10);
},
{
name = top;
pos = (385,758);
},
{
name = topright;
pos = (750,758);
}
);
layerId = "E777F328-EA17-4AE7-9EBA-8002E537BA4F";
name = Light;
shapes = (
{
closed = 1;
nodes = (
(522,758,l),
(522,721,l),
(606,713,l),
(606,324,ls),
(606,134,o),
(541,25,o),
(396,25,cs),
(261,25,o),
(164,89,o),
(164,313,cs),
(164,713,l),
(249,721,l),
(249,758,l),
(16,758,l),
(16,721,l),
(91,714,l),
(91,581,o),
(91,449,o),
(91,316,cs),
(91,94,o),
(175,-14,o),
(382,-14,cs),
(548,-14,o),
(663,81,o),
(663,324,cs),
(663,713,l),
(739,721,l),
(739,758,l)
);
}
);
width = 770;
},
{
anchors = (
{
name = bottom;
pos = (385,0);
},
{
name = ogonek;
pos = (693,10);
},
{
name = top;
pos = (385,758);
},
{
name = topright;
pos = (750,758);
}
);
layerId = "39185045-6A8C-415A-8312-7B8F11386A4C";
name = Regular;
shapes = (
{
closed = 1;
nodes = (
(515,758,l),
(515,710,l),
(604,701,l),
(604,335,ls),
(604,150,o),
(546,37,o),
(410,37,cs),
(283,37,o),
(189,100,o),
(189,320,cs),
(189,701,l),
(276,710,l),
(276,758,l),
(16,758,l),
(16,710,l),
(94,702,l),
(94,575,o),
(93,450,o),
(93,323,cs),
(93,103,o),
(172,-14,o),
(394,-14,cs),
(561,-14,o),
(677,91,o),
(677,335,cs),
(677,701,l),
(754,710,l),
(754,758,l)
);
}
);
width = 770;
},
{
anchors = (
{
name = bottom;
pos = (394,0);
},
{
name = ogonek;
pos = (708,10);
},
{
name = top;
pos = (394,758);
},
{
name = topright;
pos = (767,758);
}
);
background = {
shapes = (
{
closed = 1;
nodes = (
(466,-14,o),
(515,-5,o),
(557,15,cs),
(600,36,o),
(636,68,o),
(662,119,cs),
(688,169,o),
(703,236,o),
(703,326,cs),
(703,666,l),
(773,678,l),
(773,758,l),
(510,758,l),
(510,678,l),
(592,666,l),
(594,325,ls),
(594,227,o),
(578,164,o),
(550,125,cs),
(522,87,o),
(483,73,o),
(438,73,cs),
(411,73,o),
(384,76,o),
(359,88,cs),
(334,99,o),
(312,119,o),
(296,152,cs),
(280,185,o),
(270,232,o),
(270,298,cs),
(270,667,l),
(353,678,l),
(353,758,l),
(20,758,l),
(20,678,l),
(97,667,l),
(95,305,ls),
(93,90,o),
(198,-14,o),
(417,-14,cs)
);
}
);
};
layerId = "B26750D4-52C5-4F85-819B-BFB2F142DAD5";
name = Bold;
shapes = (
{
closed = 1;
nodes = (
(510,758,l),
(510,678,l),
(592,666,l),
(594,325,ls),
(594,181,o),
(561,73,o),
(438,73,cs),
(314,73,o),
(270,155,o),
(270,298,cs),
(270,667,l),
(353,678,l),
(353,758,l),
(20,758,l),
(20,678,l),
(97,667,l),
(96,546,o),
(96,426,o),
(95,305,cs),
(93,90,o),
(198,-14,o),
(417,-14,cs),
(615,-14,o),
(703,113,o),
(703,326,cs),
(703,666,l),
(773,678,l),
(773,758,l)
);
}
);
width = 787;
}
);
unicode = 85;
},
{
color = 5;
glyphname = Uacute;
lastChange = "2025-01-09 17:04:09 +0000";
layers = (
{
layerId = "E777F328-EA17-4AE7-9EBA-8002E537BA4F";
name = Light;
shapes = (
{
ref = U;
},
{
pos = (127,0);
ref = acutecomb.case;
}
);
width = 770;
},
{
layerId = "39185045-6A8C-415A-8312-7B8F11386A4C";
name = Regular;
shapes = (
{
ref = U;
},
{
pos = (98,0);
ref = acutecomb.case;
}
);
width = 770;
},
{
background = {
shapes = (
{
closed = 1;
nodes = (
(348,830,l),
(540,938,l),
(634,844,l),
(616,830,o),
(586,818,o),
(553,808,cs),
(521,798,o),
(485,791,o),
(457,785,cs),
(442,783,o),
(429,781,o),
(419,779,cs),
(408,778,o),
(401,777,o),
(397,778,c)
);
},
{
closed = 1;
nodes = (
(94,667,l),
(17,678,l),
(17,758,l),
(350,758,l),
(350,678,l),
(268,667,l),
(268,298,ls),
(268,232,o),
(277,185,o),
(293,152,cs),
(310,119,o),
(332,99,o),
(357,88,cs),
(382,76,o),
(409,73,o),
(436,73,cs),
(480,73,o),
(520,87,o),
(547,125,cs),
(575,164,o),
(592,227,o),
(591,325,cs),
(590,666,l),
(508,678,l),
(508,758,l),
(771,758,l),
(771,678,l),
(701,666,l),
(701,326,ls),
(701,236,o),
(686,169,o),
(660,119,cs),
(634,68,o),
(597,36,o),
(555,15,cs),
(512,-5,o),
(463,-14,o),
(414,-14,cs),
(195,-14,o),
(91,90,o),
(92,305,cs)
);
}
);
};
layerId = "B26750D4-52C5-4F85-819B-BFB2F142DAD5";
name = Bold;
shapes = (
{
ref = U;
},
{
pos = (222,0);
ref = acutecomb.case;
}
);
width = 787;
}
);
unicode = 218;
},
{
color = 5;
glyphname = Udieresis;
lastChange = "2025-01-09 17:04:09 +0000";
layers = (
{
layerId = "E777F328-EA17-4AE7-9EBA-8002E537BA4F";
name = Light;
shapes = (
{
ref = U;
},
{
pos = (142,0);
ref = dieresiscomb.case;
}
);
width = 770;
},
{
layerId = "39185045-6A8C-415A-8312-7B8F11386A4C";
name = Regular;
shapes = (
{
ref = U;
},
{
pos = (126,0);
ref = dieresiscomb.case;
}
);
width = 770;
},
{
background = {
shapes = (
{
closed = 1;
nodes = (
(527,791,o),
(505,796,o),
(489,808,cs),
(472,820,o),
(461,837,o),
(461,859,cs),
(461,882,o),
(474,901,o),
(494,916,cs),
(513,929,o),
(538,938,o),
(563,938,cs),
(594,938,o),
(616,930,o),
(630,918,cs),
(644,906,o),
(649,889,o),
(649,870,cs),
(649,845,o),
(637,826,o),
(619,812,cs),
(601,798,o),
(576,791,o),
(550,791,cs)
);
},
{
closed = 1;
nodes = (
(259,790,o),
(237,796,o),
(222,808,cs),
(206,819,o),
(196,836,o),
(196,857,cs),
(196,881,o),
(208,901,o),
(227,915,cs),
(246,929,o),
(271,938,o),
(296,938,cs),
(328,938,o),
(350,930,o),
(365,918,cs),
(379,906,o),
(386,889,o),
(386,869,cs),
(386,845,o),
(374,825,o),
(354,812,cs),
(335,798,o),
(309,790,o),
(282,790,cs)
);
},
{
closed = 1;
nodes = (
(94,667,l),
(17,678,l),
(17,758,l),
(350,758,l),
(350,678,l),
(268,667,l),
(268,298,ls),
(268,232,o),
(277,185,o),
(293,152,cs),
(310,119,o),
(332,99,o),
(357,88,cs),
(382,76,o),
(409,73,o),
(436,73,cs),
(480,73,o),
(520,87,o),
(547,125,cs),
(575,164,o),
(592,227,o),
(591,325,cs),
(590,666,l),
(508,678,l),
(508,758,l),
(771,758,l),
(771,678,l),
(701,666,l),
(701,326,ls),
(701,236,o),
(686,169,o),
(660,119,cs),
(634,68,o),
(597,36,o),
(555,15,cs),
(512,-5,o),
(463,-14,o),
(414,-14,cs),
(195,-14,o),
(91,90,o),
(92,305,cs)
);
}
);
};
layerId = "B26750D4-52C5-4F85-819B-BFB2F142DAD5";
name = Bold;
shapes = (
{
ref = U;
},
{
pos = (134,0);
ref = dieresiscomb.case;
}
);
width = 787;
}
);
unicode = 220;
},
{
color = 5;
glyphname = Ugrave;
lastChange = "2025-01-09 17:04:09 +0000";
layers = (
{
background = {
shapes = (
{
closed = 1;
nodes = (
(522,758,l),
(522,721,l),
(606,713,l),
(606,324,ls),
(606,134,o),
(541,25,o),
(396,25,cs),
(261,25,o),
(164,89,o),
(164,313,cs),
(164,713,l),
(249,721,l),
(249,758,l),
(16,758,l),
(16,721,l),
(91,714,l),
(91,581,o),
(91,449,o),
(91,316,cs),
(91,94,o),
(175,-14,o),
(382,-14,cs),
(548,-14,o),
(663,81,o),
(663,324,cs),
(663,713,l),
(739,721,l),
(739,758,l)
);
},
{
closed = 1;
nodes = (
(214,884,l),
(260,848,o),
(331,809,o),
(390,785,c),
(411,806,l),
(266,938,l)
);
}
);
};
layerId = "E777F328-EA17-4AE7-9EBA-8002E537BA4F";
name = Light;
shapes = (
{
ref = U;
},
{
pos = (165,0);
ref = gravecomb.case;
}
);
width = 770;
},
{
background = {
shapes = (
{
closed = 1;
nodes = (
(515,758,l),
(515,710,l),
(604,701,l),
(604,335,ls),
(604,150,o),
(546,37,o),
(410,37,cs),
(283,37,o),
(189,100,o),
(189,320,cs),
(189,701,l),
(276,710,l),
(276,758,l),
(16,758,l),
(16,710,l),
(94,702,l),
(94,575,o),
(93,450,o),
(93,323,cs),
(93,103,o),
(172,-14,o),
(394,-14,cs),
(561,-14,o),
(677,91,o),
(677,335,cs),
(677,701,l),
(754,710,l),
(754,758,l)
);
},
{
closed = 1;
nodes = (
(212,865,l),
(273,826,o),
(346,795,o),
(407,785,c),
(433,811,l),
(283,938,l)
);
}
);
};
layerId = "39185045-6A8C-415A-8312-7B8F11386A4C";
name = Regular;
shapes = (
{
ref = U;
},
{
pos = (148,0);
ref = gravecomb.case;
}
);
width = 770;
},
{
background = {
shapes = (
{
closed = 1;
nodes = (
(311,938,l),
(493,830,l),
(443,778,l),
(440,777,o),
(433,778,o),
(423,779,cs),
(403,782,o),
(374,787,o),
(342,795,cs),
(311,802,o),
(278,813,o),
(251,825,cs),
(237,831,o),
(226,837,o),
(216,844,c)
);
},
{
closed = 1;
nodes = (
(94,667,l),
(17,678,l),
(17,758,l),
(350,758,l),
(350,678,l),
(268,667,l),
(268,298,ls),
(268,232,o),
(277,185,o),
(293,152,cs),
(310,119,o),
(332,99,o),
(357,88,cs),
(382,76,o),
(409,73,o),
(436,73,cs),
(480,73,o),
(520,87,o),
(547,125,cs),
(575,164,o),
(592,227,o),
(591,325,cs),
(590,666,l),
(508,678,l),
(508,758,l),
(771,758,l),
(771,678,l),
(701,666,l),
(701,326,ls),
(701,236,o),
(686,169,o),
(660,119,cs),
(634,68,o),
(597,36,o),
(555,15,cs),
(512,-5,o),
(463,-14,o),
(414,-14,cs),
(195,-14,o),
(91,90,o),
(92,305,cs)
);
}
);
};
layerId = "B26750D4-52C5-4F85-819B-BFB2F142DAD5";
name = Bold;
shapes = (
{
ref = U;
},
{
pos = (149,0);
ref = gravecomb.case;
}
);
width = 787;
}
);
unicode = 217;
},
{
color = 4;
glyphname = V;
lastChange = "2025-01-09 17:02:38 +0000";
layers = (
{
anchors = (
{
name = bottom;
pos = (348,0);
},
{
name = top;
pos = (348,758);
}
);
layerId = "E777F328-EA17-4AE7-9EBA-8002E537BA4F";
name = Light;
shapes = (
{
closed = 1;
nodes = (
(334,-10,l),
(388,-10,l),
(627,714,l),
(697,721,l),
(697,758,l),
(483,758,l),
(483,721,l),
(564,714,l),
(397,166,l),
(372,73,l),
(343,165,l),
(153,714,l),
(250,721,l),
(250,758,l),
(2,758,l),
(2,721,l),
(70,714,l)
);
}
);
width = 696;
},
{
anchors = (
{
name = bottom;
pos = (348,0);
},
{
name = top;
pos = (348,758);
}
);
layerId = "39185045-6A8C-415A-8312-7B8F11386A4C";
name = Regular;
shapes = (
{
closed = 1;
nodes = (
(324,-10,l),
(397,-10,l),
(634,703,l),
(693,710,l),
(693,758,l),
(471,758,l),
(471,710,l),
(551,702,l),
(405,203,l),
(376,95,l),
(342,202,l),
(177,702,l),
(265,710,l),
(265,758,l),
(2,758,l),
(2,710,l),
(67,703,l)
);
}
);
width = 696;
},
{
anchors = (
{
name = bottom;
pos = (365,0);
},
{
name = top;
pos = (365,758);
}
);
layerId = "B26750D4-52C5-4F85-819B-BFB2F142DAD5";
name = Bold;
shapes = (
{
closed = 1;
nodes = (
(309,-7,l),
(443,-7,l),
(664,669,l),
(723,678,l),
(723,758,l),
(443,758,l),
(443,678,l),
(519,667,l),
(419,296,l),
(389,168,l),
(358,299,l),
(252,667,l),
(332,680,l),
(332,758,l),
(6,758,l),
(6,678,l),
(64,669,l)
);
}
);
width = 729;
}
);
unicode = 86;
},
{
color = 4;
glyphname = W;
lastChange = "2025-01-09 17:02:38 +0000";
layers = (
{
anchors = (
{
name = bottom;
pos = (513,0);
},
{
name = top;
pos = (513,758);
}
);
layerId = "E777F328-EA17-4AE7-9EBA-8002E537BA4F";
name = Light;
shapes = (
{
closed = 1;
nodes = (
(313,-10,l),
(375,-10,l),
(521,527,l),
(674,-10,l),
(732,-10,l),
(942,714,l),
(1020,721,l),
(1020,758,l),
(792,758,l),
(792,721,l),
(881,714,l),
(738,173,l),
(715,73,l),
(692,161,l),
(544,714,l),
(637,721,l),
(637,758,l),
(387,758,l),
(387,721,l),
(468,714,l),
(494,625,l),
(377,163,l),
(350,76,l),
(340,106,o),
(331,137,o),
(321,167,c),
(149,714,l),
(246,721,l),
(246,758,l),
(2,758,l),
(2,721,l),
(69,714,l)
);
}
);
width = 1026;
},
{
anchors = (
{
name = bottom;
pos = (513,0);
},
{
name = top;
pos = (513,758);
}
);
layerId = "39185045-6A8C-415A-8312-7B8F11386A4C";
name = Regular;
shapes = (
{
closed = 1;
nodes = (
(305,-10,l),
(385,-10,l),
(524,486,l),
(664,-10,l),
(743,-10,l),
(951,702,l),
(1023,710,l),
(1023,758,l),
(787,758,l),
(787,710,l),
(872,702,l),
(744,208,l),
(719,96,l),
(695,189,l),
(563,702,l),
(647,710,l),
(647,758,l),
(381,758,l),
(381,710,l),
(460,702,l),
(488,614,l),
(384,193,l),
(354,104,l),
(344,136,o),
(334,167,o),
(324,199,cs),
(171,702,l),
(264,710,l),
(264,758,l),
(2,758,l),
(2,710,l),
(66,702,l)
);
}
);
width = 1026;
},
{
anchors = (
{
name = bottom;
pos = (557,0);
},
{
name = top;
pos = (557,758);
}
);
layerId = "B26750D4-52C5-4F85-819B-BFB2F142DAD5";
name = Bold;
shapes = (
{
closed = 1;
nodes = (
(287,-7,l),
(443,-7,l),
(551,386,l),
(663,-8,l),
(830,-8,l),
(1033,668,l),
(1106,678,l),
(1106,758,l),
(821,758,l),
(821,678,l),
(894,668,l),
(785,217,l),
(765,133,l),
(747,217,l),
(647,667,l),
(727,679,l),
(727,758,l),
(411,758,l),
(411,678,l),
(475,668,l),
(494,591,l),
(401,217,l),
(385,135,l),
(379,162,o),
(374,189,o),
(369,217,c),
(254,668,l),
(313,679,l),
(313,758,l),
(7,758,l),
(7,678,l),
(68,668,l)
);
}
);
width = 1114;
}
);
unicode = 87;
},
{
color = 4;
glyphname = X;
lastChange = "2025-01-09 17:02:38 +0000";
layers = (
{
anchors = (
{
name = bottom;
pos = (347,0);
},
{
name = top;
pos = (347,758);
}
);
layerId = "E777F328-EA17-4AE7-9EBA-8002E537BA4F";
name = Light;
shapes = (
{
closed = 1;
nodes = (
(7,0,l),
(261,0,l),
(261,33,l),
(163,44,l),
(335,348,l),
(518,44,l),
(419,33,l),
(419,0,l),
(688,0,l),
(688,33,l),
(600,44,l),
(386,396,l),
(597,714,l),
(670,721,l),
(670,758,l),
(446,758,l),
(446,721,l),
(530,714,l),
(359,427,l),
(191,714,l),
(285,721,l),
(285,758,l),
(27,758,l),
(27,721,l),
(104,714,l),
(311,386,l),
(94,44,l),
(7,33,l)
);
}
);
width = 693;
},
{
anchors = (
{
name = bottom;
pos = (347,0);
},
{
name = top;
pos = (347,758);
}
);
layerId = "39185045-6A8C-415A-8312-7B8F11386A4C";
name = Regular;
shapes = (
{
closed = 1;
nodes = (
(7,0,l),
(275,0,l),
(275,42,l),
(182,56,l),
(335,333,l),
(506,56,l),
(415,42,l),
(415,0,l),
(696,0,l),
(696,42,l),
(615,56,l),
(400,400,l),
(604,703,l),
(674,710,l),
(674,758,l),
(441,758,l),
(441,710,l),
(516,702,l),
(365,439,l),
(212,702,l),
(299,710,l),
(299,758,l),
(25,758,l),
(25,710,l),
(98,702,l),
(303,381,l),
(94,56,l),
(7,42,l)
);
}
);
width = 693;
},
{
anchors = (
{
name = bottom;
pos = (379,0);
},
{
name = top;
pos = (379,758);
}
);
layerId = "B26750D4-52C5-4F85-819B-BFB2F142DAD5";
name = Bold;
shapes = (
{
closed = 1;
nodes = (
(12,0,l),
(338,0,l),
(338,67,l),
(247,89,l),
(361,281,l),
(474,86,l),
(404,67,l),
(404,0,l),
(747,0,l),
(747,67,l),
(667,90,l),
(447,400,l),
(653,667,l),
(747,678,l),
(747,758,l),
(442,758,l),
(442,678,l),
(509,668,l),
(390,476,l),
(286,668,l),
(357,680,l),
(357,758,l),
(12,758,l),
(12,678,l),
(90,667,l),
(298,365,l),
(98,89,l),
(12,67,l)
);
}
);
width = 758;
}
);
unicode = 88;
},
{
color = 4;
glyphname = Y;
lastChange = "2025-01-09 17:02:38 +0000";
layers = (
{
anchors = (
{
name = bottom;
pos = (330,0);
},
{
name = top;
pos = (330,758);
},
{
name = topleft;
pos = (20,758);
}
);
layerId = "E777F328-EA17-4AE7-9EBA-8002E537BA4F";
name = Light;
shapes = (
{
closed = 1;
nodes = (
(206,0,l),
(480,0,l),
(480,33,l),
(377,45,l),
(377,311,l),
(587,710,l),
(653,721,l),
(653,758,l),
(442,758,l),
(442,721,l),
(526,713,l),
(370,405,l),
(346,353,l),
(320,405,l),
(148,714,l),
(230,721,l),
(230,758,l),
(6,758,l),
(6,721,l),
(65,714,l),
(305,313,l),
(305,45,l),
(206,33,l)
);
}
);
width = 660;
},
{
anchors = (
{
name = bottom;
pos = (330,0);
},
{
name = top;
pos = (330,758);
},
{
name = topleft;
pos = (20,758);
}
);
layerId = "39185045-6A8C-415A-8312-7B8F11386A4C";
name = Regular;
shapes = (
{
closed = 1;
nodes = (
(196,0,l),
(496,0,l),
(496,42,l),
(391,57,l),
(391,311,l),
(590,697,l),
(654,710,l),
(654,758,l),
(429,758,l),
(429,710,l),
(512,701,l),
(372,414,l),
(350,363,l),
(326,413,l),
(171,702,l),
(246,710,l),
(246,758,l),
(6,758,l),
(6,710,l),
(62,702,l),
(296,312,l),
(296,57,l),
(196,42,l)
);
}
);
width = 660;
},
{
anchors = (
{
name = bottom;
pos = (362,0);
},
{
name = top;
pos = (362,758);
},
{
name = topleft;
pos = (20,758);
}
);
layerId = "B26750D4-52C5-4F85-819B-BFB2F142DAD5";
name = Bold;
shapes = (
{
closed = 1;
nodes = (
(170,0,l),
(593,0,l),
(593,68,l),
(461,92,l),
(461,265,l),
(652,660,l),
(716,678,l),
(716,758,l),
(441,758,l),
(442,678,l),
(520,666,l),
(416,415,l),
(399,365,l),
(385,411,l),
(262,670,l),
(314,680,l),
(314,758,l),
(6,758,l),
(6,678,l),
(60,669,l),
(288,250,l),
(288,90,l),
(170,68,l)
);
}
);
width = 723;
}
);
unicode = 89;
},
{
color = 5;
glyphname = Yacute;
lastChange = "2025-01-09 17:05:28 +0000";
layers = (
{
layerId = "E777F328-EA17-4AE7-9EBA-8002E537BA4F";
name = Light;
shapes = (
{
ref = Y;
},
{
pos = (72,0);
ref = acutecomb.case;
}
);
width = 660;
},
{
layerId = "39185045-6A8C-415A-8312-7B8F11386A4C";
name = Regular;
shapes = (
{
ref = Y;
},
{
pos = (43,0);
ref = acutecomb.case;
}
);
width = 660;
},
{
background = {
shapes = (
{
closed = 1;
nodes = (
(298,830,l),
(490,938,l),
(584,844,l),
(566,830,o),
(536,818,o),
(503,808,cs),
(471,798,o),
(436,791,o),
(407,785,cs),
(392,783,o),
(379,781,o),
(369,779,cs),
(358,778,o),
(351,777,o),
(348,778,c)
);
},
{
closed = 1;
nodes = (
(168,68,l),
(285,90,l),
(285,250,l),
(58,669,l),
(4,678,l),
(4,758,l),
(312,758,l),
(312,680,l),
(260,670,l),
(383,411,l),
(397,365,l),
(413,415,l),
(517,666,l),
(439,678,l),
(439,692,o),
(439,705,o),
(439,718,c),
(439,731,o),
(439,745,o),
(439,758,c),
(714,758,l),
(714,678,l),
(649,660,l),
(459,265,l),
(459,92,l),
(590,68,l),
(590,0,l),
(168,0,l)
);
}
);
};
layerId = "B26750D4-52C5-4F85-819B-BFB2F142DAD5";
name = Bold;
shapes = (
{
ref = Y;
},
{
pos = (189,0);
ref = acutecomb.case;
}
);
width = 723;
}
);
unicode = 221;
},
{
color = 5;
glyphname = Ydieresis;
lastChange = "2025-01-09 17:05:28 +0000";
layers = (
{
background = {
shapes = (
{
closed = 1;
nodes = (
(442,758,l),
(442,721,l),
(526,713,l),
(370,405,l),
(346,353,l),
(320,405,l),
(148,714,l),
(230,721,l),
(230,758,l),
(6,758,l),
(6,721,l),
(65,714,l),
(305,313,l),
(305,45,l),
(206,33,l),
(206,0,l),
(480,0,l),
(480,33,l),
(377,45,l),
(377,311,l),
(587,710,l),
(653,721,l),
(653,758,l)
);
},
{
closed = 1;
nodes = (
(208,926,o),
(178,903,o),
(178,872,cs),
(178,843,o),
(202,825,o),
(227,825,cs),
(255,825,o),
(284,847,o),
(284,880,cs),
(284,905,o),
(269,926,o),
(235,926,cs)
);
},
{
closed = 1;
nodes = (
(431,926,o),
(401,902,o),
(401,871,cs),
(401,842,o),
(425,825,o),
(450,825,cs),
(479,825,o),
(507,847,o),
(507,879,cs),
(507,905,o),
(492,926,o),
(458,926,cs)
);
}
);
};
layerId = "E777F328-EA17-4AE7-9EBA-8002E537BA4F";
name = Light;
shapes = (
{
ref = Y;
},
{
pos = (87,0);
ref = dieresiscomb.case;
}
);
width = 660;
},
{
layerId = "39185045-6A8C-415A-8312-7B8F11386A4C";
name = Regular;
shapes = (
{
ref = Y;
},
{
ref = dieresiscomb.case;
}
);
width = 660;
},
{
layerId = "B26750D4-52C5-4F85-819B-BFB2F142DAD5";
name = Bold;
shapes = (
{
ref = Y;
},
{
ref = dieresiscomb.case;
}
);
width = 723;
}
);
unicode = 376;
},
{
color = 4;
glyphname = Z;
lastChange = "2025-01-09 17:02:38 +0000";
layers = (
{
anchors = (
{
name = bottom;
pos = (330,0);
},
{
name = center;
pos = (330,379);
},
{
name = top;
pos = (330,758);
}
);
layerId = "E777F328-EA17-4AE7-9EBA-8002E537BA4F";
name = Light;
shapes = (
{
closed = 1;
nodes = (
(93,759,l),
(79,606,l),
(119,600,l),
(157,709,l),
(540,718,l),
(482,647,l),
(48,34,l),
(60,0,l),
(595,0,l),
(630,170,l),
(591,179,l),
(535,56,l),
(131,42,l),
(193,121,l),
(620,726,l),
(608,759,l)
);
}
);
width = 660;
},
{
anchors = (
{
name = bottom;
pos = (330,0);
},
{
name = center;
pos = (330,379);
},
{
name = top;
pos = (330,758);
}
);
layerId = "39185045-6A8C-415A-8312-7B8F11386A4C";
name = Regular;
shapes = (
{
closed = 1;
nodes = (
(88,758,l),
(73,592,l),
(125,583,l),
(171,694,l),
(519,705,l),
(469,646,l),
(45,43,l),
(58,0,l),
(600,0,l),
(635,186,l),
(586,197,l),
(523,73,l),
(157,54,l),
(205,113,l),
(626,716,l),
(612,758,l)
);
}
);
width = 660;
},
{
anchors = (
{
name = bottom;
pos = (339,0);
},
{
name = center;
pos = (339,379);
},
{
name = top;
pos = (339,758);
}
);
layerId = "B26750D4-52C5-4F85-819B-BFB2F142DAD5";
name = Bold;
shapes = (
{
closed = 1;
nodes = (
(71,758,l),
(50,552,l),
(125,538,l),
(187,657,l),
(467,680,l),
(386,591,l),
(25,68,l),
(45,0,l),
(617,0,l),
(671,213,l),
(598,233,l),
(501,103,l),
(229,80,l),
(300,161,l),
(655,684,l),
(632,758,l)
);
}
);
width = 678;
}
);
unicode = 90;
},
{
color = 5;
glyphname = Zacute;
lastChange = "2025-01-09 17:04:09 +0000";
layers = (
{
layerId = "E777F328-EA17-4AE7-9EBA-8002E537BA4F";
name = Light;
shapes = (
{
ref = Z;
},
{
pos = (72,0);
ref = acutecomb.case;
}
);
width = 660;
},
{
layerId = "39185045-6A8C-415A-8312-7B8F11386A4C";
name = Regular;
shapes = (
{
ref = Z;
},
{
pos = (43,0);
ref = acutecomb.case;
}
);
width = 660;
},
{
background = {
shapes = (
{
closed = 1;
nodes = (
(269,830,l),
(460,938,l),
(555,844,l),
(537,830,o),
(506,818,o),
(474,808,cs),
(441,798,o),
(406,791,o),
(377,785,cs),
(362,783,o),
(350,781,o),
(339,779,cs),
(329,778,o),
(321,777,o),
(318,778,c)
);
},
{
closed = 1;
nodes = (
(23,68,l),
(384,591,l),
(465,680,l),
(185,657,l),
(122,538,l),
(47,552,l),
(68,758,l),
(630,758,l),
(652,684,l),
(297,161,l),
(227,80,l),
(499,103,l),
(596,233,l),
(668,213,l),
(615,0,l),
(43,0,l)
);
}
);
};
layerId = "B26750D4-52C5-4F85-819B-BFB2F142DAD5";
name = Bold;
shapes = (
{
ref = Z;
},
{
pos = (167,0);
ref = acutecomb.case;
}
);
width = 678;
}
);
unicode = 377;
},
{
color = 5;
glyphname = Zcaron;
lastChange = "2025-01-09 17:04:09 +0000";
layers = (
{
background = {
shapes = (
{
closed = 1;
nodes = (
(93,759,l),
(79,606,l),
(119,600,l),
(157,709,l),
(540,718,l),
(482,647,l),
(48,34,l),
(60,0,l),
(595,0,l),
(630,170,l),
(591,179,l),
(535,56,l),
(131,42,l),
(193,121,l),
(620,726,l),
(608,759,l)
);
},
{
closed = 1;
nodes = (
(357,848,l),
(227,938,l),
(195,917,l),
(323,796,l),
(391,796,l),
(518,918,l),
(489,938,l)
);
}
);
};
layerId = "E777F328-EA17-4AE7-9EBA-8002E537BA4F";
name = Light;
shapes = (
{
ref = Z;
},
{
pos = (97,0);
ref = caroncomb.case;
}
);
width = 660;
},
{
layerId = "39185045-6A8C-415A-8312-7B8F11386A4C";
name = Regular;
shapes = (
{
ref = Z;
},
{
pos = (69,0);
ref = caroncomb.case;
}
);
width = 660;
},
{
layerId = "B26750D4-52C5-4F85-819B-BFB2F142DAD5";
name = Bold;
shapes = (
{
ref = Z;
},
{
pos = (80,0);
ref = caroncomb.case;
}
);
width = 678;
}
);
unicode = 381;
},
{
color = 5;
glyphname = Zdotaccent;
lastChange = "2025-01-09 17:04:09 +0000";
layers = (
{
layerId = "E777F328-EA17-4AE7-9EBA-8002E537BA4F";
name = Light;
shapes = (
{
ref = Z;
},
{
pos = (203,0);
ref = dotaccentcomb.case;
}
);
width = 660;
},
{
layerId = "39185045-6A8C-415A-8312-7B8F11386A4C";
name = Regular;
shapes = (
{
ref = Z;
},
{
pos = (188,0);
ref = dotaccentcomb.case;
}
);
width = 660;
},
{
background = {
shapes = (
{
closed = 1;
nodes = (
(310,791,o),
(289,796,o),
(272,808,cs),
(255,820,o),
(245,837,o),
(245,859,cs),
(245,882,o),
(257,901,o),
(277,916,cs),
(296,929,o),
(321,938,o),
(346,938,cs),
(377,938,o),
(399,930,o),
(413,918,cs),
(427,906,o),
(433,889,o),
(433,870,cs),
(433,845,o),
(420,826,o),
(402,812,cs),
(384,798,o),
(359,791,o),
(333,791,cs)
);
},
{
closed = 1;
nodes = (
(23,68,l),
(384,591,l),
(465,680,l),
(185,657,l),
(122,538,l),
(47,552,l),
(68,758,l),
(630,758,l),
(652,684,l),
(297,161,l),
(227,80,l),
(499,103,l),
(596,233,l),
(668,213,l),
(615,0,l),
(43,0,l)
);
}
);
};
layerId = "B26750D4-52C5-4F85-819B-BFB2F142DAD5";
name = Bold;
shapes = (
{
ref = Z;
},
{
pos = (170,0);
ref = dotaccentcomb.case;
}
);
width = 678;
}
);
unicode = 379;
},
{
color = 4;
glyphname = a;
lastChange = "2025-01-09 17:02:38 +0000";
layers = (
{
anchors = (
{
name = bottom;
pos = (280,0);
},
{
name = ogonek;
pos = (503,10);
},
{
name = top;
pos = (280,546);
}
);
background = {
shapes = (
{
closed = 1;
nodes = (
(226,556,o),
(126,537,o),
(78,497,c),
(92,462,l),
(128,485,o),
(200,506,o),
(249,506,cs),
(338,506,o),
(393,477,o),
(393,368,cs),
(393,325,l),
(271,325,o),
(68,288,o),
(57,152,cs),
(50,47,o),
(134,-11,o),
(221,-11,cs),
(308,-11,o),
(361,18,o),
(397,59,c),
(397,39,ls),
(397,-5,o),
(420,-8,o),
(443,-8,cs),
(477,-8,o),
(508,-1,o),
(527,8,c),
(527,35,l),
(463,35,l),
(464,377,ls),
(464,521,o),
(377,556,o),
(273,556,cs)
);
},
{
closed = 1;
nodes = (
(393,216,o),
(393,135,o),
(393,88,c),
(375,73,o),
(327,37,o),
(257,37,cs),
(181,37,o),
(127,71,o),
(128,151,cs),
(128,257,o),
(288,285,o),
(393,285,c)
);
}
);
};
layerId = "E777F328-EA17-4AE7-9EBA-8002E537BA4F";
name = Light;
shapes = (
{
closed = 1;
nodes = (
(226,556,o),
(126,537,o),
(78,497,c),
(92,462,l),
(128,485,o),
(200,506,o),
(249,506,cs),
(338,506,o),
(393,477,o),
(393,368,cs),
(393,325,l),
(268,325,o),
(57,286,o),
(57,140,cs),
(57,43,o),
(137,-11,o),
(221,-11,cs),
(308,-11,o),
(361,18,o),
(397,59,c),
(397,8,o),
(401,-8,o),
(443,-8,cs),
(477,-8,o),
(508,-1,o),
(527,8,c),
(527,35,l),
(463,35,l),
(464,377,ls),
(464,521,o),
(377,556,o),
(273,556,cs)
);
},
{
closed = 1;
nodes = (
(393,88,l),
(375,73,o),
(327,37,o),
(257,37,cs),
(181,37,o),
(127,71,o),
(128,151,cs),
(128,257,o),
(288,285,o),
(393,285,c)
);
}
);
width = 559;
},
{
anchors = (
{
name = bottom;
pos = (280,0);
},
{
name = ogonek;
pos = (503,10);
},
{
name = top;
pos = (280,546);
}
);
background = {
shapes = (
{
closed = 1;
nodes = (
(226,556,o),
(127,538,o),
(79,498,c),
(97,454,l),
(142,476,o),
(201,491,o),
(239,491,cs),
(314,491,o),
(373,470,o),
(373,367,cs),
(373,325,l),
(282,325,o),
(71,293,o),
(58,157,cs),
(57,150,o),
(57,144,o),
(57,138,cs),
(57,55,o),
(121,-12,o),
(215,-12,cs),
(297,-12,o),
(348,16,o),
(378,53,c),
(378,6,o),
(388,-12,o),
(436,-12,cs),
(469,-12,o),
(505,-3,o),
(528,9,c),
(528,42,l),
(466,42,l),
(467,377,ls),
(467,519,o),
(378,556,o),
(275,556,cs)
);
},
{
closed = 1;
nodes = (
(372,92,l),
(352,72,o),
(306,50,o),
(268,50,cs),
(195,50,o),
(152,79,o),
(152,155,cs),
(152,250,o),
(290,274,o),
(373,274,c)
);
}
);
};
layerId = "39185045-6A8C-415A-8312-7B8F11386A4C";
name = Regular;
shapes = (
{
closed = 1;
nodes = (
(226,556,o),
(127,538,o),
(79,498,c),
(97,454,l),
(142,476,o),
(201,491,o),
(239,491,cs),
(314,491,o),
(373,470,o),
(373,367,cs),
(373,325,l),
(252,325,o),
(57,282,o),
(57,138,cs),
(57,55,o),
(121,-12,o),
(215,-12,cs),
(297,-12,o),
(348,16,o),
(378,53,c),
(378,6,o),
(388,-12,o),
(436,-12,cs),
(469,-12,o),
(505,-3,o),
(528,9,c),
(528,42,l),
(466,42,l),
(467,377,l),
(467,519,o),
(378,556,o),
(275,556,cs)
);
},
{
closed = 1;
nodes = (
(372,92,l),
(352,72,o),
(306,50,o),
(268,50,cs),
(195,50,o),
(152,79,o),
(152,155,cs),
(152,250,o),
(290,274,o),
(373,274,c)
);
}
);
width = 559;
},
{
anchors = (
{
name = bottom;
pos = (300,0);
},
{
name = ogonek;
pos = (539,10);
},
{
name = top;
pos = (300,546);
}
);
background = {
shapes = (
{
closed = 1;
nodes = (
(303,-14,o),
(348,10,o),
(382,42,c),
(383,19,o),
(399,4,o),
(417,-3,cs),
(436,-12,o),
(458,-14,o),
(470,-14,cs),
(489,-14,o),
(512,-12,o),
(535,-8,cs),
(558,-4,o),
(579,2,o),
(596,14,c),
(596,66,l),
(532,66,l),
(532,361,ls),
(532,441,o),
(509,491,o),
(469,521,cs),
(430,552,o),
(374,562,o),
(308,562,cs),
(239,562,o),
(182,552,o),
(140,539,cs),
(98,525,o),
(71,510,o),
(61,502,c),
(94,427,l),
(101,432,o),
(120,442,o),
(148,452,cs),
(177,461,o),
(213,469,o),
(255,469,cs),
(289,469,o),
(314,463,o),
(333,445,cs),
(350,426,o),
(359,395,o),
(359,343,c),
(327,343,o),
(284,339,o),
(240,329,cs),
(195,319,o),
(150,304,o),
(114,282,cs),
(77,260,o),
(50,230,o),
(41,192,cs),
(27,140,o),
(35,88,o),
(67,50,cs),
(99,12,o),
(155,-14,o),
(240,-14,cs)
);
},
{
closed = 1;
nodes = (
(246,72,o),
(209,101,o),
(209,164,cs),
(209,192,o),
(219,213,o),
(235,229,cs),
(250,244,o),
(271,254,o),
(293,260,cs),
(315,266,o),
(339,268,o),
(359,268,c),
(359,240,o),
(359,212,o),
(359,185,cs),
(359,157,o),
(359,128,o),
(359,101,c),
(347,91,o),
(333,84,o),
(315,82,cs)
);
}
);
};
layerId = "B26750D4-52C5-4F85-819B-BFB2F142DAD5";
name = Bold;
shapes = (
{
closed = 1;
nodes = (
(227,562,o),
(112,543,o),
(61,502,c),
(94,427,l),
(129,452,o),
(200,469,o),
(255,469,cs),
(333,469,o),
(358,435,o),
(359,349,c),
(359,343,l),
(199,343,o),
(34,282,o),
(34,143,cs),
(34,42,o),
(121,-14,o),
(240,-14,cs),
(303,-14,o),
(348,10,o),
(382,42,c),
(386,6,o),
(421,-14,o),
(470,-14,cs),
(509,-14,o),
(567,-7,o),
(596,14,c),
(596,66,l),
(532,66,l),
(532,361,ls),
(532,506,o),
(456,562,o),
(308,562,cs)
);
},
{
closed = 1;
nodes = (
(359,101,l),
(340,85,o),
(317,80,o),
(290,80,cs),
(237,80,o),
(209,109,o),
(209,164,cs),
(209,238,o),
(279,268,o),
(359,268,c)
);
}
);
width = 599;
}
);
unicode = 97;
},
{
color = 5;
glyphname = aacute;
lastChange = "2025-01-09 17:14:07 +0000";
layers = (
{
layerId = "E777F328-EA17-4AE7-9EBA-8002E537BA4F";
name = Light;
shapes = (
{
ref = a;
},
{
pos = (103,0);
ref = acutecomb;
}
);
width = 559;
},
{
layerId = "39185045-6A8C-415A-8312-7B8F11386A4C";
name = Regular;
shapes = (
{
ref = a;
},
{
pos = (64,0);
ref = acutecomb;
}
);
width = 559;
},
{
background = {
shapes = (
{
closed = 1;
nodes = (
(224,696,l),
(378,904,l),
(502,809,l),
(479,771,o),
(441,739,o),
(398,713,cs),
(355,687,o),
(309,666,o),
(267,652,c)
);
},
{
closed = 1;
nodes = (
(50,230,o),
(77,260,o),
(114,282,cs),
(150,304,o),
(195,319,o),
(240,329,cs),
(284,339,o),
(327,343,o),
(359,343,c),
(359,395,o),
(350,426,o),
(333,445,cs),
(314,463,o),
(289,469,o),
(255,469,cs),
(213,469,o),
(177,461,o),
(148,452,cs),
(120,442,o),
(101,432,o),
(94,427,c),
(61,502,l),
(71,510,o),
(98,525,o),
(140,539,cs),
(182,552,o),
(239,562,o),
(308,562,cs),
(374,562,o),
(430,552,o),
(469,521,cs),
(509,491,o),
(532,441,o),
(532,361,cs),
(532,66,l),
(596,66,l),
(596,14,l),
(579,2,o),
(558,-4,o),
(535,-8,cs),
(512,-12,o),
(489,-14,o),
(470,-14,cs),
(458,-14,o),
(436,-12,o),
(417,-3,cs),
(399,4,o),
(383,19,o),
(382,42,c),
(348,10,o),
(303,-14,o),
(240,-14,cs),
(155,-14,o),
(99,12,o),
(67,50,cs),
(35,88,o),
(27,140,o),
(41,192,cs)
);
},
{
closed = 1;
nodes = (
(209,101,o),
(246,72,o),
(315,82,cs),
(333,84,o),
(347,91,o),
(359,101,c),
(359,128,o),
(359,157,o),
(359,185,cs),
(359,212,o),
(359,240,o),
(359,268,c),
(339,268,o),
(315,266,o),
(293,260,cs),
(271,254,o),
(250,244,o),
(235,229,cs),
(219,213,o),
(209,192,o),
(209,164,cs)
);
}
);
};
layerId = "B26750D4-52C5-4F85-819B-BFB2F142DAD5";
name = Bold;
shapes = (
{
ref = a;
},
{
pos = (-18,0);
ref = acutecomb;
}
);
width = 599;
}
);
unicode = 225;
},
{
color = 5;
glyphname = acircumflex;
lastChange = "2025-01-09 17:04:09 +0000";
layers = (
{
layerId = "E777F328-EA17-4AE7-9EBA-8002E537BA4F";
name = Light;
shapes = (
{
ref = a;
},
{
pos = (22,0);
ref = circumflexcomb;
}
);
width = 559;
},
{
layerId = "39185045-6A8C-415A-8312-7B8F11386A4C";
name = Regular;
shapes = (
{
ref = a;
},
{
pos = (23,0);
ref = circumflexcomb;
}
);
width = 559;
},
{
background = {
shapes = (
{
closed = 1;
nodes = (
(97,688,l),
(229,867,l),
(353,867,l),
(488,688,l),
(417,652,l),
(291,753,l),
(161,652,l)
);
},
{
closed = 1;
nodes = (
(50,230,o),
(77,260,o),
(114,282,cs),
(150,304,o),
(195,319,o),
(240,329,cs),
(284,339,o),
(327,343,o),
(359,343,c),
(359,395,o),
(350,426,o),
(333,445,cs),
(314,463,o),
(289,469,o),
(255,469,cs),
(213,469,o),
(177,461,o),
(148,452,cs),
(120,442,o),
(101,432,o),
(94,427,c),
(61,502,l),
(71,510,o),
(98,525,o),
(140,539,cs),
(182,552,o),
(239,562,o),
(308,562,cs),
(374,562,o),
(430,552,o),
(469,521,cs),
(509,491,o),
(532,441,o),
(532,361,cs),
(532,66,l),
(596,66,l),
(596,14,l),
(579,2,o),
(558,-4,o),
(535,-8,cs),
(512,-12,o),
(489,-14,o),
(470,-14,cs),
(458,-14,o),
(436,-12,o),
(417,-3,cs),
(399,4,o),
(383,19,o),
(382,42,c),
(348,10,o),
(303,-14,o),
(240,-14,cs),
(155,-14,o),
(99,12,o),
(67,50,cs),
(35,88,o),
(27,140,o),
(41,192,cs)
);
},
{
closed = 1;
nodes = (
(209,101,o),
(246,72,o),
(315,82,cs),
(333,84,o),
(347,91,o),
(359,101,c),
(359,128,o),
(359,157,o),
(359,185,cs),
(359,212,o),
(359,240,o),
(359,268,c),
(339,268,o),
(315,266,o),
(293,260,cs),
(271,254,o),
(250,244,o),
(235,229,cs),
(219,213,o),
(209,192,o),
(209,164,cs)
);
}
);
};
layerId = "B26750D4-52C5-4F85-819B-BFB2F142DAD5";
name = Bold;
shapes = (
{
ref = a;
},
{
pos = (40,0);
ref = circumflexcomb;
}
);
width = 599;
}
);
unicode = 226;
},
{
color = 5;
glyphname = adieresis;
lastChange = "2025-01-09 17:04:09 +0000";
layers = (
{
background = {
shapes = (
{
closed = 1;
nodes = (
(226,556,o),
(126,537,o),
(78,497,c),
(92,462,l),
(128,485,o),
(200,506,o),
(249,506,cs),
(338,506,o),
(393,477,o),
(393,368,cs),
(393,325,l),
(271,325,o),
(68,288,o),
(57,152,cs),
(50,47,o),
(134,-11,o),
(221,-11,cs),
(308,-11,o),
(361,18,o),
(397,59,c),
(397,39,ls),
(397,-5,o),
(420,-8,o),
(443,-8,cs),
(477,-8,o),
(508,-1,o),
(527,8,c),
(527,35,l),
(463,35,l),
(464,377,ls),
(464,521,o),
(377,556,o),
(273,556,cs)
);
},
{
closed = 1;
nodes = (
(393,216,o),
(393,135,o),
(393,88,c),
(375,73,o),
(327,37,o),
(257,37,cs),
(181,37,o),
(127,71,o),
(128,151,cs),
(128,257,o),
(288,285,o),
(393,285,c)
);
},
{
closed = 1;
nodes = (
(144,795,o),
(115,771,o),
(115,741,cs),
(115,712,o),
(138,696,o),
(163,696,cs),
(192,696,o),
(220,716,o),
(220,749,cs),
(220,774,o),
(205,795,o),
(172,795,cs)
);
},
{
closed = 1;
nodes = (
(366,795,o),
(337,771,o),
(337,741,cs),
(337,712,o),
(359,696,o),
(385,696,cs),
(414,696,o),
(442,716,o),
(442,749,cs),
(442,774,o),
(427,795,o),
(394,795,cs)
);
}
);
};
layerId = "E777F328-EA17-4AE7-9EBA-8002E537BA4F";
name = Light;
shapes = (
{
ref = a;
},
{
pos = (38,0);
ref = dieresiscomb;
}
);
width = 559;
},
{
layerId = "39185045-6A8C-415A-8312-7B8F11386A4C";
name = Regular;
shapes = (
{
ref = a;
},
{
pos = (20,0);
ref = dieresiscomb;
}
);
width = 559;
},
{
layerId = "B26750D4-52C5-4F85-819B-BFB2F142DAD5";
name = Bold;
shapes = (
{
ref = a;
},
{
pos = (41,0);
ref = dieresiscomb;
}
);
width = 599;
}
);
unicode = 228;
},
{
color = 5;
glyphname = agrave;
lastChange = "2025-01-09 17:15:31 +0000";
layers = (
{
layerId = "E777F328-EA17-4AE7-9EBA-8002E537BA4F";
name = Light;
shapes = (
{
ref = a;
},
{
pos = (43,0);
ref = gravecomb;
}
);
width = 559;
},
{
layerId = "39185045-6A8C-415A-8312-7B8F11386A4C";
name = Regular;
shapes = (
{
ref = a;
},
{
pos = (10,0);
ref = gravecomb;
}
);
width = 559;
},
{
background = {
shapes = (
{
closed = 1;
nodes = (
(350,653,l),
(311,651,o),
(264,673,o),
(221,704,cs),
(178,734,o),
(139,773,o),
(114,809,c),
(239,904,l),
(393,696,l)
);
},
{
closed = 1;
nodes = (
(50,230,o),
(77,260,o),
(114,282,cs),
(150,304,o),
(195,319,o),
(240,329,cs),
(284,339,o),
(327,343,o),
(359,343,c),
(359,395,o),
(350,426,o),
(333,445,cs),
(314,463,o),
(289,469,o),
(255,469,cs),
(213,469,o),
(177,461,o),
(148,452,cs),
(120,442,o),
(101,432,o),
(94,427,c),
(61,502,l),
(71,510,o),
(98,525,o),
(140,539,cs),
(182,552,o),
(239,562,o),
(308,562,cs),
(374,562,o),
(430,552,o),
(469,521,cs),
(509,491,o),
(532,441,o),
(532,361,cs),
(532,66,l),
(596,66,l),
(596,14,l),
(579,2,o),
(558,-4,o),
(535,-8,cs),
(512,-12,o),
(489,-14,o),
(470,-14,cs),
(458,-14,o),
(436,-12,o),
(417,-3,cs),
(399,4,o),
(383,19,o),
(382,42,c),
(348,10,o),
(303,-14,o),
(240,-14,cs),
(155,-14,o),
(99,12,o),
(67,50,cs),
(35,88,o),
(27,140,o),
(41,192,cs)
);
},
{
closed = 1;
nodes = (
(209,101,o),
(246,72,o),
(315,82,cs),
(333,84,o),
(347,91,o),
(359,101,c),
(359,128,o),
(359,157,o),
(359,185,cs),
(359,212,o),
(359,240,o),
(359,268,c),
(339,268,o),
(315,266,o),
(293,260,cs),
(271,254,o),
(250,244,o),
(235,229,cs),
(219,213,o),
(209,192,o),
(209,164,cs)
);
}
);
};
layerId = "B26750D4-52C5-4F85-819B-BFB2F142DAD5";
name = Bold;
shapes = (
{
ref = a;
},
{
ref = gravecomb;
}
);
width = 599;
}
);
unicode = 224;
},
{
glyphname = aogonek;
lastChange = "2014-11-13 18:41:45 +0000";
layers = (
{
background = {
shapes = (
{
closed = 1;
nodes = (
(226,556,o),
(126,537,o),
(78,497,c),
(92,462,l),
(128,485,o),
(200,506,o),
(249,506,cs),
(338,506,o),
(393,477,o),
(393,368,cs),
(393,325,l),
(271,325,o),
(68,288,o),
(57,152,cs),
(50,47,o),
(134,-11,o),
(221,-11,cs),
(308,-11,o),
(361,18,o),
(397,59,c),
(397,39,ls),
(397,0,o),
(415,-6,o),
(435,-8,c),
(385,-27,o),
(303,-83,o),
(303,-155,cs),
(303,-275,o),
(464,-269,o),
(529,-217,c),
(529,-183,l),
(473,-215,o),
(370,-223,o),
(370,-136,cs),
(370,-70,o),
(458,-20,o),
(533,8,c),
(525,6,l),
(527,8,l),
(527,35,l),
(463,35,l),
(464,377,ls),
(464,521,o),
(377,556,o),
(273,556,cs)
);
},
{
closed = 1;
nodes = (
(393,216,o),
(393,135,o),
(393,88,c),
(375,73,o),
(327,37,o),
(257,37,cs),
(181,37,o),
(127,71,o),
(128,151,cs),
(128,257,o),
(288,285,o),
(393,285,c)
);
}
);
};
layerId = "E777F328-EA17-4AE7-9EBA-8002E537BA4F";
name = Light;
shapes = (
{
closed = 1;
nodes = (
(226,556,o),
(126,537,o),
(78,497,c),
(92,462,l),
(128,485,o),
(200,506,o),
(249,506,cs),
(338,506,o),
(393,477,o),
(393,368,cs),
(393,325,l),
(268,325,o),
(57,286,o),
(57,140,cs),
(57,43,o),
(137,-11,o),
(221,-11,cs),
(308,-11,o),
(361,18,o),
(397,59,c),
(397,12,o),
(399,-4,o),
(435,-8,c),
(385,-27,o),
(303,-83,o),
(303,-155,cs),
(303,-225,o),
(358,-252,o),
(417,-252,cs),
(458,-252,o),
(502,-239,o),
(529,-217,c),
(529,-183,l),
(506,-196,o),
(475,-205,o),
(446,-205,cs),
(405,-205,o),
(370,-187,o),
(370,-136,cs),
(370,-70,o),
(454,-22,o),
(527,6,c),
(527,35,l),
(463,35,l),
(464,377,ls),
(464,521,o),
(377,556,o),
(273,556,cs)
);
},
{
closed = 1;
nodes = (
(393,88,l),
(375,73,o),
(327,37,o),
(257,37,cs),
(181,37,o),
(127,71,o),
(128,151,cs),
(128,257,o),
(288,285,o),
(393,285,c)
);
}
);
width = 559;
},
{
background = {
shapes = (
{
closed = 1;
nodes = (
(226,556,o),
(127,538,o),
(79,498,c),
(97,454,l),
(142,476,o),
(201,491,o),
(239,491,cs),
(314,491,o),
(373,470,o),
(373,367,cs),
(373,325,l),
(282,325,o),
(71,293,o),
(58,157,cs),
(47,66,o),
(114,-12,o),
(215,-12,cs),
(297,-12,o),
(348,16,o),
(378,53,c),
(378,39,ls),
(378,-5,o),
(407,-12,o),
(430,-12,c),
(373,-38,o),
(313,-103,o),
(313,-158,cs),
(313,-275,o),
(469,-269,o),
(536,-218,c),
(536,-175,l),
(481,-197,o),
(401,-206,o),
(401,-130,cs),
(401,-86,o),
(463,-27,o),
(536,9,c),
(523,7,l),
(525,7,o),
(526,8,o),
(528,9,c),
(528,42,l),
(466,42,l),
(467,377,ls),
(467,519,o),
(378,556,o),
(275,556,cs)
);
},
{
closed = 1;
nodes = (
(372,213,o),
(372,153,o),
(372,92,c),
(352,72,o),
(306,50,o),
(268,50,cs),
(195,50,o),
(152,79,o),
(152,155,cs),
(152,250,o),
(290,274,o),
(373,274,c)
);
}
);
};
layerId = "39185045-6A8C-415A-8312-7B8F11386A4C";
name = Regular;
shapes = (
{
closed = 1;
nodes = (
(226,556,o),
(127,538,o),
(79,498,c),
(97,454,l),
(142,476,o),
(201,491,o),
(239,491,cs),
(314,491,o),
(373,470,o),
(373,367,cs),
(373,325,l),
(253,325,o),
(53,280,o),
(57,138,cs),
(57,55,o),
(121,-12,o),
(215,-12,cs),
(297,-12,o),
(348,16,o),
(378,53,c),
(378,9,o),
(387,-12,o),
(430,-12,c),
(373,-38,o),
(313,-103,o),
(313,-158,cs),
(313,-226,o),
(366,-253,o),
(424,-253,cs),
(465,-253,o),
(508,-239,o),
(536,-218,c),
(536,-175,l),
(514,-184,o),
(488,-191,o),
(465,-191,cs),
(430,-191,o),
(401,-176,o),
(401,-130,cs),
(401,-87,o),
(459,-31,o),
(528,5,c),
(528,42,l),
(466,42,l),
(467,377,ls),
(467,519,o),
(378,556,o),
(275,556,cs)
);
},
{
closed = 1;
nodes = (
(372,92,l),
(352,72,o),
(306,50,o),
(268,50,cs),
(195,50,o),
(152,79,o),
(152,155,cs),
(152,250,o),
(290,274,o),
(373,274,c)
);
}
);
width = 559;
},
{
layerId = "B26750D4-52C5-4F85-819B-BFB2F142DAD5";
name = Bold;
shapes = (
{
closed = 1;
nodes = (
(227,562,o),
(112,543,o),
(61,502,c),
(94,427,l),
(129,452,o),
(200,469,o),
(255,469,cs),
(333,469,o),
(359,435,o),
(359,347,c),
(359,343,l),
(204,343,o),
(34,285,o),
(34,143,cs),
(34,42,o),
(121,-14,o),
(240,-14,cs),
(303,-14,o),
(348,10,o),
(382,42,c),
(382,12,o),
(412,-6,o),
(445,-11,c),
(389,-47,o),
(343,-94,o),
(343,-158,cs),
(343,-224,o),
(405,-253,o),
(477,-253,cs),
(521,-253,o),
(563,-241,o),
(593,-220,c),
(593,-148,l),
(573,-152,o),
(554,-155,o),
(537,-155,cs),
(507,-155,o),
(479,-146,o),
(479,-113,cs),
(479,-66,o),
(530,-26,o),
(596,14,c),
(596,66,l),
(532,66,l),
(532,361,ls),
(532,506,o),
(456,562,o),
(308,562,cs)
);
},
{
closed = 1;
nodes = (
(359,101,l),
(340,85,o),
(317,80,o),
(290,80,cs),
(237,80,o),
(209,109,o),
(209,164,cs),
(209,234,o),
(274,268,o),
(359,268,c)
);
}
);
width = 599;
}
);
unicode = 261;
},
{
color = 5;
glyphname = aring;
lastChange = "2025-01-09 17:04:09 +0000";
layers = (
{
layerId = "E777F328-EA17-4AE7-9EBA-8002E537BA4F";
name = Light;
shapes = (
{
ref = a;
},
{
pos = (143,0);
ref = ringcomb;
}
);
width = 559;
},
{
layerId = "39185045-6A8C-415A-8312-7B8F11386A4C";
name = Regular;
shapes = (
{
ref = a;
},
{
pos = (140,0);
ref = ringcomb;
}
);
width = 559;
},
{
background = {
shapes = (
{
closed = 1;
nodes = (
(252,627,o),
(216,643,o),
(190,667,cs),
(164,691,o),
(148,725,o),
(148,762,cs),
(148,799,o),
(164,833,o),
(190,857,cs),
(216,881,o),
(252,896,o),
(291,896,cs),
(331,896,o),
(367,880,o),
(393,855,cs),
(419,831,o),
(435,797,o),
(435,762,cs),
(435,725,o),
(419,691,o),
(393,667,cs),
(367,643,o),
(331,627,o),
(291,627,cs)
);
},
{
closed = 1;
nodes = (
(309,697,o),
(325,704,o),
(337,715,cs),
(349,727,o),
(355,743,o),
(355,762,cs),
(355,779,o),
(349,796,o),
(337,808,cs),
(325,820,o),
(309,827,o),
(291,827,cs),
(271,827,o),
(255,820,o),
(244,809,cs),
(232,797,o),
(226,781,o),
(226,762,cs),
(226,743,o),
(232,727,o),
(244,715,c),
(255,704,o),
(271,697,o),
(291,697,cs)
);
},
{
closed = 1;
nodes = (
(50,230,o),
(77,260,o),
(114,282,cs),
(150,304,o),
(195,319,o),
(240,329,cs),
(284,339,o),
(327,343,o),
(359,343,c),
(359,395,o),
(350,426,o),
(333,445,cs),
(314,463,o),
(289,469,o),
(255,469,cs),
(213,469,o),
(177,461,o),
(148,452,cs),
(120,442,o),
(101,432,o),
(94,427,c),
(61,502,l),
(71,510,o),
(98,525,o),
(140,539,cs),
(182,552,o),
(239,562,o),
(308,562,cs),
(374,562,o),
(430,552,o),
(469,521,cs),
(509,491,o),
(532,441,o),
(532,361,cs),
(532,66,l),
(596,66,l),
(596,14,l),
(579,2,o),
(558,-4,o),
(535,-8,cs),
(512,-12,o),
(489,-14,o),
(470,-14,cs),
(458,-14,o),
(436,-12,o),
(417,-3,cs),
(399,4,o),
(383,19,o),
(382,42,c),
(348,10,o),
(303,-14,o),
(240,-14,cs),
(155,-14,o),
(99,12,o),
(67,50,cs),
(35,88,o),
(27,140,o),
(41,192,cs)
);
},
{
closed = 1;
nodes = (
(209,101,o),
(246,72,o),
(315,82,cs),
(333,84,o),
(347,91,o),
(359,101,c),
(359,128,o),
(359,157,o),
(359,185,cs),
(359,212,o),
(359,240,o),
(359,268,c),
(339,268,o),
(315,266,o),
(293,260,cs),
(271,254,o),
(250,244,o),
(235,229,cs),
(219,213,o),
(209,192,o),
(209,164,cs)
);
}
);
};
layerId = "B26750D4-52C5-4F85-819B-BFB2F142DAD5";
name = Bold;
shapes = (
{
ref = a;
},
{
pos = (144,0);
ref = ringcomb;
}
);
width = 599;
}
);
unicode = 229;
},
{
color = 5;
glyphname = atilde;
lastChange = "2025-01-09 17:04:09 +0000";
layers = (
{
layerId = "E777F328-EA17-4AE7-9EBA-8002E537BA4F";
name = Light;
shapes = (
{
ref = a;
},
{
pos = (63,0);
ref = tildecomb;
}
);
width = 559;
},
{
layerId = "39185045-6A8C-415A-8312-7B8F11386A4C";
name = Regular;
shapes = (
{
ref = a;
},
{
pos = (64,0);
ref = tildecomb;
}
);
width = 559;
},
{
background = {
shapes = (
{
closed = 1;
nodes = (
(82,716,l),
(92,745,o),
(119,771,o),
(148,789,cs),
(177,807,o),
(209,818,o),
(232,818,cs),
(268,818,o),
(293,806,o),
(315,793,cs),
(336,781,o),
(354,769,o),
(375,769,cs),
(410,769,o),
(435,787,o),
(456,804,c),
(500,756,l),
(488,728,o),
(463,702,o),
(435,684,cs),
(407,665,o),
(375,653,o),
(353,653,cs),
(317,653,o),
(291,666,o),
(269,679,cs),
(246,691,o),
(227,704,o),
(206,704,cs),
(192,704,o),
(177,699,o),
(163,692,cs),
(149,686,o),
(136,677,o),
(124,668,c)
);
},
{
closed = 1;
nodes = (
(50,230,o),
(77,260,o),
(114,282,cs),
(150,304,o),
(195,319,o),
(240,329,cs),
(284,339,o),
(327,343,o),
(359,343,c),
(359,395,o),
(350,426,o),
(333,445,cs),
(314,463,o),
(289,469,o),
(255,469,cs),
(213,469,o),
(177,461,o),
(148,452,cs),
(120,442,o),
(101,432,o),
(94,427,c),
(61,502,l),
(71,510,o),
(98,525,o),
(140,539,cs),
(182,552,o),
(239,562,o),
(308,562,cs),
(374,562,o),
(430,552,o),
(469,521,cs),
(509,491,o),
(532,441,o),
(532,361,cs),
(532,66,l),
(596,66,l),
(596,14,l),
(579,2,o),
(558,-4,o),
(535,-8,cs),
(512,-12,o),
(489,-14,o),
(470,-14,cs),
(458,-14,o),
(436,-12,o),
(417,-3,cs),
(399,4,o),
(383,19,o),
(382,42,c),
(348,10,o),
(303,-14,o),
(240,-14,cs),
(155,-14,o),
(99,12,o),
(67,50,cs),
(35,88,o),
(27,140,o),
(41,192,cs)
);
},
{
closed = 1;
nodes = (
(209,101,o),
(246,72,o),
(315,82,cs),
(333,84,o),
(347,91,o),
(359,101,c),
(359,128,o),
(359,157,o),
(359,185,cs),
(359,212,o),
(359,240,o),
(359,268,c),
(339,268,o),
(315,266,o),
(293,260,cs),
(271,254,o),
(250,244,o),
(235,229,cs),
(219,213,o),
(209,192,o),
(209,164,cs)
);
}
);
};
layerId = "B26750D4-52C5-4F85-819B-BFB2F142DAD5";
name = Bold;
shapes = (
{
ref = a;
},
{
pos = (36,0);
ref = tildecomb;
}
);
width = 599;
}
);
unicode = 227;
},
{
color = 4;
glyphname = ae;
lastChange = "2025-01-09 17:02:38 +0000";
layers = (
{
anchors = (
{
name = bottom;
pos = (442,0);
},
{
name = top;
pos = (442,546);
}
);
layerId = "E777F328-EA17-4AE7-9EBA-8002E537BA4F";
name = Light;
shapes = (
{
closed = 1;
nodes = (
(559,561,o),
(489,519,o),
(446,447,c),
(424,537,o),
(354,556,o),
(277,556,cs),
(219,556,o),
(123,532,o),
(79,497,c),
(91,460,l),
(135,486,o),
(205,506,o),
(252,506,cs),
(333,506,o),
(391,480,o),
(391,368,cs),
(391,323,l),
(290,327,o),
(66,292,o),
(57,153,cs),
(50,48,o),
(133,-11,o),
(216,-11,cs),
(314,-11,o),
(402,35,o),
(431,105,c),
(468,32,o),
(535,-12,o),
(637,-12,cs),
(705,-12,o),
(789,9,o),
(824,43,c),
(809,77,l),
(783,58,o),
(718,38,o),
(663,38,cs),
(547,38,o),
(458,114,o),
(461,280,c),
(829,280,l),
(832,301,o),
(835,326,o),
(834,359,cs),
(830,491,o),
(761,564,o),
(652,563,cs)
);
},
{
closed = 1;
nodes = (
(390,133,l),
(376,77,o),
(319,37,o),
(252,37,cs),
(177,37,o),
(128,75,o),
(128,152,cs),
(128,261,o),
(305,287,o),
(391,285,c)
);
},
{
closed = 1;
nodes = (
(656,522,o),
(676,518,o),
(693,508,cs),
(748,479,o),
(764,409,o),
(759,324,c),
(462,324,l),
(473,453,o),
(542,522,o),
(633,522,cs)
);
}
);
width = 884;
},
{
anchors = (
{
name = bottom;
pos = (440,0);
},
{
name = top;
pos = (440,546);
}
);
layerId = "39185045-6A8C-415A-8312-7B8F11386A4C";
name = Regular;
shapes = (
{
closed = 1;
nodes = (
(561,561,o),
(494,529,o),
(446,477,c),
(413,538,o),
(348,556,o),
(275,556,cs),
(226,556,o),
(127,538,o),
(79,498,c),
(97,454,l),
(142,476,o),
(201,491,o),
(239,491,cs),
(314,491,o),
(373,470,o),
(373,367,cs),
(373,325,l),
(282,325,o),
(71,293,o),
(58,157,cs),
(47,66,o),
(114,-12,o),
(215,-12,cs),
(310,-12,o),
(389,26,o),
(426,78,c),
(468,21,o),
(532,-12,o),
(618,-12,cs),
(692,-12,o),
(785,9,o),
(823,43,c),
(805,84,l),
(777,69,o),
(706,55,o),
(655,55,cs),
(572,55,o),
(469,96,o),
(466,266,c),
(828,266,l),
(831,290,o),
(835,318,o),
(833,359,cs),
(828,488,o),
(758,565,o),
(643,563,cs)
);
},
{
closed = 1;
nodes = (
(372,92,l),
(352,72,o),
(306,50,o),
(268,50,cs),
(195,50,o),
(152,79,o),
(152,155,cs),
(152,250,o),
(290,274,o),
(373,274,c)
);
},
{
closed = 1;
nodes = (
(645,510,o),
(666,505,o),
(683,494,cs),
(732,462,o),
(738,390,o),
(734,324,c),
(467,324,l),
(477,458,o),
(544,510,o),
(617,510,cs)
);
}
);
width = 879;
},
{
anchors = (
{
name = bottom;
pos = (462,0);
},
{
name = top;
pos = (462,546);
}
);
background = {
shapes = (
{
closed = 1;
nodes = (
(288,-14,o),
(328,-6,o),
(360,6,cs),
(392,18,o),
(417,35,o),
(437,54,c),
(484,11,o),
(551,-12,o),
(638,-14,cs),
(685,-15,o),
(734,-7,o),
(777,5,cs),
(820,17,o),
(857,35,o),
(882,56,c),
(856,119,l),
(804,96,o),
(743,84,o),
(696,84,cs),
(597,84,o),
(545,144,o),
(536,259,c),
(881,259,l),
(885,286,o),
(890,317,o),
(888,358,cs),
(886,417,o),
(869,469,o),
(832,505,cs),
(795,541,o),
(739,562,o),
(661,562,cs),
(589,562,o),
(529,543,o),
(482,510,c),
(441,549,o),
(380,562,o),
(308,562,cs),
(239,562,o),
(182,552,o),
(140,539,cs),
(98,525,o),
(71,510,o),
(61,502,c),
(94,424,l),
(101,430,o),
(120,440,o),
(148,449,cs),
(177,458,o),
(213,466,o),
(255,466,cs),
(270,466,o),
(283,465,o),
(295,463,cs),
(319,458,o),
(336,445,o),
(347,421,cs),
(358,397,o),
(359,366,o),
(359,343,c),
(327,343,o),
(284,339,o),
(240,329,cs),
(195,319,o),
(150,304,o),
(114,282,cs),
(77,260,o),
(50,230,o),
(41,192,cs),
(27,140,o),
(35,88,o),
(67,50,cs),
(99,12,o),
(155,-14,o),
(240,-14,cs)
);
},
{
closed = 1;
nodes = (
(246,72,o),
(209,101,o),
(209,164,cs),
(209,192,o),
(219,213,o),
(235,229,cs),
(250,244,o),
(271,254,o),
(293,260,cs),
(315,266,o),
(339,268,o),
(359,268,c),
(359,239,o),
(359,210,o),
(359,182,cs),
(359,153,o),
(359,125,o),
(359,96,c),
(349,90,o),
(335,85,o),
(315,82,cs)
);
},
{
closed = 1;
nodes = (
(538,371,o),
(544,399,o),
(555,423,cs),
(575,470,o),
(607,494,o),
(645,494,cs),
(660,494,o),
(673,491,o),
(683,486,cs),
(703,477,o),
(715,460,o),
(719,439,cs),
(724,417,o),
(725,394,o),
(723,371,cs),
(722,359,o),
(721,348,o),
(720,337,c),
(536,337,l)
);
}
);
};
layerId = "B26750D4-52C5-4F85-819B-BFB2F142DAD5";
name = Bold;
shapes = (
{
closed = 1;
nodes = (
(589,562,o),
(529,543,o),
(482,510,c),
(441,549,o),
(380,562,o),
(308,562,cs),
(227,562,o),
(112,543,o),
(61,502,c),
(94,424,l),
(121,447,o),
(203,466,o),
(255,466,cs),
(334,466,o),
(358,434,o),
(359,349,c),
(359,343,l),
(199,343,o),
(34,281.834,o),
(34,143,cs),
(34,42,o),
(121,-14,o),
(240,-14,cs),
(312,-14,o),
(384,4,o),
(437,54,c),
(486,10,o),
(555,-14,o),
(646,-14,cs),
(721,-14,o),
(827,9,o),
(882,56,c),
(856,119,l),
(804,96,o),
(743,84,o),
(696,84,cs),
(597,84,o),
(545,144,o),
(536,259,c),
(881,259,l),
(884,282,o),
(888,307,o),
(888,339,cs),
(888,489,o),
(810,562,o),
(661,562,cs)
);
},
{
closed = 1;
nodes = (
(359,96,l),
(343,86,o),
(311,80,o),
(290,80,cs),
(237,80,o),
(209,109,o),
(209,164,cs),
(209,238,o),
(279,268,o),
(359,268,c)
);
},
{
closed = 1;
nodes = (
(705,494,o),
(724,454,o),
(724,393,cs),
(724,387,o),
(722,357,o),
(720,337,c),
(536,337,l),
(541,418,o),
(576,494,o),
(645,494,cs)
);
}
);
width = 924;
}
);
unicode = 230;
},
{
color = 4;
glyphname = b;
lastChange = "2025-01-09 17:02:38 +0000";
layers = (
{
anchors = (
{
name = bottom;
pos = (309,0);
},
{
name = center;
pos = (154,837);
},
{
name = top;
pos = (309,546);
}
);
layerId = "E777F328-EA17-4AE7-9EBA-8002E537BA4F";
name = Light;
shapes = (
{
closed = 1;
nodes = (
(105,24,l),
(118,10,o),
(197,-14,o),
(289,-14,cs),
(454,-14,o),
(565,124,o),
(565,295,cs),
(565,490,o),
(458,563,o),
(348,563,cs),
(272,563,o),
(214,529,o),
(175,498,c),
(175,784,l),
(158,792,l),
(21,778,l),
(21,745,l),
(105,732,l)
);
},
{
closed = 1;
nodes = (
(175,458,l),
(207,487,o),
(263,511,o),
(319,511,cs),
(411,511,o),
(497,450,o),
(495,278,cs),
(494,108,o),
(397,27,o),
(298,27,cs),
(242,27,o),
(186,38,o),
(175,65,c)
);
}
);
width = 617;
},
{
anchors = (
{
name = bottom;
pos = (309,0);
},
{
name = center;
pos = (154,837);
},
{
name = top;
pos = (309,546);
}
);
layerId = "39185045-6A8C-415A-8312-7B8F11386A4C";
name = Regular;
shapes = (
{
closed = 1;
nodes = (
(99,24,l),
(112,10,o),
(200,-14,o),
(292,-14,cs),
(457,-14,o),
(568,129,o),
(568,295,cs),
(568,490,o),
(461,563,o),
(352,563,cs),
(276,563,o),
(228,530,o),
(193,500,c),
(193,785,l),
(173,793,l),
(16,776,l),
(16,733,l),
(99,716,l)
);
},
{
closed = 1;
nodes = (
(193,449,l),
(214,469,o),
(256,495,o),
(313,495,cs),
(394,495,o),
(478,435,o),
(475,278,cs),
(473,111,o),
(388,38,o),
(303,38,cs),
(247,38,o),
(203,50,o),
(193,77,c)
);
}
);
width = 617;
},
{
anchors = (
{
name = bottom;
pos = (324,0);
},
{
name = center;
pos = (162,837);
},
{
name = top;
pos = (324,546);
}
);
background = {
shapes = (
{
closed = 1;
nodes = (
(398,-14,o),
(475,24,o),
(529,81,cs),
(583,138,o),
(612,216,o),
(612,295,cs),
(612,393,o),
(583,459,o),
(539,502,cs),
(494,544,o),
(435,562,o),
(374,562,cs),
(321,562,o),
(277,549,o),
(246,531,c),
(246,787,l),
(218,795,l),
(12,772,l),
(12,704,l),
(73,676,l),
(73,27,l),
(76,24,o),
(85,20,o),
(101,15,c),
(115,10,o),
(133,6,o),
(155,1,cs),
(198,-7,o),
(253,-14,o),
(304,-14,cs)
);
},
{
closed = 1;
nodes = (
(298,57,o),
(282,63,o),
(270,72,cs),
(257,80,o),
(250,90,o),
(246,98,c),
(246,467,l),
(261,473,o),
(280,477,o),
(307,477,cs),
(338,477,o),
(372,461,o),
(397,429,cs),
(423,396,o),
(440,347,o),
(438,277,cs),
(436,189,o),
(420,134,o),
(398,101,cs),
(377,68,o),
(349,57,o),
(322,57,cs)
);
}
);
};
layerId = "B26750D4-52C5-4F85-819B-BFB2F142DAD5";
name = Bold;
shapes = (
{
closed = 1;
nodes = (
(73,27,l),
(109,5,o),
(220,-14,o),
(304,-14,cs),
(478,-14,o),
(612,121,o),
(612,295,cs),
(612,458,o),
(527,562,o),
(374,562,cs),
(321,562,o),
(277,549,o),
(246,531,c),
(246,787,l),
(218,795,l),
(12,772,l),
(12,704,l),
(73,676,l)
);
},
{
closed = 1;
nodes = (
(246,467,l),
(261,473,o),
(280,477,o),
(307,477,cs),
(392,477,o),
(441,382,o),
(438,277,cs),
(435,166,o),
(408,57,o),
(322,57,cs),
(289,57,o),
(259,72,o),
(246,98,c)
);
}
);
width = 648;
}
);
unicode = 98;
},
{
color = 4;
glyphname = c;
lastChange = "2025-01-09 17:04:36 +0000";
layers = (
{
anchors = (
{
name = bottom;
pos = (337,0);
},
{
name = top;
pos = (317,546);
}
);
layerId = "E777F328-EA17-4AE7-9EBA-8002E537BA4F";
name = Light;
shapes = (
{
closed = 1;
nodes = (
(167,555,o),
(51,443,o),
(52,263,cs),
(54,106,o),
(136,-10,o),
(285,-10,cs),
(358,-10,o),
(435,9,o),
(473,43,c),
(459,78,l),
(428,55,o),
(357,41,o),
(313,41,cs),
(217,41,o),
(119,111,o),
(121,296,cs),
(122,439,o),
(210,517,o),
(311,517,cs),
(344,517,o),
(379,512,o),
(402,495,c),
(422,432,l),
(458,432,l),
(458,537,l),
(432,554,o),
(371,563,o),
(317,561,cs)
);
}
);
width = 513;
},
{
anchors = (
{
name = bottom;
pos = (335,0);
},
{
name = top;
pos = (335,546);
}
);
layerId = "39185045-6A8C-415A-8312-7B8F11386A4C";
name = Regular;
shapes = (
{
closed = 1;
nodes = (
(167,555,o),
(50,443,o),
(51,263,cs),
(53,106,o),
(136,-10,o),
(287,-10,cs),
(360,-10,o),
(438,9,o),
(476,43,c),
(459,86,l),
(432,70,o),
(370,57,o),
(319,57,cs),
(237,57,o),
(140,128,o),
(141,306,cs),
(143,440,o),
(220,504,o),
(307,504,cs),
(331,504,o),
(366,498,o),
(387,481,c),
(412,419,l),
(458,419,l),
(458,537,l),
(432,554,o),
(373,563,o),
(317,561,cs)
);
}
);
width = 510;
},
{
anchors = (
{
name = bottom;
pos = (347,0);
},
{
name = top;
pos = (347,546);
}
);
layerId = "B26750D4-52C5-4F85-819B-BFB2F142DAD5";
name = Bold;
shapes = (
{
closed = 1;
nodes = (
(169,562,o),
(37,443,o),
(37,260,cs),
(37,96,o),
(139,-14,o),
(308,-14,cs),
(407,-14,o),
(486,11,o),
(538,56,c),
(512,117,l),
(481,94,o),
(420,83,o),
(375,83,cs),
(270,83,o),
(216,167,o),
(216,288,cs),
(216,390,o),
(247,486,o),
(328,486,cs),
(349,486,o),
(374,485,o),
(392,474,c),
(431,382,l),
(520,382,l),
(520,537,l),
(488,554,o),
(406,562,o),
(357,562,cs)
);
}
);
width = 554;
}
);
unicode = 99;
},
{
color = 5;
glyphname = ccedilla;
lastChange = "2025-01-09 17:14:42 +0000";
layers = (
{
background = {
shapes = (
{
closed = 1;
nodes = (
(167,555,o),
(51,443,o),
(52,263,cs),
(54,116,o),
(126,3,o),
(259,-9,c),
(251,-40,o),
(248,-67,o),
(247,-97,c),
(252,-95,o),
(268,-94,o),
(278,-94,cs),
(329,-94,o),
(365,-111,o),
(365,-154,cs),
(365,-210,o),
(318,-217,o),
(281,-217,cs),
(267,-217,o),
(235,-213,o),
(217,-208,c),
(217,-247,l),
(241,-253,o),
(263,-260,o),
(313,-257,cs),
(379,-255,o),
(437,-219,o),
(437,-154,cs),
(437,-104,o),
(394,-58,o),
(303,-62,c),
(301,-45,o),
(302,-25,o),
(304,-10,c),
(372,-6,o),
(438,12,o),
(473,43,c),
(459,78,l),
(428,55,o),
(357,41,o),
(313,41,cs),
(217,41,o),
(119,111,o),
(121,296,cs),
(122,439,o),
(210,517,o),
(311,517,cs),
(344,517,o),
(379,512,o),
(402,495,c),
(422,432,l),
(458,432,l),
(458,537,l),
(432,554,o),
(371,563,o),
(317,561,cs)
);
}
);
};
layerId = "E777F328-EA17-4AE7-9EBA-8002E537BA4F";
name = Light;
shapes = (
{
ref = c;
},
{
pos = (206,0);
ref = cedillacomb;
}
);
width = 513;
},
{
background = {
shapes = (
{
closed = 1;
nodes = (
(167,555,o),
(50,443,o),
(51,263,cs),
(53,118,o),
(123,7,o),
(253,-8,c),
(244,-44,o),
(238,-74,o),
(238,-104,c),
(240,-104,o),
(254,-102,o),
(262,-102,cs),
(314,-102,o),
(338,-122,o),
(338,-151,cs),
(338,-200,o),
(306,-205,o),
(270,-205,cs),
(258,-205,o),
(230,-202,o),
(215,-198,c),
(214,-247,l),
(234,-252,o),
(253,-260,o),
(311,-257,cs),
(382,-253,o),
(434,-218,o),
(434,-153,cs),
(434,-111,o),
(399,-61,o),
(310,-61,c),
(308,-44,o),
(309,-25,o),
(310,-10,c),
(376,-6,o),
(442,13,o),
(476,43,c),
(459,86,l),
(432,70,o),
(370,57,o),
(319,57,cs),
(237,57,o),
(140,128,o),
(141,306,cs),
(143,440,o),
(220,504,o),
(307,504,cs),
(331,504,o),
(366,498,o),
(387,481,c),
(412,419,l),
(458,419,l),
(458,537,l),
(432,554,o),
(373,563,o),
(317,561,cs)
);
}
);
};
layerId = "39185045-6A8C-415A-8312-7B8F11386A4C";
name = Regular;
shapes = (
{
ref = c;
},
{
pos = (80,0);
ref = cedillacomb;
}
);
width = 510;
},
{
background = {
shapes = (
{
closed = 1;
nodes = (
(36,351,o),
(70,426,o),
(125,478,cs),
(179,530,o),
(255,559,o),
(340,562,cs),
(373,563,o),
(411,561,o),
(444,556,cs),
(477,552,o),
(505,545,o),
(520,537,c),
(520,382,l),
(431,382,l),
(392,474,l),
(374,485,o),
(349,486,o),
(328,486,cs),
(294,486,o),
(268,469,o),
(249,438,cs),
(229,407,o),
(218,362,o),
(216,305,cs),
(213,226,o),
(231,170,o),
(261,134,cs),
(291,99,o),
(332,83,o),
(375,83,cs),
(404,83,o),
(433,87,o),
(457,93,cs),
(480,99,o),
(500,108,o),
(512,117,c),
(538,56,l),
(494,18,o),
(429,-5,o),
(351,-12,c),
(350,-29,o),
(352,-50,o),
(353,-65,c),
(394,-69,o),
(420,-85,o),
(436,-104,cs),
(452,-122,o),
(458,-144,o),
(458,-159,cs),
(458,-192,o),
(445,-216,o),
(422,-232,cs),
(400,-249,o),
(368,-258,o),
(330,-260,cs),
(299,-262,o),
(272,-260,o),
(251,-256,cs),
(229,-252,o),
(211,-248,o),
(201,-246,c),
(201,-173,l),
(209,-175,o),
(223,-176,o),
(235,-178,cs),
(247,-179,o),
(259,-180,o),
(263,-180,cs),
(284,-180,o),
(296,-169,o),
(296,-152,cs),
(296,-133,o),
(282,-125,o),
(266,-125,cs),
(262,-125,o),
(255,-125,o),
(250,-125,c),
(247,-125,o),
(244,-125,o),
(242,-126,cs),
(239,-126,o),
(238,-126,o),
(238,-126,c),
(238,-113,o),
(241,-92,o),
(245,-70,cs),
(249,-48,o),
(254,-25,o),
(259,-10,c),
(187,0,o),
(131,31,o),
(94,78,cs),
(57,124,o),
(37,186,o),
(37,256,cs)
);
}
);
};
layerId = "B26750D4-52C5-4F85-819B-BFB2F142DAD5";
name = Bold;
shapes = (
{
ref = c;
},
{
pos = (119,0);
ref = cedillacomb;
}
);
width = 554;
}
);
unicode = 231;
},
{
color = 4;
glyphname = d;
lastChange = "2025-01-09 17:02:38 +0000";
layers = (
{
anchors = (
{
name = bottom;
pos = (310,0);
},
{
name = center;
pos = (465,837);
},
{
name = top;
pos = (310,546);
},
{
name = topright;
pos = (600,1046);
}
);
background = {
shapes = (
{
closed = 1;
nodes = (
(342,776,l),
(342,743,l),
(442,731,l),
(442,542,l),
(421,549,o),
(391,563,o),
(332,563,cs),
(177,563,o),
(52,438,o),
(52,264,cs),
(52,73,o),
(154,-12,o),
(268,-12,cs),
(359,-12,o),
(419,23,o),
(445,46,c),
(445,3,o),
(450,-11,o),
(490,-11,cs),
(517,-11,o),
(558,-4,o),
(579,5,c),
(579,35,l),
(513,35,l),
(513,782,l),
(494,792,l)
);
},
{
closed = 1;
nodes = (
(403,521,o),
(429,494,o),
(442,480,c),
(442,89,l),
(426,74,o),
(397,54,o),
(351,45,cs),
(333,42,o),
(315,40,o),
(295,40,cs),
(199,40,o),
(120,119,o),
(123,281,cs),
(125,450,o),
(228,521,o),
(324,521,cs)
);
}
);
};
layerId = "E777F328-EA17-4AE7-9EBA-8002E537BA4F";
name = Light;
shapes = (
{
closed = 1;
nodes = (
(342,776,l),
(342,743,l),
(442,731,l),
(442,542,l),
(421,549,o),
(391,563,o),
(332,563,cs),
(177,563,o),
(52,438,o),
(52,264,cs),
(52,73,o),
(154,-12,o),
(268,-12,cs),
(359,-12,o),
(419,23,o),
(445,46,c),
(445,3,o),
(450,-11,o),
(490,-11,cs),
(517,-11,o),
(558,-4,o),
(579,5,c),
(579,35,l),
(513,35,l),
(513,782,l),
(494,792,l)
);
},
{
closed = 1;
nodes = (
(403,521,o),
(429,494,o),
(442,480,c),
(442,89,l),
(404,54,o),
(348,40,o),
(295,40,cs),
(199,40,o),
(120,119,o),
(123,281,cs),
(125,450,o),
(228,521,o),
(324,521,cs)
);
}
);
width = 620;
},
{
anchors = (
{
name = bottom;
pos = (310,0);
},
{
name = center;
pos = (465,837);
},
{
name = top;
pos = (310,546);
},
{
name = topright;
pos = (600,1046);
}
);
background = {
shapes = (
{
closed = 1;
nodes = (
(319,773,l),
(319,730,l),
(423,713,l),
(423,550,l),
(400,558,o),
(366,563,o),
(331,563,cs),
(173,563,o),
(49,438,o),
(49,264,cs),
(49,74,o),
(153,-12,o),
(262,-12,cs),
(350,-12,o),
(407,25,o),
(427,47,c),
(427,-2,o),
(438,-16,o),
(480,-16,cs),
(514,-16,o),
(561,-7,o),
(583,5,c),
(583,42,l),
(517,42,l),
(517,782,l),
(495,793,l)
);
},
{
closed = 1;
nodes = (
(382,511,o),
(409,488,o),
(423,472,c),
(423,98,l),
(408,83,o),
(386,69,o),
(354,62,cs),
(338,58,o),
(321,55,o),
(300,55,cs),
(219,55,o),
(140,128,o),
(142,288,cs),
(144,458,o),
(246,511,o),
(319,511,cs)
);
}
);
};
layerId = "39185045-6A8C-415A-8312-7B8F11386A4C";
name = Regular;
shapes = (
{
closed = 1;
nodes = (
(319,773,l),
(319,730,l),
(423,713,l),
(423,550,l),
(400,558,o),
(366,563,o),
(331,563,cs),
(173,563,o),
(49,438,o),
(49,264,cs),
(49,74,o),
(153,-12,o),
(262,-12,cs),
(350,-12,o),
(407,25,o),
(427,47,c),
(427,-2,o),
(438,-16,o),
(480,-16,cs),
(514,-16,o),
(561,-7,o),
(583,5,c),
(583,42,l),
(517,42,l),
(517,782,l),
(495,793,l)
);
},
{
closed = 1;
nodes = (
(382,511,o),
(409,488,o),
(423,472,c),
(423,98,l),
(394,69,o),
(344,55,o),
(300,55,cs),
(219,55,o),
(140,128,o),
(142,288,cs),
(144,458,o),
(246,511,o),
(319,511,cs)
);
}
);
width = 620;
},
{
anchors = (
{
name = bottom;
pos = (338,0);
},
{
name = center;
pos = (506,837);
},
{
name = top;
pos = (338,546);
},
{
name = topright;
pos = (655,1046);
}
);
background = {
shapes = (
{
closed = 1;
nodes = (
(310,-14,o),
(343,-9,o),
(368,-3,cs),
(394,3,o),
(412,12,o),
(425,21,c),
(438,-1,o),
(463,-14,o),
(506,-14,cs),
(583,-14,o),
(632,2,o),
(654,14,c),
(654,66,l),
(585,66,l),
(585,783,l),
(553,796,l),
(304,772,l),
(304,704,l),
(412,676,l),
(412,558,l),
(387,562,o),
(369,562,o),
(354,562,cs),
(266,562,o),
(187,531,o),
(129,479,cs),
(72,426,o),
(36,352,o),
(36,264,cs),
(36,198,o),
(50,145,o),
(73,104,cs),
(96,63,o),
(128,34,o),
(163,15,cs),
(197,-5,o),
(234,-14,o),
(268,-14,cs)
);
},
{
closed = 1;
nodes = (
(333,65,o),
(322,67,o),
(311,72,cs),
(284,82,o),
(259,107,o),
(242,146,cs),
(224,184,o),
(214,235,o),
(216,301,cs),
(216,358,o),
(228,398,o),
(242,427,cs),
(257,456,o),
(276,473,o),
(294,483,cs),
(312,493,o),
(328,496,o),
(338,496,cs),
(361,496,o),
(389,494,o),
(412,479,c),
(412,75,l),
(397,69,o),
(375,65,o),
(345,65,cs)
);
}
);
};
layerId = "B26750D4-52C5-4F85-819B-BFB2F142DAD5";
name = Bold;
shapes = (
{
closed = 1;
nodes = (
(304,772,l),
(304,704,l),
(412,676,l),
(412,558,l),
(387,562,o),
(369,562,o),
(354,562,cs),
(180,562,o),
(36,441,o),
(36,264,cs),
(36,110,o),
(126,-14,o),
(268,-14,cs),
(320,-14,o),
(386,-6,o),
(425,21,c),
(438,-1,o),
(463,-14,o),
(506,-14,cs),
(583,-14,o),
(632,2,o),
(654,14,c),
(654,66,l),
(585,66,l),
(585,783,l),
(553,796,l)
);
},
{
closed = 1;
nodes = (
(361,496,o),
(389,494,o),
(412,479,c),
(412,75,l),
(397,69,o),
(375,65,o),
(345,65,cs),
(252,65,o),
(213,188,o),
(216,301,cs),
(216,392,o),
(255,496,o),
(338,496,cs)
);
}
);
width = 675;
}
);
unicode = 100;
},
